<?xml version="1.0" standalone="no"?>
<!DOCTYPE svg PUBLIC "-//W3C//DTD SVG 1.1//EN" "http://www.w3.org/Graphics/SVG/1.1/DTD/svg11.dtd" >
<svg>
<metadata>
Created by FontForge 20110222 at Mon Jan 12 03:05:44 2015
 By deploy user
Copyright (c) 2013 by Mans Greba:ck. All rights reserved.
</metadata>
<defs>
<font id="ImpregnablePersonalUseOnly" horiz-adv-x="249" >
  <font-face 
    font-family="Impregnable Personal Use Only"
    font-weight="400"
    font-stretch="normal"
    units-per-em="1000"
    panose-1="2 0 0 0 0 0 0 0 0 0"
    ascent="750"
    descent="-250"
    x-height="327"
    cap-height="527"
    bbox="-119.783 -205 822 696"
    underline-thickness="50"
    underline-position="-50"
    unicode-range="U+0020-FB02"
  />
<missing-glyph horiz-adv-x="500" 
 />
    <glyph glyph-name="o_z" unicode="o&#x7a;" horiz-adv-x="530" 
d="M513 324q6 3 16 2.5t19 -3t13 -6.5t-2 -7q-17 -10 -49.5 -37t-69.5 -62.5t-74.5 -74.5t-64.5 -73q21 13 40.5 12.5t37.5 -6.5t34 -13t30 -7t27.5 10t25 24t20.5 28.5t14 23.5q9 16 18 13.5t-1 -21.5q-9 -18 -22.5 -40t-31 -41.5t-37 -32.5t-40.5 -13q-18 0 -38 8t-39 15
t-37 8t-33 -13q-4 -4 -9.5 -6t-9.5 -1t-5 5.5t5 13.5q16 25 41.5 61t51.5 71t49.5 65.5t35.5 45.5q-38 -11 -61.5 -12t-28.5 -1q-20 -14 -48 -21.5t-55 -5.5q-1 -11 -2.5 -22t-4.5 -23q-8 -34 -24.5 -65.5t-37.5 -56.5t-44.5 -42t-47.5 -22t-41.5 3t-27.5 27t-11.5 46.5
t7.5 61.5q8 34 24.5 65.5t37.5 56.5t44.5 42.5t47.5 22.5q34 7 55 -13t25 -58q15 -6 36.5 -1.5t40.5 13.5q-8 9 -5 24.5t12 30.5t22.5 26t26.5 11q12 0 17 -8t3.5 -19.5t-8.5 -25.5t-19 -26q36 0 74.5 13t77.5 30zM205 198q3 11 4 22t1 21q-26 10 -39.5 27.5t-5.5 35.5h-6
q-15 -2 -31 -13.5t-29.5 -29t-24.5 -40t-17 -46.5t-5.5 -44.5t7 -35t18 -21.5t26.5 -5q15 3 31 14.5t30 29t24.5 39.5t16.5 46z" />
    <glyph glyph-name="o_r" unicode="or" horiz-adv-x="479" 
d="M479 135q11 17 18.5 13.5t-0.5 -21.5q-9 -20 -27 -42.5t-39.5 -41.5t-45 -31t-42.5 -12q-28 0 -38 17.5t-8.5 44.5t12 59.5t23.5 62.5t26 53.5t20 32.5q-5 2 -10.5 4.5t-11.5 6.5q-8 -10 -21.5 -19t-30 -16t-34.5 -11t-35 -2q-1 -11 -2.5 -22t-4.5 -23
q-8 -34 -24.5 -65.5t-37.5 -56.5t-44.5 -42t-47.5 -22t-41.5 3t-27.5 27t-11.5 46.5t7.5 61.5q8 34 24.5 65.5t37.5 56.5t44.5 42.5t47.5 22.5q34 7 55 -13t25 -58q10 -4 24.5 -2t29.5 8t28.5 14.5t21.5 16.5q-15 15 -13 37t13.5 40.5t29 29t33.5 2.5q14 -8 13 -22.5
t-8 -29.5q-8 -18 -23 -38q7 -11 21.5 -13.5t26.5 -4t17 -6t-7 -18.5q-15 -18 -32.5 -54t-28.5 -72.5t-11 -64t21 -27.5q19 0 43.5 24t44.5 59zM205 198q3 11 4 22t1 21q-26 10 -39.5 27.5t-5.5 35.5h-6q-15 -2 -31 -13.5t-29.5 -29t-24.5 -40t-17 -46.5t-5.5 -44.5t7 -35
t18 -21.5t26.5 -5q15 3 31 14.5t30 29t24.5 39.5t16.5 46z" />
    <glyph glyph-name="b_r" unicode="br" horiz-adv-x="439" 
d="M143 138q12 35 9 64.5t-17 53.5q-5 10 -1.5 27t10.5 31.5t16 22.5t14 0q18 -29 19 -73q12 -4 26.5 -5t29.5 2t28.5 10t24.5 19q-17 14 -16 36.5t12.5 42t29.5 30.5t34 3q14 -8 13 -22.5t-8 -29.5q-8 -18 -23 -38q7 -11 21.5 -13.5t26.5 -4t17 -6t-7 -18.5
q-15 -18 -32.5 -54t-28.5 -72.5t-11 -64t21 -27.5q19 0 43.5 24t44.5 59q11 17 18.5 13.5t-0.5 -21.5q-9 -20 -27 -42.5t-39.5 -41.5t-45 -31t-42.5 -12q-28 0 -38 17.5t-8.5 44.5t12 59.5t23.5 62.5t26 53.5t20 32.5q-8 3 -19 9q-21 -29 -56.5 -38.5t-70.5 -1.5
q-2 -26 -8.5 -54.5t-20.5 -57.5q-9 -20 -25.5 -42.5t-36.5 -41.5t-41.5 -31t-40.5 -12q-24 0 -30.5 19t-4.5 45t10 53t14 44q8 21 18 51.5t21.5 64.5t23 69t21.5 65t17.5 51.5t10.5 28.5q5 11 16.5 16t23 5t18 -5.5t2.5 -15.5q-3 -7 -11.5 -31.5t-19.5 -57.5t-24 -70.5
t-24 -71t-19.5 -59t-10.5 -34.5q-4 -13 -11.5 -32.5t-12 -38t-3.5 -31.5t13 -13q9 0 21.5 6.5t24.5 17.5t23 27t17 35z" />
    <glyph glyph-name="v_r" unicode="vr" horiz-adv-x="437" 
d="M437 135q11 17 18.5 13.5t-0.5 -21.5q-9 -20 -27 -42.5t-39.5 -41.5t-45 -31t-42.5 -12q-28 0 -38 17.5t-8.5 44.5t12 59.5t23.5 62.5t26 53.5t20 32.5q-5 2 -10 4.5l-11 5.5q-30 -37 -60 -53t-52 -13q-12 -35 -29.5 -72.5t-38.5 -68.5t-44.5 -51t-47.5 -20
q-23 0 -34.5 17.5t-13.5 46t4 64t16.5 70.5t24 66t28.5 52q4 5 14 8t19 3t15 -3t2 -9q-10 -16 -20.5 -40t-19.5 -51t-15 -54.5t-7 -49t4.5 -35.5t19.5 -14q13 0 27 13.5t26.5 35t24.5 48.5t21 53q-13 9 -15 27t2.5 35.5t15 30.5t23.5 13q10 0 14.5 -8t4.5 -20.5t-3.5 -27.5
t-7.5 -28l-2 -8v-1q14 1 37 14t49 43q-15 15 -13 37t13.5 40.5t29 29t33.5 2.5q14 -8 13 -22.5t-8 -29.5q-8 -18 -23 -38q7 -11 21.5 -13.5t26.5 -4t17 -6t-7 -18.5q-15 -18 -32.5 -54t-28.5 -72.5t-11 -64t21 -27.5q19 0 43.5 24t44.5 59z" />
    <glyph glyph-name="w_r" unicode="wr" horiz-adv-x="527" 
d="M105 318q10 11 20.5 9t1.5 -12q-23 -27 -41.5 -64t-29 -72t-11 -60.5t13.5 -29.5q7 -2 15.5 9.5t18.5 31.5t21 45.5t23 51.5q11 27 22.5 50.5t23.5 40.5q4 5 13.5 8t19 3t15.5 -3t2 -9q-10 -16 -21.5 -40t-22 -51t-18 -54.5t-10 -49t2 -35.5t18.5 -14t26 13.5t22.5 35
t20 48.5t18.5 53q-13 9 -15 27t2.5 35.5t15 30.5t23.5 13q10 0 14 -8t4 -20.5t-3 -27.5t-7 -28l-2 -8v-1q14 1 37 14t49 43q-15 15 -13 37t13.5 40.5t29 29t33.5 2.5q14 -8 13 -22.5t-8 -29.5q-8 -18 -23 -38q7 -11 21.5 -13.5t26.5 -4t17 -6t-7 -18.5q-15 -18 -32.5 -54
t-28.5 -72.5t-11 -64t21 -27.5q19 0 43.5 24t44.5 59q11 17 18.5 13.5t-0.5 -21.5q-9 -20 -27 -42.5t-39.5 -41.5t-45 -31t-42.5 -12q-28 0 -38 17.5t-8.5 44.5t12 59.5t23.5 62.5t26 53.5t20 32.5q-5 2 -10 4.5l-11 5.5q-30 -37 -60 -53t-52 -13q-12 -35 -27.5 -72.5
t-34.5 -68.5t-40.5 -51t-45.5 -20q-16 0 -25.5 8t-14 22t-5 33t2.5 41q-22 -45 -44.5 -75.5t-48.5 -30.5q-22 0 -26 32t9 80t41 103.5t71 102.5z" />
    <glyph glyph-name="fi" unicode="fi" horiz-adv-x="273" 
d="M282 381q0 -15 -10.5 -26t-26.5 -11h-115q-8 -23 -20 -59t-26.5 -79t-30 -88.5t-30.5 -87.5q15 21 31 41.5t31.5 38t29 31.5t23.5 23q17 48 29.5 86.5t20.5 55.5q5 11 17 16t23 5t17.5 -5.5t2.5 -15.5q-4 -11 -13.5 -37t-20 -56t-20 -58t-13.5 -41t-7 -24.5t-4 -19.5
t2.5 -13t12.5 -5q18 0 43 24t45 59q10 17 17.5 13.5t-0.5 -21.5q-9 -20 -26.5 -42.5t-39 -41.5t-45 -31t-42.5 -12q-20 0 -27.5 10.5t-7.5 26.5t5.5 35t11.5 36l5 15q-37 -40 -74 -89.5t-60 -99.5q-7 -18 -11.5 -30t-6.5 -17q-4 -8 -15 -12t-22.5 -4t-18.5 4t-4 12
q3 6 14 37.5t26.5 75.5t33.5 96t35 100.5t30.5 88t19.5 58.5l-1 1h-40q-5 0 -6 4t1 9t6 9t9 4h20q-6 21 -5 44t11.5 43t31 34t51.5 19q26 4 43.5 -5t24 -24.5t1 -33.5t-26.5 -33q-11 -8 -25.5 -9t-26.5 1.5t-17.5 7t2.5 8.5q19 8 30.5 20t15 23t-0.5 19t-16 8
q-17 0 -28 -12.5t-15 -30.5t-1 -39.5t14 -39.5h87q-1 3 -1 11q0 15 10.5 25.5t25.5 10.5q16 0 26.5 -10.5t10.5 -25.5z" />
    <glyph glyph-name="fl" unicode="fl" horiz-adv-x="272" 
d="M130 344q-8 -23 -20 -59t-26.5 -79t-30 -88.5t-30.5 -87.5q15 21 31 41.5t31.5 38t29 31.5t23.5 23l31.5 94.5t33 101.5t28 85.5t16.5 45.5q5 11 17 16t23 5t17.5 -5.5t2.5 -15.5q-3 -7 -12.5 -35t-23 -67t-28 -83.5t-27.5 -84t-23 -69t-12 -38.5q-4 -13 -7.5 -24.5
t-4.5 -19.5t2.5 -13t12.5 -5q19 0 43.5 24t44.5 59q11 17 18.5 13.5t-0.5 -21.5q-9 -20 -27 -42.5t-39.5 -41.5t-45 -31t-42.5 -12q-20 0 -27 10.5t-7 26.5t5.5 35t11.5 36l5 15q-37 -40 -74 -89.5t-60 -99.5q-7 -18 -11.5 -30t-6.5 -17q-4 -8 -15 -12t-22.5 -4t-18.5 4
t-4 12q3 6 14 37.5t26.5 76t33.5 96.5t35 100.5t30.5 88t19.5 58.5h-47q-5 0 -6 4t1 9t6 9t9 4h27q-3 22 0 45t13.5 42.5t29.5 34t48 18.5q26 4 43.5 -5t24 -24.5t1 -33.5t-26.5 -33q-11 -8 -25.5 -9t-26.5 1.5t-17.5 7t2.5 8.5q19 8 30.5 20t15 23t-0.5 19t-16 8
q-17 0 -27.5 -12.5t-14 -30.5t-0.5 -39.5t13 -39.5h60q5 0 6 -4t-1 -9t-6 -9t-9 -4h-47z" />
    <glyph glyph-name="T_h" unicode="Th" horiz-adv-x="664" 
d="M94 14q21 0 41.5 18t41 48.5t41.5 70.5t43 83.5t45 87t47 82.5q-24 -19 -54 -38.5t-64 -33t-70.5 -17.5t-71.5 7q-37 12 -53.5 37.5t-13.5 55.5t25 59.5t61.5 47.5t96 20.5t129.5 -20.5q29 -9 53.5 -13.5t43.5 -6.5q19 16 39 24.5t42 7.5q43 -2 55 -16t4 -27
q-12 -18 -44.5 -22.5t-81.5 3.5q-16 -27 -37 -73t-46 -99t-54.5 -107.5t-63.5 -98t-72 -71.5t-80 -28q-29 0 -49 10t-30.5 24.5t-12.5 32.5t2.5 33.5t16.5 26.5t29 13q19 2 28 -8t11 -22.5t-1.5 -23.5t-10.5 -11q-14 0 -19.5 -9t-3.5 -19.5t11.5 -19t26.5 -8.5zM543 435
q-6 -18 -16 -47t-22 -64t-25 -73.5t-26 -75.5q18 30 37.5 57.5t39 48.5t38 33.5t34.5 12.5q27 0 30.5 -20.5t-5.5 -51t-25 -66t-28 -66t-14.5 -51t15.5 -20.5t43 24t45 59q10 17 17.5 13.5t-0.5 -21.5q-9 -20 -26.5 -42.5t-39 -41.5t-45 -31t-42.5 -12q-25 0 -30 19.5
t1.5 48.5t20 63t24.5 63t15 48.5t-7 19.5q-9 0 -28 -21t-41 -53.5t-43 -72.5t-34 -78l-3 -7l-3 -8q-5 -11 -17 -16t-23 -5t-18 5t-2 16q3 7 13.5 37.5t25.5 72.5t31.5 90.5t31 91t25 74l13.5 40.5q3 11 14.5 17.5t23.5 7t20 -3.5t5 -14zM131 349q33 -11 70.5 -1.5t73.5 28.5
t66 41t48 37q5 7 10 13t11 12q-19 5 -39 10.5t-42 12.5q-44 14 -83.5 10.5t-70.5 -17.5t-51.5 -35.5t-28 -43t0.5 -40.5t35 -27z" />
    <glyph glyph-name="p_r" unicode="pr" horiz-adv-x="444" 
d="M444 135q11 17 18.5 13.5t-0.5 -21.5q-9 -20 -27 -42.5t-39.5 -41.5t-45 -31t-42.5 -12q-28 0 -38 17.5t-8.5 44.5t12 59.5t23.5 62.5t26 53.5t20 32.5q-7 3 -15 7t-17 10q-13 -14 -28.5 -27.5t-29.5 -24.5q-5 -34 -20 -72t-37.5 -71.5t-50.5 -58t-59 -31.5
q-32 -7 -51 13q-4 4 -3 9t4.5 9t8 5t8.5 -2q7 -5 15 -5q14 2 31.5 20.5t34 46t31 59.5t22.5 60.5t8 49t-12 24.5q-11 4 -27.5 -10t-34 -37t-34 -52t-27.5 -55q-18 -52 -37 -106.5t-35 -101t-27.5 -78.5t-14.5 -39q-4 -9 -15 -13t-22.5 -4t-18.5 4.5t-4 12.5q3 7 16 43.5
t31 88t39 111t39 111.5t30.5 89.5l15.5 46.5q3 11 14.5 17.5t23.5 7t20 -3.5t5 -14l-24 -67q23 33 48 56.5t49 28.5q33 6 47.5 -12.5t14.5 -50.5q12 10 23 19.5t19 18.5q-9 16 -5 36.5t16 37t28 25t31 1.5q14 -8 12.5 -22t-9.5 -28q-10 -17 -26 -35q7 -11 22 -14t28 -6
t19 -8t-6 -19q-15 -18 -32.5 -54t-28.5 -72.5t-11 -64t21 -27.5q19 0 43.5 24t44.5 59z" />
    <glyph glyph-name=".notdef" horiz-adv-x="500" 
 />
    <glyph glyph-name=".null" horiz-adv-x="0" 
 />
    <glyph glyph-name="nonmarkingreturn" horiz-adv-x="500" 
 />
    <glyph glyph-name="space" unicode=" " horiz-adv-x="202" 
 />
    <glyph glyph-name="space" unicode="&#xa0;" horiz-adv-x="202" 
 />
    <glyph glyph-name="x" unicode="x" horiz-adv-x="213" 
d="M56 227q-5 -1 -11 -1q-6 -29 -3.5 -53.5t10.5 -44.5q21 29 41.5 58.5t37.5 55t28 44t13 26.5q4 14 11 17t13.5 -1t10.5 -12.5t2 -17.5q-2 -5 -15 -24t-33.5 -46t-45.5 -59.5t-50 -63.5q22 -30 56 -36q31 -6 51.5 12.5t40.5 53.5q11 17 18.5 13.5t-0.5 -21.5
q-9 -20 -24.5 -42.5t-34 -41.5t-39.5 -31t-40 -12q-26 0 -44 14t-29 37l-34 -39q-15 -17 -21 -11t11 27q8 9 17 20.5t19 25.5q-7 25 -7.5 55t5 62t18 64t31.5 62q5 7 10 8q7 5 20 5q18 -2 22 -17.5t-1.5 -34.5t-20 -34.5t-33.5 -16.5z" />
    <glyph glyph-name="w" unicode="w" horiz-adv-x="301" 
d="M105 318q10 11 20.5 9t1.5 -12q-23 -27 -41.5 -64t-29 -72t-11 -60.5t13.5 -29.5q7 -2 15.5 9.5t18.5 31.5t21 45.5t23 51.5q11 27 22.5 50.5t23.5 40.5q4 5 13.5 8t19 3t15.5 -3t2 -9q-10 -16 -21.5 -40t-22 -51t-18 -54.5t-10 -49t2 -35.5t18.5 -14t26 13.5t22.5 35
t20 48.5t18.5 53q-13 9 -15 27t2.5 35.5t15 30.5t23.5 13q10 0 14 -8t4 -20.5t-3 -27.5t-7 -28l-2 -8q0 -1 -0.5 -1t-0.5 -1q16 -2 38 4.5t37 21.5q11 12 16.5 7.5t-2.5 -17.5q-7 -10 -18.5 -17.5t-25 -13t-27 -7t-25.5 0.5q-12 -35 -27.5 -72.5t-34.5 -68.5t-40.5 -51
t-45.5 -20q-16 0 -25.5 8t-14 22t-5 33t2.5 41q-22 -45 -44.5 -75.5t-48.5 -30.5q-22 0 -26 32t9 80t41 103.5t71 102.5z" />
    <glyph glyph-name="v" unicode="v" horiz-adv-x="211" 
d="M285 261q11 12 16.5 7.5t-2.5 -17.5q-7 -10 -18.5 -18t-25 -13t-27 -6.5t-25.5 0.5q-13 -35 -30.5 -72.5t-38.5 -68.5t-44 -51t-47 -20q-23 0 -34.5 17.5t-13.5 46t4 64t16.5 70.5t24 66t28.5 52q4 5 14 8t19 3t15 -3t2 -9q-10 -16 -20.5 -40t-19.5 -51t-15 -54.5t-7 -49
t4.5 -35.5t19.5 -14q13 0 27 13.5t26.5 35t24.5 48.5t21 53q-13 9 -15 27t2.5 35.5t15 30.5t23.5 13q10 0 14.5 -8t4.5 -20.5t-3.5 -27.5t-7.5 -28l-2 -8q0 -1 -0.5 -1t-0.5 -1q16 -2 38.5 4.5t36.5 21.5z" />
    <glyph glyph-name="t" unicode="t" horiz-adv-x="144" 
d="M127 344q-10 -29 -22 -65t-22.5 -69.5t-19 -59.5t-11.5 -36q-4 -13 -7.5 -24.5t-4 -19.5t2.5 -13t12 -5q19 0 44 24t45 59q10 17 17.5 13.5t-0.5 -21.5q-9 -20 -26.5 -42.5t-39.5 -41.5t-45 -31t-42 -12q-20 0 -27.5 10.5t-7.5 26.5t5.5 35t11.5 36q9 24 19.5 55.5t21 64
t20.5 63t18 53.5h-41q-5 0 -6 4t1 9t6 9t9 4h40l4 10q4 11 16.5 20t25 13t20.5 1.5t4 -12.5l-12 -32h55q5 0 6 -4t-1 -9t-6 -9t-9 -4h-54z" />
    <glyph glyph-name="q" unicode="q" horiz-adv-x="292" 
d="M133 -118q-10 -28 -17 -46.5t-9 -23.5q-4 -9 -15 -13t-22 -4t-18.5 4.5t-4.5 12.5q2 5 8.5 23.5t17.5 46.5h-41q-5 0 -5.5 4t1.5 9t5.5 9t8.5 4h40l49 140q-23 -23 -47.5 -36.5t-45.5 -13.5t-33 13.5t-16 36t1.5 52.5t20.5 64t36 64t44.5 52.5t47 35.5t44.5 13
q25 0 38 -21q6 9 17 13.5t21.5 5t17.5 -4t4 -13.5l-96 -280q16 22 33 43.5t33 40t30 32.5t24 22q16 13 21 6.5t-9 -20.5q-22 -21 -46 -48t-47.5 -57.5t-43.5 -63t-33 -63.5l-5 -13h44q4 0 5 -4t-0.5 -9t-5.5 -9t-9 -4h-43zM83 54q14 -1 30.5 9.5t33.5 28.5q20 59 37.5 110.5
t27.5 78.5q-8 21 -28 23q-14 0 -29.5 -9.5t-31.5 -26t-30.5 -39t-24.5 -48.5q-21 -52 -16.5 -89t31.5 -38z" />
    <glyph glyph-name="p" unicode="p" horiz-adv-x="275" 
d="M275 135q11 16 19 12.5t-1 -20.5q-5 -9 -19 -29.5t-40 -42.5t-65.5 -38.5t-94.5 -16.5q-25 -2 -39 15q-4 4 -3 9t4.5 9t8 5t8.5 -2q7 -5 15 -5q14 2 31.5 20.5t34 46t31 59.5t22.5 60.5t8 49t-12 24.5q-11 4 -27.5 -10t-34 -37t-34 -52t-27.5 -55q-18 -52 -37 -106.5
t-35 -101t-27.5 -78.5t-14.5 -39q-4 -9 -15 -13t-22.5 -4t-18.5 4.5t-4 12.5q3 7 16 43.5t31 88t39 111t39 111.5t30.5 89.5l15.5 46.5q3 11 14.5 17.5t23.5 7t20 -3.5t5 -14l-24 -67q23 33 48 56.5t49 28.5q29 5 44 -8.5t18 -39t-4.5 -59t-22.5 -68.5t-37 -66.5t-48 -53.5
q35 10 69.5 36t62.5 67z" />
    <glyph glyph-name="k" unicode="k" horiz-adv-x="273" 
d="M182 493q-6 -18 -17 -50t-24.5 -71.5t-28.5 -84t-30 -87.5q49 77 90.5 108t71.5 11q22 -15 22 -39.5t-19 -51.5t-55.5 -51.5t-85.5 -38.5q26 -9 36 -23.5t14.5 -28.5t8.5 -24t19 -10q19 0 44 24t45 59q10 17 17.5 13.5t-0.5 -21.5q-9 -20 -26.5 -42.5t-39.5 -41.5
t-45 -31t-42 -12q-30 0 -36.5 17.5t-7 40t-5 42.5t-31.5 26q-14 -41 -24 -69t-13 -35q-5 -11 -17 -16t-23 -5t-18 5t-2 16q3 7 15 41.5t29 83.5t36 104.5t36 105t28.5 85t14.5 44.5q3 11 14.5 17.5t23.5 7t20 -3.5t5 -14zM192 279q-8 6 -21.5 -2.5t-30.5 -26.5t-36.5 -45
t-38.5 -59q25 1 50.5 19.5t45 42t29 44.5t2.5 27z" />
    <glyph glyph-name="u" unicode="u" horiz-adv-x="288" 
d="M134 108q3 9 6.5 18t6.5 19q-17 -29 -36 -55.5t-38 -46.5t-37 -31.5t-33 -11.5q-22 0 -24 32t13 80t45 103.5t73 102.5q10 11 20.5 9t1.5 -12q-23 -27 -43.5 -63.5t-33 -71t-15 -60.5t10.5 -31q12 -5 29.5 9t36 39t37 58.5t33.5 68.5q5 14 9 24.5t7 17.5q5 11 17 16t23 5
t17.5 -5.5t2.5 -15.5q-4 -11 -13.5 -37t-20 -56t-20 -58t-13.5 -41t-7 -24.5t-4 -19.5t2.5 -13t12.5 -5q18 0 43 24t45 59q10 17 17.5 13.5t-0.5 -21.5q-9 -20 -26.5 -42.5t-39.5 -41.5t-45 -31t-42 -12q-20 0 -27.5 10.5t-7.5 26.5t5.5 35t11.5 36z" />
    <glyph glyph-name="j" unicode="j" horiz-adv-x="133" 
d="M145 167q16 13 21 6.5t-9 -20.5q-22 -22 -47 -49.5t-48.5 -58.5t-43.5 -64t-33 -65l-15 -46q-6 -19 -4 -21t16 5q7 4 12 3t6 -5t-3.5 -9.5t-15.5 -9.5q-8 -3 -25 -11t-33 -13.5t-26.5 -4.5t-5.5 16q7 21 21.5 63t32 93.5t37 106.5t36 102.5t28.5 80.5t15 40q5 11 17 16
t23.5 5t19 -5.5t3.5 -15.5q-2 -6 -12 -33t-24.5 -66.5t-31.5 -87t-33 -94.5q32 47 66.5 86t55.5 56zM155 386q0 -15 -10.5 -26t-25.5 -11t-26 11t-11 26t11 25.5t26 10.5t25.5 -10.5t10.5 -25.5z" />
    <glyph glyph-name="i" unicode="i" horiz-adv-x="144" 
d="M-10 108q11 31 21.5 62t19.5 57.5t16 47t12 31.5t17 16t23 5t17.5 -5.5t2.5 -15.5q-4 -11 -13.5 -37t-20 -56t-20 -58t-13.5 -41t-7 -24.5t-4 -19.5t2.5 -13t12.5 -5q18 0 43 24t45 59q10 17 17.5 13.5t-0.5 -21.5q-9 -20 -26.5 -42.5t-39 -41.5t-45 -31t-42.5 -12
q-20 0 -27.5 10.5t-7.5 26.5t5.5 35t11.5 36zM153 386q0 -15 -10.5 -26t-26.5 -11q-15 0 -25.5 11t-10.5 26t10.5 25.5t25.5 10.5q16 0 26.5 -10.5t10.5 -25.5z" />
    <glyph glyph-name="h" unicode="h" horiz-adv-x="284" 
d="M182 493q-7 -19 -19 -54.5t-27 -79.5t-31.5 -92.5t-31.5 -92.5q18 30 37.5 57.5t39 49t38.5 34t35 12.5q27 0 30.5 -20.5t-5.5 -51t-25 -66t-28 -66t-14.5 -51t15.5 -20.5t43 24t45 59q10 17 17.5 13.5t-0.5 -21.5q-9 -20 -26.5 -42.5t-39 -41.5t-45 -31t-42.5 -12
q-25 0 -29.5 19.5t1.5 48.5t19.5 63t24.5 63t15 48.5t-7 19.5q-9 0 -28 -21t-41 -53.5t-43 -72.5t-34 -78l-3 -8q-3 -5 -3 -7q-5 -11 -17 -16t-23 -5t-18 5t-2 16q3 7 15 41.5t29 83.5t36 104.5t36 105t28.5 85t14.5 44.5q3 11 14.5 17.5t23.5 7t20 -3.5t5 -14z" />
    <glyph glyph-name="g" unicode="g" horiz-adv-x="290" 
d="M302 167q16 13 21 6.5t-9 -20.5q-24 -23 -50.5 -53t-51 -63.5t-45 -68.5t-31.5 -69l-2 -5l-8 -24q-5 -19 -3.5 -21t15.5 5q16 8 18.5 -2t-19.5 -19q-8 -3 -24.5 -11t-32.5 -13.5t-26.5 -4.5t-5.5 16q4 13 12 36t18 52.5t22 63.5t24 69q-23 -20 -44.5 -31.5t-41.5 -11.5
q-21 0 -33 13.5t-16 36t1.5 52.5t20.5 64t36 64t44.5 52.5t47 35.5t44.5 13q24 0 37 -19q6 9 18 13t22.5 3.5t17.5 -5.5t3 -15q-2 -6 -12 -33t-24.5 -67t-32 -87.5t-33.5 -93.5q16 23 33 45t33.5 41t31 33.5t25.5 22.5zM83 54q12 -1 26.5 7t28.5 22q23 65 42 120t30 83
q-9 17 -26 18q-14 0 -29.5 -9.5t-31.5 -26t-30.5 -39t-24.5 -48.5q-21 -52 -16.5 -89t31.5 -38z" />
    <glyph glyph-name="e" unicode="e" 
d="M249 135q12 17 19 13t-2 -21q-11 -22 -28.5 -44.5t-40 -40.5t-49 -29t-56.5 -11q-22 0 -41.5 9t-33 26.5t-19 43t1.5 58.5q6 31 20 61.5t34 56t44 44t50 25.5q39 10 62 -5.5t19 -47t-41.5 -75t-119.5 -90.5q11 -29 35 -41.5t52 -7.5q33 7 53.5 27.5t40.5 48.5zM62 179
q-5 -29 0 -51q59 33 83 66.5t26 58.5t-12 37t-31 3q-28 -14 -44 -46.5t-22 -67.5z" />
    <glyph glyph-name="c" unicode="c" 
d="M249 135q6 9 11.5 12t9 1.5t3.5 -7.5t-5 -14q-14 -24 -32 -46.5t-39.5 -40t-47.5 -28t-55 -10.5q-22 0 -41.5 9t-33.5 26.5t-19.5 43t0.5 58.5q6 31 20.5 62t34 57t44 44.5t51.5 23.5q33 6 52.5 -11t23.5 -45t-9 -59.5t-44 -53.5q-12 -9 -28 -11t-29 0t-19.5 7.5
t1.5 11.5q27 24 46 49t27.5 45.5t5 33.5t-22.5 13q-14 0 -28.5 -9.5t-27.5 -26.5t-23 -41.5t-13 -54.5q-3 -26 1.5 -49t16.5 -39.5t30.5 -24t44.5 -2.5q33 7 56 29t38 47z" />
    <glyph glyph-name="o" unicode="o" horiz-adv-x="253" 
d="M327 261q10 13 16 8.5t-2 -18.5q-6 -9 -17.5 -14.5t-26 -7.5t-31 -1t-31.5 5q-1 -11 -2.5 -22t-4.5 -23q-8 -34 -24.5 -65.5t-37.5 -56.5t-44.5 -42t-47.5 -22t-41.5 3t-27.5 27t-11.5 46.5t7.5 61.5q8 34 24.5 65.5t37.5 56.5t44.5 42.5t47.5 22.5q34 7 55 -13t25 -58
q12 -5 25.5 -7t26.5 -1.5t24 3.5t16 10zM205 198q3 11 4 22t1 21q-26 10 -39.5 27.5t-5.5 35.5h-6q-15 -2 -31 -13.5t-29.5 -29t-24.5 -40t-17 -46.5t-5.5 -44.5t7 -35t18 -21.5t26.5 -5q15 3 31 14.5t30 29t24.5 39.5t16.5 46z" />
    <glyph glyph-name="d" unicode="d" horiz-adv-x="308" 
d="M183 329q24 0 39 -21q10 32 20 62.5t18.5 55.5t14 42t8.5 23q5 11 17 16t23 5t18 -5.5t3 -15.5q-3 -7 -13 -35t-23 -67t-28 -83.5t-28 -84t-23 -69t-12 -38.5q-4 -13 -7.5 -24.5t-4 -19.5t2.5 -13t12 -5q19 0 43.5 24t44.5 59q11 17 18.5 13.5t-0.5 -21.5
q-9 -20 -27 -42.5t-39.5 -41.5t-45 -31t-42.5 -12q-25 0 -31 16.5t-1 39.5q-26 -27 -52.5 -42.5t-49.5 -15.5q-21 0 -33 13.5t-16 36t1.5 52.5t20.5 64t36 64t44.5 52.5t47 35.5t44.5 13zM155 108q9 26 24.5 72.5t32.5 98.5q-8 24 -28 25q-14 0 -29.5 -9.5t-31.5 -26
t-30.5 -39t-24.5 -48.5q-21 -52 -16.5 -89t31.5 -38q15 -1 32.5 10.5t34.5 31.5z" />
    <glyph glyph-name="n" unicode="n" horiz-adv-x="283" 
d="M72 174q18 30 37.5 57.5t39.5 49t38.5 34t34.5 12.5q27 0 30.5 -20.5t-5.5 -51t-25 -66t-28 -66t-14.5 -51t15.5 -20.5q19 0 43.5 24t44.5 59q11 17 18.5 13.5t-0.5 -21.5q-9 -20 -27 -42.5t-39.5 -41.5t-45 -31t-42.5 -12q-25 0 -29.5 19.5t1.5 48.5t19.5 63t24.5 63
t15 48.5t-7 19.5q-9 0 -27.5 -20t-39.5 -51.5t-41.5 -70.5t-34.5 -76l-4 -9v-1l-5 -12q-5 -11 -16.5 -16t-23 -5t-18.5 5t-2 16q3 7 10.5 28.5t18 50.5t22 62t21.5 63l17.5 52.5l10.5 31.5q3 10 13.5 14t21.5 3t19 -6t5 -13z" />
    <glyph glyph-name="l" unicode="l" horiz-adv-x="143" 
d="M-10 108l18.5 55.5t25 74.5t27 82t25 77.5t20.5 61t12 32.5q5 11 17 16t23 5t17.5 -5.5t2.5 -15.5q-3 -7 -12.5 -35t-23 -67t-28 -83.5t-27.5 -84t-23 -69t-12 -38.5q-4 -13 -7.5 -24.5t-4.5 -19.5t2.5 -13t12.5 -5q19 0 43.5 24t44.5 59q11 17 18.5 13.5t-0.5 -21.5
q-9 -20 -27 -42.5t-39.5 -41.5t-45 -31t-42.5 -12q-20 0 -27 10.5t-7 26.5t5.5 35t11.5 36z" />
    <glyph glyph-name="b" unicode="b" horiz-adv-x="213" 
d="M288 261q10 13 17 8.5t-1 -18.5q-5 -9 -17 -15t-28 -8t-33.5 -0.5t-33.5 6.5q-2 -25 -9 -52t-20 -55q-9 -20 -25.5 -42.5t-36.5 -41.5t-41.5 -31t-40.5 -12q-24 0 -30.5 19t-4.5 45t10 53t14 44q8 21 18 51.5t21.5 64.5t23 69t21.5 65t17.5 51.5t10.5 28.5q5 11 16.5 16
t23 5t18 -5.5t2.5 -15.5q-3 -7 -11.5 -31.5t-19.5 -57.5t-24 -70.5t-24 -71t-19.5 -59t-10.5 -34.5q-4 -13 -11.5 -32.5t-12 -38t-3.5 -31.5t13 -13q9 0 21.5 6.5t24.5 17.5t23 27t17 35q12 35 9 64.5t-17 53.5q-5 10 -1.5 27t10.5 31.5t16 22.5t14 0q18 -30 19 -76
q12 -5 26 -8.5t27.5 -4t24.5 2.5t17 10z" />
    <glyph glyph-name="r" unicode="r" horiz-adv-x="226" 
d="M226 135q11 17 18.5 13.5t-0.5 -21.5q-9 -20 -27 -42.5t-39.5 -41.5t-45 -31t-42.5 -12q-28 0 -38 17.5t-8.5 44.5t12 59.5t23.5 62.5t26 53.5t20 32.5q-6 2 -13 6t-15 9q-7 -15 -18.5 -38l-23.5 -47l-22 -44t-15 -29q-6 -11 -12.5 -15.5t-10 -3t-3 8t7.5 18.5
q5 9 15.5 29.5t22.5 45t23.5 49t19.5 40.5q-11 15 -7.5 36t15.5 38.5t28.5 27t31.5 1.5q14 -8 12.5 -22t-9.5 -28q-10 -17 -26 -35q7 -11 22 -14t28 -6t19 -8t-6 -19q-15 -18 -32.5 -54t-28.5 -72.5t-11 -64t21 -27.5q19 0 43.5 24t44.5 59z" />
    <glyph glyph-name="s" unicode="s" horiz-adv-x="224" 
d="M101 319q9 7 21.5 9t22 0.5t13 -5t-4.5 -8.5q-13 -8 -15.5 -18.5t0.5 -24.5t10 -31.5t13 -37.5q11 -39 9.5 -78.5t-18.5 -69.5q38 28 72 80q11 16 19 12.5t-1 -20.5q-4 -8 -15.5 -25t-30.5 -36t-46 -36t-63 -25q-20 -5 -42 -5q-30 0 -48.5 14t-26 35t-5.5 45t12.5 45
t28.5 35t42 14q12 0 18 -10t7 -22t-2 -21.5t-8 -9.5q-26 0 -41 -16t-18 -35.5t7 -35.5t34 -16q21 0 35 15.5t20 39t5.5 52.5t-7.5 56q-6 24 -12.5 43.5t-8.5 36t3 30t21 24.5z" />
    <glyph glyph-name="m" unicode="m" horiz-adv-x="382" 
d="M246 0q-25 0 -30 19.5t2 48.5t20 63t24 63t15 48.5t-7 19.5q-7 0 -18.5 -12.5t-24.5 -33.5t-27.5 -48.5t-27.5 -57.5q-15 -38 -25.5 -65t-12.5 -32q-3 -6 -13.5 -9.5t-21.5 -3t-18 5t-2 14.5q1 3 7 18.5t14 37.5t18 48.5t19 51.5q7 18 13 33.5t8.5 27t1.5 18.5t-7 7
q-9 0 -24 -18.5t-32 -48t-34.5 -66.5t-31.5 -74l-7 -20v-1l-5 -12q-5 -11 -17 -16t-23 -5t-18 5t-2 16q3 7 10.5 28.5t18 50.5t21.5 62t21.5 63t18 52.5l10.5 31.5q3 10 13.5 14t21.5 3t18.5 -6t4.5 -13q-8 -23 -18 -52.5t-21 -61.5q15 27 31 51t32.5 42.5t32 29t30.5 10.5
t22.5 -7t8.5 -19.5t-3 -29t-11 -35.5q25 39 51 65t49 26q27 0 30.5 -20.5t-5.5 -51t-25 -66t-28 -66t-14.5 -51t15.5 -20.5q19 0 43.5 24t44.5 59q10 17 17.5 13.5t-0.5 -21.5q-9 -20 -26.5 -42.5t-39 -41.5t-45 -31t-42.5 -12z" />
    <glyph glyph-name="f" unicode="f" horiz-adv-x="129" 
d="M130 344q-8 -23 -20 -59t-26.5 -79t-30 -88.5t-30.5 -87.5q16 22 32.5 43.5t32.5 39.5t30 32t24 22q16 13 21 6.5t-9 -20.5q-21 -20 -44 -45.5t-45 -54t-42 -59t-33 -60.5q-7 -18 -11.5 -30t-6.5 -17q-4 -8 -15 -12t-22.5 -4t-18.5 4t-4 12q3 6 14 37.5t26.5 76
t33.5 96.5t35 100.5t30.5 88t19.5 58.5h-41q-5 0 -6 4t1 9t6 9t9 4h35q-2 22 4 45t20.5 42.5t36 33.5t51.5 19q26 4 43.5 -5t24 -24.5t1 -33.5t-26.5 -33q-11 -8 -25.5 -9t-26.5 1.5t-17.5 7t2.5 8.5q19 8 30.5 20t15 23t-0.5 19t-16 8q-17 0 -31 -12.5t-21.5 -30.5
t-8 -39.5t10.5 -39.5h52q5 0 6 -4t-1 -9t-6 -9t-9 -4h-53z" />
    <glyph glyph-name="Z" unicode="Z" horiz-adv-x="465" 
d="M322 -41q-20 0 -46.5 5.5t-56.5 13.5t-60.5 16t-57.5 14q-14 -5 -28 -7.5t-28 -2.5q-23 0 -33.5 6.5t-10 14.5t12.5 14.5t35 6.5q18 0 45 -3q33 24 71.5 68.5t79 97.5t82 109t80.5 103q-30 -20 -73 -40q-53 -25 -92.5 -27t-66 9.5t-38.5 34t-8.5 46.5t23 47t56.5 36
t91.5 12t127.5 -23q33 -10 58 -15q34 28 59 32q23 3 35.5 -7.5t7.5 -24.5q-5 -13 -19.5 -21t-51.5 -5q-16 -20 -38.5 -53.5t-50.5 -74t-60.5 -85t-68 -86.5t-73.5 -78t-76 -60q31 -3 65 -5t67 -2.5t63.5 2t53.5 9.5q12 4 14 0t-3 -15q-9 -21 -33 -41.5t-54 -20.5zM326 397
q48 19 84.5 43t53.5 38q-19 4 -46 12q-43 12 -80 10.5t-65.5 -11t-48.5 -25.5t-29 -32.5t-7 -31t17.5 -21t45.5 -3.5t75 21z" />
    <glyph glyph-name="X" unicode="X" horiz-adv-x="531" 
d="M95 17q26 0 46.5 16.5t39.5 42t38.5 56.5t43 61t52.5 55.5t68 38.5q-16 9 -24.5 26.5t-9.5 40.5q-18 -24 -40.5 -49t-49 -45t-57 -33t-64.5 -13q-39 0 -61 20t-26 50.5t10.5 66t49.5 66t89.5 50.5t131.5 20h44t37 1q17 14 37.5 24t33.5 12q23 3 33.5 -6t5.5 -23
q-5 -12 -22.5 -18.5t-53.5 -8.5q-20 -27 -31.5 -57t-15.5 -55t-0.5 -41t12.5 -16q24 0 41 17t32.5 42.5t31.5 55t38.5 55t53.5 42.5t77 17q7 0 10.5 -3.5t3.5 -8t-3.5 -8t-10.5 -3.5q-8 0 -21 -13t-29.5 -33t-36.5 -44.5t-42.5 -48.5t-47 -44.5t-50.5 -31.5q20 -11 23 -32.5
t-2.5 -48t-16 -54.5t-19 -51t-11 -37.5t8.5 -14.5q19 0 44 24t45 59q10 17 17.5 13.5t-0.5 -21.5q-9 -20 -26.5 -42.5t-39.5 -41.5t-45 -31t-42 -12q-31 0 -34.5 20.5t7 52t28.5 67.5t31 67.5t14.5 52t-21.5 20.5h-1q-28 -10 -50.5 -34.5t-43 -56t-42 -65t-48 -62t-60 -46.5
t-78.5 -18q-44 0 -66 20.5t-26 46t9 47.5t39 25q19 2 28 -7.5t11 -22t-1.5 -23.5t-10.5 -11q-14 0 -19.5 -9t-3.5 -19.5t11.5 -19t26.5 -8.5zM166 252q27 0 53.5 13.5t50.5 34.5t45 46t37 47q5 18 14 36.5t23 35.5h-60q-46 0 -84 -16t-65.5 -39.5t-44 -51t-19 -51t9 -39.5
t40.5 -16z" />
    <glyph glyph-name="Y" unicode="Y" horiz-adv-x="509" 
d="M268 17q24 0 45 24.5t41.5 64.5t39.5 89.5t38 100.5q-16 -27 -33.5 -51t-35.5 -40.5t-36 -22.5t-36 4q-29 16 -32 50t10 75q-17 -19 -36.5 -36.5t-42 -31t-47 -21.5t-50.5 -8q-39 0 -61 20t-25.5 50.5t11 66t49.5 66t89.5 50.5t131.5 20q29 0 53.5 0.5t41.5 1.5
q13 15 28 25.5t29 12.5q23 3 33 -7.5t5 -24.5q-4 -12 -22 -18.5t-56 -8.5q-22 -18 -42.5 -48t-32 -61.5t-10.5 -59t22 -39.5q13 -8 27 -2.5t28 18t27 31t24.5 38t21 37t15.5 29.5q23 48 46.5 79.5t51.5 36.5q6 2 8 -1t-2 -8q-13 -17 -28 -62.5t-34.5 -103t-43.5 -120
t-54.5 -115t-68.5 -86t-85 -33.5q-44 0 -66 20.5t-26 46t9 47.5t39 25q19 2 28 -7.5t11.5 -22t-1.5 -23.5t-11 -11q-14 0 -19.5 -9t-3.5 -19.5t11.5 -19t26.5 -8.5zM121 252q27 0 53 13t50 33.5t45 44.5t37 46q13 22 28 41.5t30 35.5q-17 -1 -36.5 -1h-42.5q-46 0 -84 -16
t-65.5 -39.5t-44 -51t-19.5 -51t9 -39.5t40 -16z" />
    <glyph glyph-name="T" unicode="T" horiz-adv-x="360" 
d="M94 14q21 0 41.5 18t41 48.5t41.5 70.5t43 83.5t45 87t47 82.5q-24 -19 -54 -38.5t-64 -33t-70.5 -17.5t-71.5 7q-37 12 -53.5 37.5t-13.5 55.5t25 59.5t61.5 47.5t96 20.5t129.5 -20.5q29 -9 53.5 -13.5t43.5 -6.5q19 16 39 24.5t42 7.5q43 -2 55 -16t4 -27
q-12 -18 -44.5 -22.5t-81.5 3.5q-16 -27 -37 -73t-46 -99t-54.5 -107.5t-63.5 -98t-72 -71.5t-80 -28q-29 0 -49 10t-30.5 24.5t-12.5 32.5t2.5 33.5t16.5 26.5t29 13q19 2 28 -8t11 -22.5t-1.5 -23.5t-10.5 -11q-14 0 -19.5 -9t-3.5 -19.5t11.5 -19t26.5 -8.5zM131 349
q33 -11 70.5 -1.5t73.5 28.5t66 41t48 37q5 7 10 13t11 12q-19 5 -39 10.5t-42 12.5q-44 14 -83.5 10.5t-70.5 -17.5t-51.5 -35.5t-28 -43t0.5 -40.5t35 -27z" />
    <glyph glyph-name="F" unicode="F" horiz-adv-x="441" 
d="M313 197q-22 -41 -47 -77.5t-52 -64t-56.5 -44t-61.5 -16.5q-29 0 -49 10t-30.5 24.5t-12.5 32.5t2.5 33.5t16.5 26.5t29 13q19 2 28 -8t11 -22.5t-1.5 -23.5t-10.5 -11q-14 0 -19.5 -9t-3.5 -19.5t11.5 -19t26.5 -8.5q21 0 40.5 18t39.5 48t40 69.5t41.5 82t44.5 86
t49 82.5q-24 -18 -54 -37t-63.5 -31.5t-69 -16.5t-69.5 7q-37 12 -53.5 37.5t-13.5 55.5t25 59.5t61.5 47.5t96 20.5t129.5 -20.5q32 -11 58 -15t45 -5q22 15 45 23.5t49 8.5q44 0 62.5 -12t10.5 -25q-12 -19 -54.5 -24.5t-101.5 2.5q-11 -18 -25 -46t-29.5 -61.5
t-33.5 -71.5t-38 -76h89v-23h-102zM131 349q33 -11 71.5 -1t74.5 29.5t66.5 42t47.5 36.5q6 7 12 13.5t13 11.5q-21 4 -42.5 9.5t-44.5 12.5q-44 14 -83.5 10t-70.5 -18.5t-52 -35.5t-28 -43t1 -40.5t35 -26.5z" />
    <glyph glyph-name="V" unicode="V" horiz-adv-x="483" 
d="M284 87q21 -2 48 21.5t55 62t54.5 87t46 95.5t30.5 88t8 64q-2 11 2 17t9 6.5t10 -4t6 -13.5q4 -30 -9.5 -80.5t-39 -108.5t-59.5 -117t-70 -105.5t-71.5 -75t-63.5 -24.5q-20 3 -32 21t-14 48.5t6.5 71.5t28.5 91q7 17 14 34.5t15 34.5q-33 -35 -75 -61t-92 -26
q-39 0 -60.5 20t-25.5 50.5t10.5 66t49.5 66t89.5 50.5t131.5 20q29 0 53.5 0.5t41.5 1.5q14 15 29 25.5t28 12.5q23 3 33.5 -7.5t5.5 -24.5q-5 -12 -21.5 -18t-51.5 -9q-35 -25 -64 -79.5t-57 -120.5q-34 -85 -30.5 -132t31.5 -49zM119 252q27 0 54 13.5t51.5 34.5t45.5 46
t37 48q26 43 54 71h-78q-46 0 -84 -16t-65.5 -39.5t-44 -51t-19.5 -51t9 -39.5t40 -16z" />
    <glyph glyph-name="W" unicode="W" horiz-adv-x="655" 
d="M452 87q21 -2 48.5 21.5t55.5 62t55 87t47 95.5t31 88t8 64q-2 11 2 17t9 6.5t10 -4t6 -13.5q4 -30 -9.5 -80.5t-39 -108.5t-59 -117t-69.5 -105.5t-71.5 -75t-64.5 -24.5q-27 3 -37 33t-2 81q-15 -23 -31.5 -44.5t-34 -37.5t-34.5 -25t-32 -7q-20 3 -32 21t-14 48.5
t6.5 71.5t28.5 91q7 17 14 34.5t15 34.5q-33 -35 -75 -61t-92 -26q-39 0 -60.5 20t-25.5 50.5t10.5 66t49.5 66t89.5 50.5t131.5 20q29 0 53.5 0.5t41.5 1.5q14 15 29 25.5t28 12.5q23 3 33.5 -7.5t5.5 -24.5q-5 -12 -21.5 -18t-51.5 -9q-35 -25 -64.5 -79.5t-56.5 -120.5
q-34 -85 -31.5 -137t29.5 -59q11 -3 24.5 6t27.5 23.5t27 31.5t23 32q9 30 24 67q6 15 16.5 38t23 50.5t27 57t27.5 56t24 47.5t18 33q4 7 10.5 10.5t11 3t5.5 -6t-5 -15.5q-8 -13 -24 -45.5t-34 -70t-33.5 -72t-22.5 -50.5q-34 -85 -30.5 -132t31.5 -49zM119 252
q27 0 54 13.5t51.5 34.5t45.5 46t37 48q26 43 54 71h-78q-46 0 -84 -16t-65.5 -39.5t-44 -51t-19.5 -51t9 -39.5t40 -16z" />
    <glyph glyph-name="U" unicode="U" horiz-adv-x="532" 
d="M396 187l1 1q16 50 37.5 101.5t41 94.5t34.5 72.5t19 34.5q7 10 19.5 14.5t23.5 4.5t17 -5t0 -14q-4 -7 -21 -42.5t-38.5 -85t-43.5 -105t-37 -103t-19.5 -78.5t9.5 -31q9 0 21 7.5t24.5 20t25 28.5t22.5 33t17.5 13.5t-0.5 -21.5q-9 -20 -26.5 -42.5t-39 -41.5t-45 -31
t-42.5 -12q-14 0 -21.5 9t-9 25.5t1.5 39t10 49.5q-15 -24 -32.5 -47t-35.5 -40.5t-36 -27.5t-34 -8q-20 3 -32 21t-14 48.5t6.5 71.5t28.5 91l30 70q-33 -35 -75 -61.5t-92 -26.5q-39 0 -61 20t-26 50.5t10.5 66t49.5 66t89.5 50.5t131.5 20q30 0 54 0.5t41 1.5
q14 15 29 25.5t29 12.5q22 3 32.5 -7.5t5.5 -24.5q-5 -12 -21.5 -18.5t-51.5 -8.5q-35 -26 -64.5 -80t-56.5 -120q-34 -85 -31.5 -137t29.5 -59q13 -3 30.5 10t34.5 32.5t31 40t20 32.5zM119 252q26 0 52 13t50 33.5t44.5 44.5t37.5 46q28 47 57 76h-78q-46 0 -84 -16
t-65.5 -39.5t-44 -51t-19 -51t9 -39.5t40.5 -16z" />
    <glyph glyph-name="S" unicode="S" horiz-adv-x="341" 
d="M134 204q-12 1 -28.5 -7t-30 -22.5t-21 -34.5t-2.5 -44q6 -30 23 -48.5t37 -22.5t40 7t32 39t13 73.5t-17 111.5q-23 85 -20 141.5t21.5 88.5t48.5 42t59.5 3t54.5 -29.5t35 -54.5q4 -15 4 -34.5t-6 -37.5t-19.5 -31t-34.5 -14q-21 -2 -29.5 9.5t-9 25.5t4.5 26t10 12
t12 5t12.5 13.5t8 20t-0.5 24.5q-4 14 -16 26.5t-26.5 16t-28 -4t-20.5 -32t-3.5 -69.5t23.5 -115q24 -86 17.5 -144.5t-30.5 -93t-60.5 -46.5t-72.5 -4.5t-65.5 32.5t-39.5 64q-9 34 -4.5 65t18 55t34.5 40t46 21q20 4 30 -7.5t12.5 -26t-1 -27.5t-10.5 -12z" />
    <glyph glyph-name="R" unicode="R" horiz-adv-x="550" 
d="M96 17q27 0 50 30t44.5 76.5t42 103t41.5 109.5q-31 -39 -71 -67.5t-88 -28.5q-40 0 -58.5 21t-15.5 53t27 69t70 69t113 53.5t156 22.5h5q53 0 82.5 -19.5t39 -49.5t1.5 -64.5t-29 -65.5t-53.5 -52.5t-71.5 -24.5q25 -21 35 -55t15.5 -66.5t10.5 -55.5t20 -23
q19 0 43.5 24t44.5 59q11 17 18.5 13.5t-0.5 -21.5q-9 -20 -27 -42.5t-39.5 -41.5t-45 -31t-42.5 -12q-24 0 -34 17t-13 43t-1.5 57.5t0.5 60t-8.5 50t-26.5 28.5q-1 0 -2 1q-8 2 -12 4h-1q-18 -49 -39.5 -96t-48 -84t-59 -60t-71.5 -23q-44 0 -66 20.5t-26 46t9 47.5t39 25
q19 2 28 -7.5t11 -22t-1.5 -23.5t-10.5 -11q-14 0 -19.5 -9t-3.5 -19.5t11.5 -19t26.5 -8.5zM314 423q18 34 37.5 57t41.5 28q-53 -3 -99 -21.5t-82 -45t-61 -56t-36 -55t-6.5 -42t26.5 -16.5q30 0 58.5 17.5t52 42t41.5 50t27 41.5zM417 509q-10 0 -20 -19.5t-21 -51.5
t-24 -73.5t-29 -86.5q24 -9 48.5 3.5t44.5 36.5t33.5 55.5t16.5 60t-6.5 50t-36.5 25.5h-6z" />
    <glyph glyph-name="Q" unicode="Q" horiz-adv-x="387" 
d="M262 522q37 8 65.5 -5t44 -43t18 -74.5t-10.5 -98.5q-18 -70 -56 -133t-86 -106q18 -24 36 -45.5t35.5 -36.5t34 -22t32.5 -2q12 3 14 -0.5t-3 -14.5t-13 -22t-19.5 -20t-25.5 -15t-29 -6q-14 0 -28 12.5t-28 33t-28 47t-27 55.5q-30 -17 -56 -23q-38 -8 -66 5t-44 43
t-18.5 74.5t11.5 98.5q13 54 39.5 104.5t60 91t71.5 67.5t76 35zM354 311q12 43 12 79.5t-10.5 63t-31 39.5t-48.5 10t-57.5 -22.5t-56 -50t-48.5 -70t-34 -82.5q-6 -17 -9 -35q14 0 30 -12t33.5 -31.5t35.5 -44.5t37 -51q23 13 45 34t41.5 48t35 59t25.5 66zM69 222
q-7 -64 17 -102.5t72 -32.5h1q-12 26 -24 50t-23 42.5t-22 29.5t-21 13z" />
    <glyph glyph-name="P" unicode="P" horiz-adv-x="510" 
d="M97 17q27 0 50.5 30t45 77t42 104t42.5 110q-32 -40 -72.5 -69t-89.5 -29q-39 0 -57.5 21t-15.5 53t27 69t69.5 69t113 53.5t156.5 22.5h6q51 0 82.5 -17.5t46.5 -45t14 -62t-14.5 -68.5t-38 -64.5t-57 -50.5t-71.5 -26.5t-82 8.5q-17 -41 -37.5 -77.5t-44.5 -65
t-52.5 -45t-61.5 -16.5q-44 0 -66 20.5t-26 46t9.5 47.5t39.5 25q19 2 28 -7.5t11 -22t-2 -23.5t-11 -11q-13 0 -19 -9t-4 -19.5t11.5 -19t27.5 -8.5zM417 509q-11 0 -23 -26t-25.5 -67t-30 -92.5t-37.5 -103.5q34 -12 66.5 3.5t57.5 46t41 69.5t18.5 75.5t-11.5 63
t-48 31.5h-8zM313 418q19 36 38.5 60.5t42.5 29.5q-53 -3 -99 -21.5t-82 -44.5t-61 -56t-36 -55.5t-7 -42t27 -16.5q28 0 55.5 16t50.5 39t41.5 48t29.5 43z" />
    <glyph glyph-name="N" unicode="N" horiz-adv-x="537" 
d="M296 204q-17 -41 -37.5 -78.5t-44.5 -66t-52.5 -45t-61.5 -16.5q-44 0 -66 20.5t-26 46t9.5 47.5t39.5 25q19 2 28 -7.5t11 -22t-2 -23.5t-11 -11q-14 0 -19.5 -9t-3.5 -19.5t11.5 -19t27.5 -8.5q26 0 49 29.5t44.5 76t42.5 103t42 110.5q-32 -39 -71.5 -67.5
t-88.5 -28.5q-40 0 -58.5 21.5t-15.5 53.5t28 69t71.5 69t114.5 53.5t158 21.5q12 0 12 -7.5t-8 -7.5t-16 -13t-16.5 -35t-18 -51.5t-20.5 -63.5q18 32 38.5 63.5t42.5 57t45.5 41t46.5 15.5q29 0 38 -21t5 -54.5t-19 -77t-33 -89t-36.5 -89t-30 -77t-13.5 -54.5t12 -21
q10 0 23.5 11t27.5 26t25.5 30.5t16.5 23.5q11 17 20 15.5t-2 -23.5q-6 -11 -20.5 -32.5t-35.5 -42.5t-46 -36.5t-52 -15.5q-26 0 -33.5 20.5t-2.5 54t19 76.5t31 87.5t34.5 87.5t29.5 76.5t15 54t-9 20.5q-17 0 -38.5 -19.5t-46 -55.5t-51 -86.5t-53.5 -111.5zM318 430
q18 33 37 55.5t41 27.5q-53 -3 -99 -22t-82 -46t-61 -57t-36 -56t-6.5 -43t26.5 -17q32 0 61 19.5t53 45.5t41 52.5t25 40.5z" />
    <glyph glyph-name="M" unicode="M" horiz-adv-x="637" 
d="M436 528q29 0 33.5 -6.5t-3.5 -34.5q-2 -10 -13 -44.5t-25 -81t-29.5 -98t-26.5 -94.5t-16 -71.5t2 -28.5q6 0 24.5 31.5t44 80t55 105t58 107t53.5 87t42 43.5l1 -1q8 4 16.5 4.5t15.5 -1.5t10 -7t0 -12t-13 -36.5t-24 -70t-29.5 -87t-29.5 -87.5t-24 -71.5t-13 -39.5
q-8 -26 -11.5 -44t14.5 -18q19 0 44 24t45 59q10 17 17.5 13.5t-0.5 -21.5q-9 -20 -26.5 -42.5t-39.5 -41.5t-45 -31t-42 -12q-20 0 -27.5 10.5t-7.5 26.5t5.5 35t11.5 36q8 23 21.5 63.5l29 87t31.5 94t28 84.5q-18 -32 -40.5 -77.5t-47.5 -94t-50.5 -96.5t-49.5 -86
t-45 -61.5t-36 -23.5q-26 0 -31 30.5t2.5 77.5t23.5 103.5t32.5 109t29.5 94t14 57.5q-19 -31 -40.5 -78t-44.5 -99.5t-48.5 -105t-53 -94.5t-57.5 -68.5t-63 -26.5q-44 0 -64 20.5t-20.5 46t15 47.5t41.5 25q19 2 28 -7.5t11 -22t-2 -23.5t-11 -11q-14 0 -22 -8.5t-9 -18
t6.5 -18t24.5 -8.5q28 0 55 28.5t53 73.5t51.5 100t49.5 108q-32 -37 -72 -63.5t-87 -26.5q-40 0 -58.5 21.5t-15.5 53.5t28 69t71.5 69t114.5 53.5t158 21.5h2zM346 431q17 30 33 51.5t32 29.5q-52 -3 -97.5 -22.5t-81.5 -46t-60.5 -56.5t-35 -55.5t-6.5 -42.5t26 -17
q33 0 63.5 20t56 46.5t44 53t26.5 39.5z" />
    <glyph glyph-name="K" unicode="K" horiz-adv-x="530" 
d="M103 17q28 0 52.5 30t47.5 77t45 104.5t45 112.5q-18 -23 -39.5 -45.5t-47 -40.5t-54.5 -29.5t-60 -11.5q-39 0 -61 20t-26 50.5t10.5 66t49.5 66t89.5 50.5t131.5 20q26 0 46.5 0.5t37.5 1.5q14 16 27.5 26t28.5 12q23 3 35.5 -7.5t7.5 -24.5q-5 -12 -19.5 -18t-47.5 -9
q-14 -28 -31 -80.5t-40 -112.5q23 3 43 23t39.5 48t41.5 60t49 59t61 45t78 18q7 0 10.5 -3.5t3.5 -8t-3.5 -8t-10.5 -3.5q-9 0 -24.5 -15t-37 -38t-47 -51t-53.5 -55t-57.5 -49t-57.5 -33q21 -12 32 -32t16 -43.5t6 -48t2 -44t5 -32t15 -12.5q19 0 43.5 24t44.5 59
q11 17 18.5 13.5t-0.5 -21.5q-9 -20 -27 -42.5t-39.5 -41.5t-45 -31t-42.5 -12q-25 0 -33 18t-8 45t4.5 58.5t5 60t-7 49t-30.5 24.5h-2q-18 -48 -40 -94t-49 -82t-59 -58.5t-71 -22.5q-44 0 -66 20.5t-26 46t9 47.5t39 25q19 2 28 -7.5t11.5 -22t-1.5 -23.5t-11 -11
q-14 0 -19.5 -9t-3.5 -19.5t11.5 -19t27.5 -8.5zM356 441q-7 -15 -17 -31q-8 -14 -19.5 -31.5t-26.5 -37.5q14 35 29 67t31 57h-70q-46 0 -84 -16t-65.5 -39.5t-44 -51t-19 -51t9 -39.5t40.5 -16q21 0 42 8.5t41 22.5t38 32t34 37q37 44 70 100z" />
    <glyph glyph-name="J" unicode="J" horiz-adv-x="393" 
d="M94 -87q32 0 63.5 39.5t62 100.5t60 134t59.5 141q-17 -21 -38 -41.5t-45 -36.5t-51 -26t-56 -10q-39 0 -61 20t-26 50.5t10.5 66t49.5 66t89.5 50.5t131.5 20q26 0 47 0.5t38 1.5q29 35 55 38q23 2 35.5 -8t7.5 -24q-5 -11 -19 -17.5t-46 -9.5q-14 -28 -33.5 -81.5
t-44.5 -117t-55.5 -130t-66.5 -121t-77.5 -89t-87.5 -34.5q-44 0 -66 20.5t-26 46t9 47.5t39 25q19 2 28 -8t11 -22.5t-1.5 -23.5t-10.5 -11q-14 0 -19.5 -9t-3.5 -19.5t11.5 -19t26.5 -8.5zM177 252q34 0 67 21t61.5 50.5t50.5 60t34 49.5l10 16l10 16h-70q-46 0 -84 -16
t-65.5 -39.5t-44 -51t-19 -51t9 -39.5t40.5 -16z" />
    <glyph glyph-name="H" unicode="H" horiz-adv-x="536" 
d="M102 17q28 0 52.5 30t47.5 77t45 104.5t45 112.5q-18 -23 -39.5 -45.5t-47 -40.5t-54.5 -29.5t-60 -11.5q-39 0 -61 20t-26 50.5t10.5 66t49.5 66t89.5 50.5t131.5 20q26 0 46.5 0.5t37.5 1.5q14 16 27.5 26t28.5 12q23 3 35.5 -7.5t7.5 -24.5q-5 -12 -19.5 -18t-47.5 -9
q-9 -17 -19 -44.5t-21 -60.5t-24.5 -69.5t-28.5 -73.5h103q17 46 37 92.5t37.5 84.5t30.5 63.5t17 30.5q7 10 19.5 14.5t23.5 4.5t17 -5t0 -14q-4 -7 -20.5 -42.5t-38 -85t-44 -105t-37.5 -103t-19.5 -78.5t9.5 -31q9 0 21 7.5t24.5 20t25 28.5t22.5 33q11 17 18.5 13.5
t-0.5 -21.5q-9 -20 -27 -42.5t-39.5 -41.5t-45 -31t-42.5 -12t-25.5 16t-4.5 43t11 63t23 75h-105q-18 -40 -38.5 -76t-44.5 -63.5t-52 -43.5t-61 -16q-44 0 -66 20.5t-26 46t9 47.5t39 25q19 2 28 -7.5t11.5 -22t-1.5 -23.5t-11 -11q-14 0 -19.5 -9t-3.5 -19.5t11.5 -19
t27.5 -8.5zM355 441q-7 -15 -17 -31q-8 -14 -19.5 -31.5t-26.5 -37.5q14 35 29 67t31 57h-70q-46 0 -84 -16t-65.5 -39.5t-44 -51t-19 -51t9 -39.5t40.5 -16q21 0 42 8.5t41 22.5t38 32t34 37q37 44 70 100z" />
    <glyph glyph-name="G" unicode="G" horiz-adv-x="340" 
d="M265 522q40 7 65 -5t37 -34.5t12.5 -51t-8.5 -54t-27 -44.5t-42 -22q-27 -4 -43 6.5t-22.5 24t-4 25t13.5 11.5q11 -1 23.5 8.5t23 24t17 31t5.5 30t-10.5 22t-31.5 6.5q-28 -5 -56.5 -26.5t-53 -53.5t-43.5 -72.5t-28 -83.5q-15 -69 -2.5 -118.5t47.5 -63.5
q23 -10 50 21t50 85l20 54l2 3q5 11 17 16t23.5 5t19 -5.5t3.5 -15.5q-3 -9 -13.5 -37t-24 -66.5t-29 -83.5t-28.5 -87q-6 -19 -4.5 -21t15.5 6q16 7 18.5 -2.5t-19.5 -19.5q-8 -3 -24.5 -11t-32.5 -13t-26.5 -4t-5.5 16l48 145q-26 -36 -54.5 -53t-52.5 -12
q-26 5 -44.5 23.5t-28 47.5t-9.5 67.5t11 83.5q13 54 39.5 105t60 91.5t71.5 68t76 33.5z" />
    <glyph glyph-name="C" unicode="C" horiz-adv-x="290" 
d="M269 522q39 7 64 -5t37 -34.5t12.5 -51t-8.5 -54t-27 -44.5t-42 -22q-26 -4 -42 6.5t-23 24t-4.5 25t13.5 11.5q11 -1 23.5 8.5t23 24t17 31t6 30t-10 22t-31.5 6.5q-28 -5 -56.5 -26.5t-53.5 -53.5t-44 -72.5t-28 -83.5q-9 -44 -7 -80.5t14.5 -62t33.5 -37.5t49 -7
q31 6 61 24.5t65 68.5q8 11 15.5 17t11.5 6.5t3.5 -5.5t-7.5 -19q-16 -29 -39 -57t-49 -50.5t-54 -38t-54 -20.5q-38 -8 -65.5 5t-43.5 43t-18.5 74.5t11.5 98.5q13 54 39 105t59.5 91.5t72 68t76.5 33.5z" />
    <glyph glyph-name="E" unicode="E" horiz-adv-x="297" 
d="M266 522q40 3 65.5 -11t37.5 -36t12.5 -49.5t-9 -51.5t-27.5 -42t-42 -21q-27 -4 -43 6.5t-22.5 24t-4 25t13.5 11.5q11 -1 23.5 8.5t23 23.5t17 30t6 29.5t-10.5 22.5t-32 8q-32 -2 -57 -27t-39.5 -59t-14.5 -67.5t20 -51.5q6 -6 6.5 -11t-10.5 -7q-24 -6 -42 -22
t-28.5 -37.5t-13.5 -45t3 -44t22 -35t42 -17.5q34 -3 73 20t74 74q7 11 14.5 17t11.5 6.5t4 -5.5t-7 -19q-16 -29 -39 -56.5t-49.5 -50t-54.5 -38t-53 -21.5q-34 -8 -61.5 4t-45 36.5t-23 59t5.5 70.5q9 31 25.5 53.5t35.5 36.5t38.5 21t35.5 7q-27 22 -34 59.5t7.5 74.5
t50.5 65t95 32z" />
    <glyph glyph-name="L" unicode="L" horiz-adv-x="370" 
d="M323 -122q-21 0 -44 15t-46.5 35.5t-47 42t-45.5 33.5q-18 -6 -37 -6q-23 0 -33.5 6.5t-10 14.5t12.5 14.5t35 6.5q7 0 15 -2t18 -5q21 18 40.5 51.5t38 75.5t36.5 89t37 92q-18 -23 -39.5 -45.5t-47 -40.5t-54.5 -29.5t-60 -11.5q-39 0 -61 20t-26 50.5t10.5 66t49.5 66
t89.5 50.5t131.5 20q26 0 46.5 0.5t37.5 1.5q14 16 27.5 26t28.5 12q23 3 35.5 -7.5t7.5 -24.5q-5 -12 -19.5 -18t-47.5 -9q-11 -21 -23.5 -57t-27.5 -79t-32.5 -89.5t-39.5 -89t-48 -78t-57 -55.5q25 -12 54 -26t58.5 -25.5t58.5 -16t55 3.5q12 3 14 -0.5t-3 -14.5
t-13.5 -22t-20 -20t-25 -15t-28.5 -6zM355 441q-7 -15 -17 -31q-8 -14 -19.5 -31.5t-26.5 -37.5q14 35 29 67t31 57h-70q-46 0 -84 -16t-65.5 -39.5t-44 -51t-19 -51t9 -39.5t40.5 -16q21 0 42 8.5t41 22.5t38 32t34 37q37 44 70 100z" />
    <glyph glyph-name="D" unicode="D" horiz-adv-x="523" 
d="M267 -2q-2 0 -3.5 0.5t-3.5 0.5q-26 3 -43 14t-25 27q-21 -20 -45 -31t-51 -11q-44 0 -66 20.5t-26 46t9.5 47.5t39.5 25q19 2 28 -7.5t11 -22t-2 -23.5t-11 -11q-13 0 -19 -9t-4 -19.5t11.5 -19t27.5 -8.5q27 0 50.5 30t45 77t42 104t42.5 110q-32 -40 -72.5 -69
t-89.5 -29q-40 0 -58 21t-15 53t27 69t70 69t113.5 53.5t156.5 22.5h6q43 -1 69 -23.5t38 -59t10 -83t-15 -95.5t-36 -96t-54 -84.5t-69 -61.5t-80 -26v-1h-9zM415 509q-9 0 -18.5 -17.5t-20.5 -47t-23 -68t-26 -80.5t-31.5 -84.5t-37.5 -80.5q8 -6 11 -16t2.5 -19t-4 -16
t-8.5 -7q-14 0 -19.5 -9t-3.5 -19.5t11.5 -19t27.5 -8.5v-1q28 2 58 38t57 88.5t46.5 114t26.5 116t-2.5 92.5t-41.5 44h-4zM134 272q29 0 56.5 17t51 40.5t41.5 48.5t28 42q19 35 38.5 59t42.5 29q-53 -3 -99 -21.5t-82 -44.5t-61 -56t-36 -55.5t-7 -42t27 -16.5z" />
    <glyph glyph-name="O" unicode="O" horiz-adv-x="387" 
d="M263 522q37 8 65.5 -5t44 -43t18 -74.5t-10.5 -98.5q-14 -54 -40 -104t-59.5 -90.5t-72 -68t-75.5 -35.5q-38 -8 -66 5t-44 43t-18.5 74.5t11.5 98.5q13 54 39.5 104.5t60 91t71.5 67.5t76 35zM356 311q12 43 12 79.5t-10.5 63t-31 39.5t-48.5 10q-29 -3 -58.5 -22.5
t-56 -50t-48.5 -70t-34 -82.5t-12 -79.5t10.5 -62.5t30.5 -39t49 -10q28 3 58 22.5t56.5 50t48.5 69.5t34 82z" />
    <glyph glyph-name="I" unicode="I" horiz-adv-x="347" 
d="M102 17q28 0 53 30t48 77t44.5 104t44.5 112q-18 -23 -40 -45.5t-47.5 -40.5t-54 -29t-59.5 -11q-39 0 -60.5 20t-25.5 50.5t10.5 66t49.5 66t89.5 50.5t131.5 20q25 0 46 0.5t38 1.5q13 16 27 26t29 12q22 3 35 -7.5t7 -24.5q-4 -11 -19 -17.5t-47 -9.5
q-13 -25 -28 -69.5t-33.5 -97t-41.5 -106t-52 -97.5t-64.5 -72t-78.5 -28q-44 0 -66 20.5t-26 46t9 47.5t39 25q19 2 28 -7.5t11 -22t-1.5 -23.5t-10.5 -11q-14 0 -19.5 -9t-4 -19.5t11 -19t27.5 -8.5zM119 252q36 0 71 23t64.5 54.5t51.5 62.5t32 48l15 25h-70
q-46 0 -84 -16t-65.5 -39.5t-44 -51t-19.5 -51t9 -39.5t40 -16z" />
    <glyph glyph-name="B" unicode="B" horiz-adv-x="508" 
d="M266 -2q-2 0 -3.5 0.5t-3.5 0.5q-26 3 -42.5 14.5t-24.5 26.5q-21 -20 -45 -31t-51 -11q-44 0 -66 20.5t-26 46t9 47.5t39 25q19 2 28 -7.5t11.5 -22t-1.5 -23.5t-11 -11q-14 0 -19.5 -9t-3.5 -19.5t11.5 -19t26.5 -8.5q27 0 50 29.5t44.5 75.5t42 102t41.5 109
q-32 -38 -71.5 -65.5t-87.5 -27.5q-40 0 -58.5 21t-15.5 53t27.5 69t70 69t113 53.5t156.5 22.5h5q44 0 71.5 -15t40.5 -38t11.5 -51.5t-16.5 -56.5t-42.5 -51t-66.5 -36q31 -11 46 -35.5t15.5 -55t-12 -63.5t-37.5 -60.5t-61.5 -46t-83.5 -20.5v-1h-10zM317 268
q-13 -35 -27.5 -70t-31.5 -67q8 -6 11 -16t2.5 -19t-4 -16t-8.5 -7q-14 0 -19.5 -9t-3.5 -19.5t11.5 -19t26.5 -8.5v-1q26 1 48.5 19t40 44.5t28.5 58t13 59.5t-6.5 48.5t-28.5 25.5q-18 -3 -39 -3h-13zM308 414q19 38 40 63.5t44 30.5q-53 -3 -99 -21.5t-82 -44.5t-61 -56
t-36 -55.5t-7 -42t27 -16.5q28 0 54.5 15.5t49.5 38t41 46.5t29 42zM415 509q-9 0 -19 -18.5t-21 -49.5t-23.5 -71t-27.5 -83h11q27 0 51.5 15.5t43 38.5t30 50.5t12 52.5t-11 43t-37.5 22h-8z" />
    <glyph glyph-name="A" unicode="A" horiz-adv-x="512" 
d="M531 528q2 0 3 -0.5t3 -0.5q9 -2 15 -7t2 -14q-3 -7 -13.5 -36.5t-24.5 -70t-29.5 -87t-29.5 -87.5t-24 -71.5t-12 -39.5q-4 -13 -7.5 -24.5t-4 -19.5t2.5 -13t12 -5q19 0 43.5 24t44.5 59q11 17 18.5 13.5t-0.5 -21.5q-9 -20 -27 -42.5t-39.5 -41.5t-44.5 -31t-42 -12
q-20 0 -27.5 10.5t-7.5 26.5t5.5 35t11.5 36q4 12 10 29t13 38h-93q-20 -36 -42 -68.5t-45.5 -56.5t-49.5 -38t-55 -14q-45 0 -67 20.5t-26 46t9.5 47.5t39.5 25q19 2 28 -7.5t11 -22t-2 -23.5t-11 -11q-13 0 -19 -9t-4 -19.5t11.5 -19t27.5 -8.5q16 0 32 12.5t32 33.5
t32.5 50t33.5 62q-55 3 -83 30.5t-29.5 67t23.5 84t77.5 83t131.5 63.5t186 25zM236 197q22 44 46 90.5t51 88.5t57 76.5t65 54.5q-61 -11 -110.5 -37.5t-85 -60t-56.5 -69.5t-25.5 -67t9.5 -52t49 -24zM389 197q14 43 30.5 92t31 93t26 77t16.5 44q-25 -14 -48.5 -46
t-46.5 -74t-47 -90.5t-49 -95.5h87z" />
    <glyph glyph-name="a" unicode="a" horiz-adv-x="308" 
d="M183 329q27 0 40 -24l1 1q5 11 16.5 16t22.5 5t18 -5.5t3 -15.5q-5 -11 -14.5 -37t-20 -56t-19.5 -58t-13 -41t-7.5 -24.5t-4.5 -19.5t2.5 -13t12.5 -5q19 0 43.5 24t44.5 59q11 17 18.5 13.5t-0.5 -21.5q-9 -20 -27 -42.5t-39.5 -41.5t-45 -31t-42.5 -12q-25 0 -31 16.5
t-2 39.5q-26 -27 -52 -42.5t-49 -15.5q-21 0 -33 13.5t-16 36t1.5 52.5t20.5 64t36 64t44.5 52.5t47 35.5t44.5 13zM155 108q17 48 32 94t26 76q-8 24 -29 26q-14 0 -30 -9.5t-32 -26t-30 -39t-24 -48.5q-21 -52 -16.5 -89t31.5 -38q15 -1 32.5 10.5t34.5 31.5z" />
    <glyph glyph-name="z" unicode="z" horiz-adv-x="277" 
d="M260 324q6 3 16 2.5t19 -3t13 -6.5t-2 -7q-17 -10 -49.5 -37t-69.5 -62.5t-74.5 -74.5t-64.5 -73q21 13 40.5 12.5t37.5 -6.5t34 -13t30 -7t27.5 10t25 24t20.5 28.5t14 23.5q9 16 18 13.5t-1 -21.5q-9 -18 -22.5 -40t-31 -41.5t-37 -32.5t-40.5 -13q-18 0 -38 8t-39 15
t-37 8t-33 -13q-4 -4 -9.5 -6t-9.5 -1t-5 5.5t5 13.5q16 25 41.5 61t51.5 71t49.5 65.5t35.5 45.5q-29 -8 -49.5 -10.5t-31.5 -2.5q-10 -17 -21.5 -37.5t-22.5 -39t-20 -34t-13 -22.5q-13 -23 -22 -19t5 27l71 126q-17 4 -18 20.5t8 33.5t24.5 31t29.5 14q12 0 16 -7
t1.5 -18.5t-9 -25.5t-15.5 -28q36 0 74.5 13t77.5 30z" />
    <glyph glyph-name="y" unicode="y" horiz-adv-x="276" 
d="M287 167q16 13 21 6.5t-9 -20.5q-24 -23 -50.5 -53t-51 -63.5t-45 -68.5t-31.5 -69l-2 -5l-8 -24q-5 -19 -3.5 -21t15.5 5q16 8 18.5 -2t-19.5 -19q-8 -3 -24.5 -11t-32.5 -13.5t-26.5 -4.5t-5.5 16l107 312q-17 -27 -34.5 -51t-35.5 -42t-35 -28.5t-31 -10.5
q-22 0 -24.5 32t12.5 80t45.5 103.5t73.5 102.5q9 10 20 8.5t2 -11.5q-24 -27 -44 -63.5t-32.5 -71t-15 -60.5t10.5 -31q11 -5 28 8.5t35.5 38t37 57t33.5 67.5q6 18 10.5 30t6.5 16q5 11 17 16t23.5 5t19 -5.5t3.5 -15.5q-2 -6 -12 -33t-24.5 -67t-32 -87.5t-33.5 -93.5
q16 23 33 45t33.5 41t31 33.5t25.5 22.5z" />
    <glyph glyph-name="o_reserv" horiz-adv-x="253" 
d="M327 261q10 13 16 8.5t-2 -18.5q-6 -9 -17.5 -14.5t-26 -7.5t-31 -1t-31.5 5q-1 -11 -2.5 -22t-4.5 -23q-8 -34 -24.5 -65.5t-37.5 -56.5t-44.5 -42t-47.5 -22t-41.5 3t-27.5 27t-11.5 46.5t7.5 61.5q8 34 24.5 65.5t37.5 56.5t44.5 42.5t47.5 22.5q34 7 55 -13t25 -58
q12 -5 25.5 -7t26.5 -1.5t24 3.5t16 10zM205 198q3 11 4 22t1 21q-26 10 -39.5 27.5t-5.5 35.5h-6q-15 -2 -31 -13.5t-29.5 -29t-24.5 -40t-17 -46.5t-5.5 -44.5t7 -35t18 -21.5t26.5 -5q15 3 31 14.5t30 29t24.5 39.5t16.5 46z" />
    <glyph glyph-name="k_reserv" horiz-adv-x="273" 
d="M182 493q-6 -18 -17 -50t-24.5 -71.5t-28.5 -84t-30 -87.5q49 77 90.5 108t71.5 11q22 -15 22 -39.5t-19 -51.5t-55.5 -51.5t-85.5 -38.5q26 -9 36 -23.5t14.5 -28.5t8.5 -24t19 -10q19 0 44 24t45 59q10 17 17.5 13.5t-0.5 -21.5q-9 -20 -26.5 -42.5t-39.5 -41.5
t-45 -31t-42 -12q-30 0 -36.5 17.5t-7 40t-5 42.5t-31.5 26q-14 -41 -24 -69t-13 -35q-5 -11 -17 -16t-23 -5t-18 5t-2 16q3 7 15 41.5t29 83.5t36 104.5t36 105t28.5 85t14.5 44.5q3 11 14.5 17.5t23.5 7t20 -3.5t5 -14zM192 279q-8 6 -21.5 -2.5t-30.5 -26.5t-36.5 -45
t-38.5 -59q25 1 50.5 19.5t45 42t29 44.5t2.5 27z" />
    <glyph glyph-name="X_reserv" horiz-adv-x="833" 
d="M95 17q26 0 46.5 16.5t39.5 42t38.5 56.5t43 61t52.5 55.5t68 38.5q-16 9 -24.5 26.5t-9.5 40.5q-18 -24 -40.5 -49t-49 -45t-57 -33t-64.5 -13q-39 0 -61 20t-26 50.5t10.5 66t49.5 66t89.5 50.5t131.5 20h44t37 1q17 14 37.5 24t33.5 12q23 3 33.5 -6t5.5 -23
q-5 -12 -22.5 -18.5t-53.5 -8.5q-20 -27 -31.5 -57t-15.5 -55t-0.5 -41t12.5 -16q24 0 41 17t32.5 42.5t31.5 55t38.5 55t53.5 42.5t77 17q7 0 10.5 -3.5t3.5 -8t-3.5 -8t-10.5 -3.5q-8 0 -21 -13t-29.5 -33t-36.5 -44.5t-42.5 -48.5t-47 -44.5t-50.5 -31.5q20 -11 23 -32.5
t-2.5 -48t-16 -54.5t-19 -51t-11 -37.5t8.5 -14.5q19 0 44 24t45 59q10 17 17.5 13.5t-0.5 -21.5q-9 -20 -26.5 -42.5t-39.5 -41.5t-45 -31t-42 -12q-31 0 -34.5 20.5t7 52t28.5 67.5t31 67.5t14.5 52t-21.5 20.5h-1q-28 -10 -50.5 -34.5t-43 -56t-42 -65t-48 -62t-60 -46.5
t-78.5 -18q-44 0 -66 20.5t-26 46t9 47.5t39 25q19 2 28 -7.5t11 -22t-1.5 -23.5t-10.5 -11q-14 0 -19.5 -9t-3.5 -19.5t11.5 -19t26.5 -8.5zM166 252q27 0 53.5 13.5t50.5 34.5t45 46t37 47q5 18 14 36.5t23 35.5h-60q-46 0 -84 -16t-65.5 -39.5t-44 -51t-19 -51t9 -39.5
t40.5 -16z" />
    <glyph glyph-name="Y_reserv" horiz-adv-x="833" 
d="M268 17q24 0 45 24.5t41.5 64.5t39.5 89.5t38 100.5q-16 -27 -33.5 -51t-35.5 -40.5t-36 -22.5t-36 4q-29 16 -32 50t10 75q-17 -19 -36.5 -36.5t-42 -31t-47 -21.5t-50.5 -8q-39 0 -61 20t-25.5 50.5t11 66t49.5 66t89.5 50.5t131.5 20q29 0 53.5 0.5t41.5 1.5
q13 15 28 25.5t29 12.5q23 3 33 -7.5t5 -24.5q-4 -12 -22 -18.5t-56 -8.5q-22 -18 -42.5 -48t-32 -61.5t-10.5 -59t22 -39.5q13 -8 27 -2.5t28 18t27 31t24.5 38t21 37t15.5 29.5q23 48 46.5 79.5t51.5 36.5q6 2 8 -1t-2 -8q-13 -17 -28 -62.5t-34.5 -103t-43.5 -120
t-54.5 -115t-68.5 -86t-85 -33.5q-44 0 -66 20.5t-26 46t9 47.5t39 25q19 2 28 -7.5t11.5 -22t-1.5 -23.5t-11 -11q-14 0 -19.5 -9t-3.5 -19.5t11.5 -19t26.5 -8.5zM121 252q27 0 53 13t50 33.5t45 44.5t37 46q13 22 28 41.5t30 35.5q-17 -1 -36.5 -1h-42.5q-46 0 -84 -16
t-65.5 -39.5t-44 -51t-19.5 -51t9 -39.5t40 -16z" />
    <glyph glyph-name="ampersand" unicode="&#x26;" horiz-adv-x="359" 
d="M291 206q-5 -17 -11 -35t-11 -34.5t-9 -29.5t-6 -20q-3 -11 -6 -21t-4 -17t2 -11t11 -4q16 0 37 21t38 50q8 14 15 11t-1 -18q-8 -17 -22.5 -36t-33 -35t-38 -26.5t-35.5 -10.5q-24 0 -27.5 18t1.5 41q-13 -21 -28 -36t-33 -20q-29 -7 -52.5 3t-38.5 31t-19.5 50t4.5 60
q8 26 22 45t30 31t32.5 18t30.5 6q-23 19 -28.5 50.5t6.5 63t42.5 55.5t80.5 27q34 2 55.5 -7.5t33 -26t12.5 -36t-6 -37.5t-22 -31t-35 -16q-23 -3 -36.5 5.5t-19 20t-3.5 21.5t11 10q15 -1 30 11.5t21.5 27.5t-0.5 27.5t-35 11.5q-27 -1 -48.5 -22.5t-33.5 -50t-12 -57.5
t17 -44q5 -5 5.5 -9t-8.5 -6q-31 -7 -49.5 -33.5t-21.5 -55.5t10.5 -53.5t46.5 -27.5q22 -2 40 27t33 68l18 56h-35q-4 0 -4.5 3.5t1 7.5t5 7.5t7.5 3.5h33l6 18q3 10 13.5 17.5t21 11t17.5 1.5t4 -11q-2 -5 -5.5 -14.5t-7.5 -22.5h47q4 0 5 -3.5t-0.5 -7.5t-5 -7.5
t-7.5 -3.5h-47z" />
    <glyph glyph-name="ring" unicode="&#x2da;" horiz-adv-x="192" 
d="M22 477q0 29 20 49t49 20t49 -20t20 -49t-20 -49t-49 -20t-49 20t-20 49zM46 477q0 -19 13 -32t32 -13t32 13t13 32t-13 32t-32 13t-32 -13t-13 -32z" />
    <glyph glyph-name="breve" unicode="&#x2d8;" horiz-adv-x="235" 
d="M165 506q1 7 7 10t12 2.5t10.5 -4.5t2.5 -11q-4 -17 -14.5 -31.5t-25 -25.5t-31.5 -17.5t-33 -6.5q-33 0 -49.5 23.5t-8.5 57.5q2 8 7.5 11.5t11.5 3.5t9.5 -4t0.5 -11q-8 -22 1.5 -36t32.5 -14q22 0 42 15t25 38z" />
    <glyph glyph-name="acute" unicode="&#xb4;" horiz-adv-x="235" 
d="M29 439q9 7 34.5 21.5t53.5 28.5t51.5 23.5t28.5 8.5q5 -2 5.5 -10t-2.5 -18.5t-9.5 -21t-13.5 -16.5q-4 -3 -20 -8t-36 -10t-41 -8.5t-36 -4.5t-20.5 2.5t5.5 12.5z" />
    <glyph glyph-name="grave" unicode="`" horiz-adv-x="245" 
d="M198 439q11 -9 5.5 -12.5t-20.5 -2.5t-36 4.5t-41 8.5t-36 10t-20 8q-8 6 -14 16.5t-9 21t-2.5 18.5t5.5 10q5 1 28.5 -8.5t51.5 -23.5t53.5 -28.5t34.5 -21.5z" />
    <glyph glyph-name="tilde" unicode="&#x2dc;" horiz-adv-x="278" 
d="M229 470q10 -14 12.5 -23.5t-0.5 -13t-9 -1t-13 14.5q-5 8 -15.5 7t-25 -6t-31.5 -10t-35 -6t-35 6t-32 27q-9 12 -10.5 20.5t1 12.5t8.5 1.5t12 -12.5q6 -11 26.5 -5.5t46.5 11.5t53 4.5t47 -27.5z" />
    <glyph glyph-name="circumflex" unicode="&#x2c6;" horiz-adv-x="197" 
d="M24 447q7 6 17 14.5t20 16.5t19 16t14 13q13 11 21 11t16 -11l20 -27.5t23 -33.5q6 -8 4.5 -13.5t-6.5 -8t-11.5 -0.5t-12.5 10q-5 8 -11.5 16.5t-11.5 16.5l-12 18q-13 -10 -25 -20q-11 -8 -22.5 -17t-19.5 -15q-9 -6 -16 -7t-10.5 1.5t-3 8t7.5 11.5z" />
    <glyph glyph-name="dieresis" unicode="&#xa8;" horiz-adv-x="227" 
d="M29 477q0 17 11 28.5t28 11.5t28.5 -11.5t11.5 -28.5t-11.5 -28.5t-28.5 -11.5t-28 11.5t-11 28.5zM125 477q0 17 11 28.5t28 11.5t28.5 -11.5t11.5 -28.5t-11.5 -28.5t-28.5 -11.5t-28 11.5t-11 28.5z" />
    <glyph glyph-name="dotaccent" unicode="&#x2d9;" horiz-adv-x="153" 
d="M34 477q0 17 11 28.5t28 11.5t28.5 -11.5t11.5 -28.5t-11.5 -28.5t-28.5 -11.5t-28 11.5t-11 28.5z" />
    <glyph glyph-name="hungarumlaut" unicode="&#x2dd;" horiz-adv-x="323" 
d="M34 440q7 10 28 30t45 40t44.5 35t25.5 15q6 0 8 -8t1.5 -19t-3.5 -23t-9 -19q-3 -4 -17.5 -12.5t-33 -18t-38 -18t-34 -13t-20.5 -3t3 13.5zM148 440q7 10 28 30t45 40t44.5 35t25.5 15q6 0 8 -8t1.5 -19t-3.5 -23t-9 -19q-3 -4 -17.5 -12.5t-33 -18t-38 -18t-34 -13
t-20.5 -3t3 13.5z" />
    <glyph glyph-name="caron" unicode="&#x2c7;" horiz-adv-x="226" 
d="M181 492q-7 -6 -17 -14.5t-20 -16.5t-19 -16t-14 -13q-13 -11 -21 -11t-16 11l-20 27.5t-23 33.5q-6 8 -4.5 13.5t6.5 8t11.5 0t12.5 -9.5q5 -8 11.5 -16.5t11.5 -16.5l12 -18q13 10 25 20q11 8 22.5 17t19.5 15q9 6 16 7t10.5 -1.5t3 -8t-7.5 -11.5z" />
    <glyph glyph-name="period" unicode="." horiz-adv-x="133" 
d="M-4 40q0 17 11 28.5t28 11.5t28.5 -11.5t11.5 -28.5t-11.5 -28.5t-28.5 -11.5t-28 11.5t-11 28.5z" />
    <glyph glyph-name="comma" unicode="," horiz-adv-x="133" 
d="M1 61q9 14 24.5 19t29.5 -5q19 -14 15 -35.5t-19.5 -40.5t-38.5 -30.5t-41 -5.5q22 15 26.5 27t2.5 23t-4.5 22.5t5.5 25.5z" />
    <glyph glyph-name="ogonek" unicode="&#x2db;" horiz-adv-x="175" 
d="M127 21q28 9 29 7t-10 -8q-28 -16 -48.5 -35t-32 -35.5t-13.5 -27.5t7 -11q13 0 20.5 9t12.5 22q5 15 14.5 15t5.5 -14q-4 -16 -18 -34t-43 -18q-19 0 -34 12t-12.5 31t29.5 42t93 45z" />
    <glyph glyph-name="cedilla" unicode="&#xb8;" horiz-adv-x="150" 
d="M86 13q1 6 5 9t8 2t6.5 -4t1.5 -9q-2 -11 -4.5 -19.5t-7.5 -19.5q22 0 32.5 -12.5t7.5 -27t-21.5 -25.5t-52.5 -8q-25 2 -35.5 15t-12.5 21q-1 4 1.5 6.5t6 2.5t7 -1.5t3.5 -5.5q1 -8 10.5 -15t20.5 -6q9 0 15 6.5t8 14t-0.5 13.5t-10.5 6q-12 -1 -8.5 6l8.5 17t7.5 15.5
t4.5 18.5z" />
    <glyph glyph-name="Thorn" unicode="&#xde;" horiz-adv-x="510" 
d="M97 17q22 0 42.5 22t39.5 58.5t37.5 82.5t36.5 94q-16 -23 -35 -44t-41 -37.5t-47 -26t-52 -9.5q-38 0 -56.5 19.5t-17.5 49t21.5 65t61 67.5t100 55.5t139.5 29.5q21 38 43 61.5t47 23.5q13 0 13 -9.5t-12 -9.5q-9 0 -18.5 -17.5t-20.5 -46.5q68 -1 101.5 -30.5t39 -72
t-13 -89.5t-55 -83t-87 -52.5t-107.5 2.5h-2q-30 -53 -68.5 -87.5t-87.5 -34.5q-44 0 -66 20.5t-26 46t9.5 47.5t39.5 25q19 2 28 -7.5t11 -22t-2 -23.5t-11 -11q-13 0 -19 -9t-4 -19.5t11.5 -19t27.5 -8.5zM372 426q-10 -29 -21.5 -65t-25 -74.5t-29 -77t-33.5 -72.5
q35 -13 68 3t58.5 48t41 72.5t16.5 77t-15 62t-54 27.5q-1 -1 -4 -1h-2zM280 341q8 21 17 41t17 38q-47 -9 -87 -29.5t-70.5 -46.5t-51.5 -53t-29 -50t-3 -37.5t26 -14.5q30 0 58.5 17.5t52.5 42t42 50.5t28 42z" />
    <glyph glyph-name="thorn" unicode="&#xfe;" horiz-adv-x="273" 
d="M273 135q11 16 19 12.5t-1 -20.5q-5 -9 -19 -29.5t-40 -42.5t-65.5 -38.5t-94.5 -16.5q-25 -2 -39 15q-4 4 -3 9t4.5 9t8 5t8.5 -2q7 -5 15 -5q14 2 31.5 20.5t34 46t31 59.5t22.5 60.5t8 49t-12 24.5q-11 3 -25.5 -8.5t-30.5 -31.5t-31.5 -46t-27.5 -51
q-22 -62 -42.5 -121t-37.5 -106t-28 -78t-14 -37q-4 -9 -15 -13t-22.5 -4t-18.5 4.5t-4 12.5q2 5 13 35.5t27.5 77t37 104.5t42 118t42 118.5t37 105.5t27 78t12.5 38q3 11 14.5 17.5t23.5 7t20 -3.5t5 -14l-86 -246q21 31 45 52.5t47 26.5q29 5 44 -8.5t18 -39t-4.5 -59
t-22.5 -68.5t-37 -66.5t-48 -53.5q35 10 69.5 36t62.5 67z" />
    <glyph glyph-name="exclam" unicode="!" horiz-adv-x="122" 
d="M224 503q-7 -21 -18 -50.5t-23.5 -62.5t-25.5 -66.5t-24 -62t-19.5 -49.5t-11.5 -28q-5 -11 -12.5 -16t-13.5 -5t-9 5t2 16q3 7 10 30.5t16.5 55t20 67.5t19.5 68.5t16 57t10 33.5q3 11 14.5 17.5t23.5 7t20 -3.5t5 -14zM-4 40q0 17 11 28.5t28 11.5t28.5 -11.5
t11.5 -28.5t-11.5 -28.5t-28.5 -11.5t-28 11.5t-11 28.5z" />
    <glyph glyph-name="zero" unicode="0" horiz-adv-x="877" 
d="M128 -45q-9 10 -9 27q0 4 1.5 10t5 12t10 10t17.5 4h2q6 0 17 -6t11 -17h-16q0 4 -4 7.5t-10 3.5h-3h-3l-7 -6q-7 -6 -7 -18q0 -13 5 -17.5t12 -6.5h3q5 0 11 3.5t6 11.5h-17v12h30v-37h-10l-1 8q-5 -7 -11.5 -9t-11.5 -2q-6 0 -12 3t-9 7zM820 -124q2 -2 2 -7v-36h-13
v31q0 10 -8 10q-9 0 -9 -10v-31h-13v31q0 10 -8 10t-8 -10v-31h-14v51h12v-8q7 10 16 10q10 0 13 -9q5 9 14 9q6 0 10 -3t6 -7zM354 -117q2 -2 5 -5.5t3 -8.5v-36h-13v31q0 10 -8 10q-9 0 -9 -10v-31h-13v36q0 5 -8 5q-9 0 -9 -10v-31h-13v51h13v-8q6 10 15 10t14 -9
q3 9 13 9q7 0 10 -3zM733 -122q6 -5 6 -19q0 -12 -6 -19.5t-19 -7.5q-12 0 -19 8t-7 19q0 7 4 17t22 10q11 0 19 -8zM544 -7q3 -4 5 -8t2 -12q0 -10 -6 -18t-20 -8t-20 8t-6 18q0 8 5 17t21 9q5 0 10.5 -1t8.5 -5zM101 -116h14l-15 -51h-13l-7 37l-9 -37h-13l-15 51h15
l7 -36l7 36h14l7 -36zM263 -116l-15 -51h-14l-7 37l-9 -37h-13l-15 51h15l7 -36l8 36h14l7 -36l8 36h14zM175 -116h14l-15 -51h-13l-8 37l-9 -37h-13l-14 51h14l8 -36l8 36h13l7 -36zM480 -116h13l-14 -51h-13l-8 37l-8 -37h-14l-14 51h14l8 -36l7 36h13l8 -36zM696 -52
q-4 -1 -7 -1q-15 0 -15 15q0 13 14 15l12 1q4 3 4 5q0 6 -7 6q-8 0 -10 -7h-12q1 5 4 11t11 6h7q12 0 16 -4t4 -10v-33q0 -2 4 -2v-2h-16v1v1q0 2 -0.5 2.5t-0.5 1.5q-1 -2 -3.5 -4t-4.5 -2zM416 -162q0 -2 2 -2v-3h-15v2v1q-1 1 -1 4l-4 -4l-6 -3q-1 -1 -5 -1q-6 0 -11 3.5
t-5 11.5q0 14 14 16l13 1q3 1 3 5q0 6 -7 6q-9 0 -9 -7h-12q0 8 5 13t16 5q13 0 16.5 -5t3.5 -10v-28q0 -3 2 -5zM239 -31h-35q0 -11 12 -11q8 0 8 5h15q-5 -11 -11.5 -13.5t-11.5 -2.5q-26 0 -26 27q0 14 7.5 19.5t18.5 5.5q14 0 18.5 -9t4.5 -18v-3zM598 -141q4 -2 4 -9
q0 -8 -5 -13t-17 -5h-5q-10 0 -14.5 5.5t-4.5 12.5h13q0 -8 11 -8q3 0 6 0.5t3 5.5q0 3 -5 3l-13 3q-5 2 -9.5 6t-4.5 9t3.5 11t17.5 6q18 0 21 -10l1 -7h-13q0 2 -0.5 4t-8.5 2t-8 -5q0 -2 5 -2l12 -4q8 -2 11 -5zM539 -116q4 -2 5.5 -6.5t1.5 -8.5v-36h-13v31
q0 5 -1.5 7.5t-7.5 2.5q-10 0 -10 -12v-29h-14v51h13v-8q7 10 16 10q3 0 5 -0.5t5 -1.5zM604 -7q1 -3 2 -5t1 -5v-35h-14v30q0 10 -9 10t-9 -12v-28h-15v50h13v-6q6 7 16 7q7 0 9 -1zM371 -46q-6 -7 -17 -7q-6 0 -11 4t-5 14v33h13v-31q0 -9 9 -9q2 0 6.5 2t4.5 9v29h12v-50
h-12v6zM659 -126q-11 0 -11 -14q0 -17 11 -17q3 0 6 1.5t3 7.5h13q0 -20 -23 -20t-23 26q0 11 5.5 19.5t17.5 8.5q8 0 15.5 -4.5t7.5 -15.5h-13q0 8 -9 8zM322 6q-1 0 -1 -2v-6h9v-9h-9v-41h-13v41h-8v9h8v5q0 14 14 14h8v-11h-5h-3zM486 -2h10v-9h-10v-41h-13v41h-7v9h7v5
q0 14 15 14h5v-11h-3q-3 0 -4 -2v-6zM753 -52h-9q-5 0 -9 1.5t-4 8.5v31h-7v9h7v13h13v-13h9v-9h-9v-27q0 -4 5 -4h4v-10zM263 11v-13h8v-9h-8v-27q0 -4 5 -4h1l2 -10h-8q-8 0 -10.5 1.5t-2.5 8.5v31h-8v9h8v13h13zM642 -52h-9q-11 0 -12 4v37h-8v9h8v13h12v-13h9v-9h-9v-27
q0 -4 5 -4h4v-10zM409 -52h-14v69h14v-69zM431 -52h-12v69h12v-69zM534 -37q3 2 3 10q0 15 -12 15q-13 0 -13 -15t13 -15q8 0 9 5zM723 -152q2 3 2 11q0 5 -1.5 10t-9.5 5t-10 -4t-2 -11q0 -6 2 -11t10 -5q6 0 9 5zM687 -38q0 -5 1.5 -5.5t3.5 -0.5h4q3 2 5.5 3.5t2.5 6.5v7
q-1 -2 -5 -2l-7 -2q-5 0 -5 -7zM401 -141q-2 -2 -4 -2l-7 -2l-4 -2q-2 -4 -2 -5q0 -6 6 -6h2h3l5 4q1 2 1 5v8zM612 -152h14v-15h-14v15zM263 -152h14v-15h-14v15zM226 -22q-2 5 -4 8t-6 3q-9 0 -11 -11h21zM394 385q4 2 8 -0.5t4 -8.5t-4.5 -14t-17.5 -17q-1 2 -1 5v6
q0 8 2.5 16t8.5 13zM464 396q4 0 6 -4q-2 -6 -4.5 -19.5t-4.5 -28.5q-4 -3 -7 -5.5t-6 -3.5q-6 0 -8.5 8t1.5 21q4 12 10.5 22t12.5 10zM598 413q5 0 6 -4q-2 -7 -3.5 -18t-4.5 -24q0 -3 -1 -4q-7 -10 -14 -10q-5 -1 -7.5 7.5t1.5 20.5q3 13 9.5 22t13.5 10zM112 339
q-10 -2 -12 5.5t2 17.5t14.5 19t26.5 11q9 0 17 3q0 -2 -0.5 -2.5t-0.5 -1.5v-1q-2 -3 -6 -11t-10 -16.5t-14 -15.5t-17 -8zM111 350q3 0 5.5 1.5t5.5 3.5q-4 6 -4 10q-2 -2 -3 -4q-3 -4 -3.5 -6.5t-0.5 -4.5zM789 406q4 -5 1 -16q-5 -12 -16.5 -25t-28.5 -15h-2l-5 -7
q-8 -11 -11.5 -28t-1.5 -30l2 -16q3 -13 -4 -26.5t-19 -20.5l-13 -8q-12 -5 -23 -18.5t-14 -27.5l-5 -14q-3 -13 -15 -22.5t-25 -10.5l-16 -1q-13 -1 -28.5 -8t-24.5 -18l-10 -11q-9 -10 -24 -13.5t-28 2.5l-14 5q-12 5 -29.5 5t-29.5 -5l-15 -5q-12 -6 -27 -2.5t-23 13.5
l-10 11q-9 11 -25 18t-30 8l-14 1q-14 1 -26 10.5t-16 22.5l-4 14q-4 14 -14.5 27.5t-23.5 18.5l-12 8q-12 7 -18.5 20.5t-4.5 26.5l1 14q-5 -6 -11 -10t-14 -4q-2 -1 -6 -1q-14 0 -21.5 8t-8.5 18q-2 17 11 26q-18 5 -20 27q0 22 16 38q5 5 12.5 9.5t18.5 8.5q1 4 2 5l9 12
q8 11 12 27.5t1 30.5l-2 15q-2 14 4.5 27.5t18.5 20.5l12 7q13 6 23.5 19.5t14.5 26.5l4 15q4 13 16 22.5t26 10.5l14 1q14 1 30 8t25 18l10 11q8 10 23 13.5t27 -2.5l15 -5q12 -5 29.5 -5t29.5 5l14 5q13 6 28 2.5t24 -13.5l10 -11q9 -11 24.5 -18t28.5 -8l16 -1
q13 -1 25 -10.5t15 -22.5l5 -15q3 -13 14 -26.5t23 -19.5l13 -7q12 -7 19 -20.5t4 -27.5l-2 -14q2 -6 1 -11l-2 -8q1 -5 1.5 -11t2.5 -11q4 4 7 6t7 4q2 1 6.5 2t6.5 1q16 0 21 -16q5 -11 -3 -25q3 1 5 1q6 0 11 -5zM116 279q15 2 24 17.5t15 35t9.5 38t7.5 27.5
q8 2 10.5 3.5t3.5 3.5q0 11 -11 6q-7 0 -12 -10q-3 0 -8.5 -1t-11.5 -1q-26 -4 -40 -16t-17.5 -24t2.5 -21t19 -7q14 2 25 12t18 22q-4 -13 -7.5 -27t-7 -25t-8.5 -18.5t-11 -8.5q-8 -2 -9.5 4.5t3.5 7.5q4 0 2.5 7.5t-9.5 5.5q-6 -1 -9 -6.5t-1.5 -11t7.5 -10t16 -3.5z
M116 320q4 -4 6 -10h1q2 3 2.5 7t2.5 7q-10 -4 -12 -4zM779 396q2 3 0 4t-4 -4q-4 -7 -7.5 -12.5t-11.5 -7.5q-16 -4 -22 9q18 13 25 24.5t7 18.5t-5.5 9.5t-14.5 -0.5q-11 -5 -19 -19t-10 -28v-1q-3 -8 -8 -15t-9 -7q-5 -1 -4.5 3.5t2.5 10.5q0 3 2.5 17t5.5 29.5t5.5 28.5
t3.5 15q1 5 -5.5 4.5t-8.5 -6.5q-1 -2 -4.5 -20t-6.5 -36q-6 -5 -19 -1q-1 10 -6 18q-3 3 -6 -6.5t-1 -13.5q9 -14 6 -28q-2 -9 -7.5 -15t-10.5 -6q-2 -1 -2.5 2t0 7.5t1.5 9.5t1 8t2.5 14.5t5.5 24.5t5.5 24t3.5 14q1 5 -6.5 4t-9.5 -6q0 -3 -2 -13t-4.5 -22t-5 -24.5
t-3.5 -19.5q0 -4 -1 -5l-1 -1q-4 -9 -8.5 -15t-9.5 -7q-4 -1 -3.5 3.5t1.5 10.5q1 3 2 9.5t2.5 14t3 13.5t2.5 8q2 6 -4.5 5.5t-8.5 -5.5q-4 4 -10 4q-9 -2 -19.5 -14.5t-15.5 -29.5q0 -3 -2 -5v-1q-4 -9 -8.5 -15.5t-8.5 -6.5q-6 -1 -4 9.5t6 23t4.5 22.5t-8.5 9
q-7 -1 -15.5 -13t-14.5 -26q2 8 3 17t3 14q1 4 -6 3.5t-8 -4.5q0 -3 -2 -12.5t-4 -20.5l-1 -2q-5 -3 -12 -13.5t-12 -21.5q2 11 4.5 22.5t4.5 21t3.5 16t1.5 7.5q2 5 -4.5 4.5t-8.5 -5.5q-6 4 -9 3q-10 -1 -20 -13.5t-15 -29.5q0 -1 -2 -5v-1q-4 -8 -7.5 -13t-11.5 -7
q-15 -5 -22 8q18 13 25 24t7 18.5t-5.5 10t-14.5 -0.5q-11 -5 -19 -18.5t-10 -28.5v-2q-7 -19 -17 -21q-5 0 -5.5 6.5t1 15.5t4 17.5t5.5 13.5q4 7 -4 5.5t-12 1.5q3 5 5 9q4 9 -2 12q-4 1 -7.5 -1.5t-5.5 -6.5t-2 -9t3 -8q-2 -8 -7 -21.5t-7 -19.5q-11 -21 -28 -27
q8 9 13.5 22t6.5 24.5t-2.5 18.5t-13.5 4q-6 -2 -11 -8t-9 -14q1 5 2 9.5t1 6.5q1 5 -6 3.5t-8 -6.5q-1 -2 -2.5 -13t-5.5 -25q-1 -1 -1 -2q-7 -20 -17 -22q-6 -1 -4 9.5t5.5 23t4.5 22.5t-9 9q-11 -4 -19 -25q2 11 1 16.5t-8 4.5t-13.5 -10t-10.5 -23q1 8 1.5 15t2.5 12
q1 4 -5.5 3.5t-7.5 -4.5q0 -3 -2.5 -13.5t-4.5 -22t-4.5 -21.5t-2.5 -13q-1 -2 1 -3t4 -1t4.5 1.5t3.5 3.5q0 3 1 3v2q5 18 11.5 36t11.5 19q2 1 1.5 -5.5t-2.5 -14.5q-2 -12 -5 -23.5t-4 -13.5q-2 -5 4.5 -4.5t8.5 4.5q0 1 2 7.5t4 15.5q4 14 9 25.5t8 11.5q4 1 2 -9
t-5 -21.5t-3 -21t9 -8.5q5 1 12 6.5t13 12.5q-5 -21 -8.5 -40t-5.5 -22q-1 -5 5.5 -3.5t8.5 5.5q0 1 2 9t4 19t5 24t5 25q4 12 11.5 26.5t13.5 12.5q4 -1 3.5 -10t-4 -20.5t-8.5 -21t-10 -10.5q-2 -1 -5 1q-2 1 -3.5 -1.5t0.5 -4.5q5 -3 11 -2q23 4 33 16.5t12 17.5v1
q2 5 6.5 18t6.5 21q6 -2 8 -2q-2 -3 -5.5 -14t-5.5 -22t0 -19.5t11 -7.5q7 0 15 7.5t13 16.5q2 -10 9 -14.5t15 -2.5q10 1 17.5 8t12.5 15q0 -9 4 -14.5t11 -3.5q5 0 9 3.5t9 8.5q-4 -17 -7 -32t-4 -22q-1 -3 1.5 -2.5t6 2t7 4t5.5 3.5q5 2 4.5 4.5t-4.5 -0.5
q-3 -2 -3.5 -1.5t0.5 5.5q0 2 0.5 3t0.5 3v1q2 15 12 31t19 28q-3 -11 -4.5 -18.5t-2.5 -9.5q-2 -5 5 -4t9 6q0 1 0.5 3.5t2.5 4.5q4 17 12 33.5t13 18.5q4 0 1.5 -9.5t-5 -21.5t-3 -21.5t8.5 -8.5q7 1 14 7.5t12 14.5q0 -8 4 -13.5t11 -3.5q9 1 21 15q0 -12 8 -11
q7 1 14.5 7.5t12.5 14.5q0 -8 1.5 -13.5t8.5 -4.5q9 2 17.5 12.5t10.5 20.5q4 13 4 26h8.5t8.5 2q-2 -9 -3.5 -17t-3.5 -13q-2 -8 -1.5 -16.5t9.5 -7.5q8 1 15.5 8.5t11.5 17.5q3 -11 10.5 -15t15.5 -4q13 2 22 12.5t14 22.5zM743 429q4 2 7.5 -0.5t3.5 -8t-4.5 -14
t-16.5 -17.5q-2 3 -2 11q0 20 12 29z" />
    <glyph glyph-name="eight.001" horiz-adv-x="223" 
d="M166 330q39 0 55.5 -17t12 -42t-28.5 -52.5t-65 -48.5q25 -23 32 -52.5t-4.5 -55.5t-41.5 -44t-77 -18q-39 0 -55.5 17.5t-12 42t28.5 52t65 48.5q-26 24 -32.5 53.5t5 55.5t41.5 43.5t77 17.5zM52 19q26 0 39.5 14.5t16.5 34.5t-2.5 42.5t-17.5 37.5q-24 -14 -38 -36
t-18.5 -42.5t1 -35.5t19.5 -15zM127 183q24 13 38 35t18.5 42.5t-1 35.5t-19.5 15q-26 0 -39.5 -14t-16.5 -34.5t2.5 -42.5t17.5 -37z" />
    <glyph glyph-name="seven.001" horiz-adv-x="223" 
d="M-3 37q10 21 29.5 53.5t43 68t48 69.5t43.5 58q10 12 12 15.5t-5 3.5h-17h-34.5h-34.5h-18q-9 0 -13 3t-3 6.5t7.5 6.5t18.5 3h17t35.5 0.5t36 0.5h18.5q13 0 29 -0.5t28.5 -2.5t18 -7t-3.5 -15q-15 -16 -33 -41t-37.5 -53t-39 -58t-37 -57t-31 -48t-20.5 -32
q-7 -10 -18.5 -11t-22 4t-16.5 14t-1 19z" />
    <glyph glyph-name="one.001" horiz-adv-x="202" 
d="M-29 0q-5 0 -5.5 4t1.5 9t5.5 9t8.5 4h38q4 11 13 34t20 54.5t24 69t26 77.5q5 19 3.5 21t-15.5 -5q-8 -4 -13 -3t-5.5 5t4 9t15.5 10q8 3 24.5 11t32.5 13.5t26.5 4.5t5.5 -16q-10 -30 -24.5 -73t-28.5 -85.5t-26 -77.5t-18 -49h41q5 0 6 -4t-1 -9t-6 -9t-8 -4h-144z
" />
    <glyph glyph-name="two.001" horiz-adv-x="251" 
d="M-33 12q-2 -2 -3 -2l-9 -8q-7 -6 -11.5 -6t-5.5 3.5t2.5 10.5t12.5 14q20 17 48 37.5t57.5 44t57.5 48.5t48 51q16 21 24.5 40t9.5 34t-4.5 23.5t-17.5 8.5q-19 0 -37.5 -14.5t-31 -36t-16 -46t6.5 -45.5q3 -6 -5 -12t-20 -9t-25 -0.5t-20 13.5q-9 14 -6 33.5t14.5 39.5
t29.5 38.5t39.5 32t45 20t45.5 1.5q21 -5 34.5 -20.5t17 -38t-4.5 -49.5t-30 -54q-19 -24 -42 -40t-47.5 -28t-50.5 -23t-52 -25q19 6 38.5 10t33.5 2q20 -4 31 -10.5t26 -6.5q11 0 22 4t22 11q14 8 18 4t-7 -16q-18 -21 -38.5 -36t-42.5 -15q-19 0 -39.5 7.5t-41 14
t-40 7.5t-36.5 -12z" />
    <glyph glyph-name="three.001" horiz-adv-x="242" 
d="M183 326q21 -5 34.5 -19.5t18 -34t-0.5 -42.5t-21 -45q-12 -17 -27.5 -22.5t-29.5 -5.5q17 -9 22 -26.5t0 -35.5q-8 -38 -36.5 -66.5t-85.5 -28.5q-46 0 -63 22.5t-12 49.5t28.5 49.5t59.5 22.5q13 0 19 -10t7 -21.5t-2 -21.5t-8 -10q-27 0 -43.5 -9t-21.5 -20t3.5 -20.5
t32.5 -9.5q18 0 34.5 18t24 40.5t4 42.5t-25.5 25q-9 2 -7 10.5t15 8.5q9 0 16.5 4.5t14 10.5t11 12.5t7.5 10.5q16 21 24.5 40t9.5 34t-5 23.5t-18 8.5q-19 0 -32.5 -10t-20 -26t-5.5 -36t11 -40q3 -6 -5 -12.5t-20 -9t-25 0t-20 13.5q-14 21 -6 48t29 48.5t51.5 33.5
t63.5 5z" />
    <glyph glyph-name="six.001" horiz-adv-x="223" 
d="M49 6q-19 6 -32.5 23.5t-18 43.5t3.5 59.5t32 70.5q22 34 46.5 56t50 36t50.5 21t49 10q11 2 11.5 -6.5t-10.5 -10.5q-17 -3 -36 -14t-37.5 -27.5t-35 -37t-29.5 -42.5q20 11 48 7t44 -30q13 -22 4.5 -52.5t-30.5 -57t-51.5 -42.5t-58.5 -7zM68 134q-8 -21 -12.5 -41.5
t-5 -36.5t3 -26t12.5 -10q16 0 31 13.5t24.5 34t11.5 44.5t-7 45q-10 22 -25.5 18.5t-25.5 -23.5z" />
    <glyph glyph-name="nine.001" horiz-adv-x="223" 
d="M167 323q19 -6 32.5 -23t18 -43.5t-3.5 -59.5t-32 -70q-23 -34 -47 -56.5t-49.5 -36.5t-50.5 -21t-49 -10q-11 -1 -11.5 7.5t10.5 10.5q17 3 36 14t37.5 27.5t35 36.5t29.5 42q-20 -11 -48 -7t-44 30q-13 22 -4.5 52.5t30.5 57t51.5 42.5t58.5 7zM148 195q8 21 12.5 41.5
t5 36.5t-3 26t-12.5 10q-16 0 -31 -13.5t-24.5 -34t-11.5 -44.5t7 -45q10 -22 25.5 -18.5t25.5 23.5z" />
    <glyph glyph-name="five.001" horiz-adv-x="232" 
d="M108 169q-8 3 -17.5 4t-20.5 2q-14 -2 -25 3.5t-6 17.5q3 8 7.5 21t10.5 27q4 8 18 21.5t28 24.5l-24 7q-4 1 -5 5.5t0.5 9t5 8t8.5 3.5h144q6 0 7 -9t-2 -20t-9.5 -20t-16.5 -8q-11 0 -33.5 5t-45.5 11q-3 -9 -7.5 -21t-8.5 -24t-7.5 -23t-6.5 -18l-1 -1q15 -1 32 -5.5
t33 -13.5q21 -14 23.5 -43t-12 -58.5t-44.5 -52t-73 -22.5q-46 0 -63 22.5t-12 49.5t29 49.5t60 22.5q12 0 18 -10t7 -21.5t-2 -21.5t-8 -10q-27 0 -43.5 -9t-21.5 -20t3.5 -20.5t32.5 -9.5q20 0 38 20t27 45.5t6.5 49.5t-23.5 32z" />
    <glyph glyph-name="four.001" horiz-adv-x="200" 
d="M177 303q7 6 9 6q16 11 27 14t6 -12q-7 -19 -15 -43t-17 -50.5t-18 -54t-17 -51.5q7 0 9.5 -3.5t1 -7t-6 -7t-11.5 -3.5q-9 -25 -15.5 -43.5t-9.5 -25.5q-5 -11 -17 -16t-23.5 -5t-19.5 5t-4 16q3 8 10 25.5t16 43.5h-87q-11 0 -12.5 6t12.5 23q7 8 28 31t48 51
t55.5 55.5t50.5 45.5zM90 112q10 28 21 60.5t22 67.5q-11 -16 -24 -34t-24 -34t-19 -27.5t-9 -14.5q-6 -11 -7.5 -14.5t5.5 -3.5h35z" />
    <glyph glyph-name="slash" unicode="/" horiz-adv-x="359" 
d="M318 368q-12 -19 -38.5 -57.5t-60 -86t-69.5 -98.5t-67 -94.5t-52.5 -74t-26.5 -36.5q-6 -8 -13 -10.5t-12 -1t-6.5 6t3.5 12.5q3 4 17.5 24.5t35.5 50t47.5 67t53.5 76t53.5 76t48 68t36 51.5t17.5 27q6 10 14 14.5t14 4t8.5 -5t-3.5 -13.5z" />
    <glyph glyph-name="bar" unicode="|" horiz-adv-x="251" 
d="M241 521q-5 -16 -17.5 -51.5t-28.5 -83.5t-35 -104.5t-38 -113.5t-37.5 -111t-33 -97t-24.5 -71.5t-12 -33.5q-4 -9 -10.5 -13t-11.5 -4t-7.5 4.5t0.5 12.5q2 5 12.5 35t26 75t34.5 101.5t39 115.5t39 115.5t34.5 102.5t25.5 76.5t12 37.5q3 11 10 17.5t13 7t9 -3.5
t0 -14z" />
    <glyph glyph-name="backslash" unicode="\" horiz-adv-x="359" 
d="M21 396q-4 9 -0.5 13.5t9.5 3.5t13 -6.5t11 -16.5q2 -6 12.5 -29.5t25.5 -57.5t34 -76t38.5 -85t38 -84.5t34 -75t26 -55.5t12.5 -27q4 -9 1.5 -13.5t-8 -5t-12 3.5t-10.5 13q-3 7 -19 41t-38 82.5t-48 105.5t-50 110t-43 95.5t-27 63.5z" />
    <glyph glyph-name="fraction" unicode="&#x2044;" horiz-adv-x="202" 
d="M272 362q-12 -18 -38.5 -57t-60 -86.5t-69.5 -98.5t-67 -94.5t-52.5 -74t-26.5 -36.5q-6 -8 -13 -10.5t-12 -1t-6.5 6t3.5 12.5q4 6 27.5 39t56 79t70.5 99.5t71 100t56 80.5t28 42q6 10 14 14.5t14 4t8.5 -5t-3.5 -13.5z" />
    <glyph glyph-name="dotlessi" unicode="&#x131;" horiz-adv-x="144" 
d="M-10 108q11 31 21.5 62t19.5 57.5t16 47t12 31.5t17 16t23 5t17.5 -5.5t2.5 -15.5q-4 -11 -13.5 -37t-20 -56t-20 -58t-13.5 -41t-7 -24.5t-4 -19.5t2.5 -13t12.5 -5q18 0 43 24t45 59q10 17 17.5 13.5t-0.5 -21.5q-9 -20 -26.5 -42.5t-39 -41.5t-45 -31t-42.5 -12
q-20 0 -27.5 10.5t-7.5 26.5t5.5 35t11.5 36z" />
    <glyph glyph-name="hyphen" unicode="-" horiz-adv-x="222" 
d="M169 167q9 0 11.5 -6t0 -13t-8 -13t-13.5 -6h-112q-9 0 -12 6t-0.5 13t8.5 13t14 6h112z" />
    <glyph glyph-name="colon" unicode=":" horiz-adv-x="176" 
d="M-4 40q0 17 11 28.5t28 11.5t28.5 -11.5t11.5 -28.5t-11.5 -28.5t-28.5 -11.5t-28 11.5t-11 28.5zM87 285q0 17 11 28.5t28 11.5t28.5 -11.5t11.5 -28.5t-11.5 -28.5t-28.5 -11.5t-28 11.5t-11 28.5z" />
    <glyph glyph-name="semicolon" unicode=";" horiz-adv-x="176" 
d="M87 285q0 17 11 28.5t28 11.5t28.5 -11.5t11.5 -28.5t-11.5 -28.5t-28.5 -11.5t-28 11.5t-11 28.5zM1 61q9 14 24.5 19t29.5 -5q19 -14 15 -35.5t-19.5 -40.5t-38.5 -30.5t-41 -5.5q22 15 26.5 27t2.5 23t-4.5 22.5t5.5 25.5z" />
    <glyph glyph-name="quotesingle" unicode="'" horiz-adv-x="6" 
d="M27 316q-10 -8 -11 -2.5t0 14.5q1 19 1.5 43.5t6 45t16.5 31t33 1.5q17 -8 17 -24t-9.5 -35.5t-25 -39.5t-28.5 -34z" />
    <glyph glyph-name="quotedbl" unicode="&#x22;" horiz-adv-x="174" 
d="M69 316q-10 -8 -11 -2.5t0 14.5q1 19 1.5 43.5t6 45t16.5 31t33 1.5q17 -8 17 -24t-9.5 -35.5t-25 -39.5t-28.5 -34zM149 316q-10 -8 -11 -2.5t0 14.5q1 19 1.5 43.5t6 45t16.5 31t33 1.5q17 -8 17 -24t-9.5 -35.5t-25 -39.5t-28.5 -34z" />
    <glyph glyph-name="quotedblbase" unicode="&#x201e;" horiz-adv-x="220" 
d="M1 61q9 14 24.5 19t29.5 -5q19 -14 15 -35.5t-19.5 -40.5t-38.5 -30.5t-41 -5.5q22 15 26.5 27t2.5 23t-4.5 22.5t5.5 25.5zM91 61q9 14 24.5 19t29.5 -5q19 -14 15 -35.5t-19.5 -40.5t-38.5 -30.5t-41 -5.5q22 15 26.5 27t2.5 23t-4.5 22.5t5.5 25.5z" />
    <glyph glyph-name="quotesinglbase" unicode="&#x201a;" horiz-adv-x="133" 
d="M1 61q9 14 24.5 19t29.5 -5q19 -14 15 -35.5t-19.5 -40.5t-38.5 -30.5t-41 -5.5q22 15 26.5 27t2.5 23t-4.5 22.5t5.5 25.5z" />
    <glyph glyph-name="ellipsis" unicode="&#x2026;" horiz-adv-x="399" 
d="M-4 40q0 17 11 28.5t28 11.5t28.5 -11.5t11.5 -28.5t-11.5 -28.5t-28.5 -11.5t-28 11.5t-11 28.5zM129 40q0 17 11 28.5t28 11.5t28.5 -11.5t11.5 -28.5t-11.5 -28.5t-28.5 -11.5t-28 11.5t-11 28.5zM262 40q0 17 11 28.5t28 11.5t28.5 -11.5t11.5 -28.5t-11.5 -28.5
t-28.5 -11.5t-28 11.5t-11 28.5z" />
    <glyph glyph-name="quotedblright" unicode="&#x201d;" horiz-adv-x="177" 
d="M69 422q9 14 24.5 19t29.5 -5q19 -14 15 -35.5t-19.5 -40.5t-38.5 -30.5t-41 -5.5q22 15 26.5 27t2.5 23t-4.5 22.5t5.5 25.5zM159 422q9 14 24.5 19t29.5 -5q19 -14 15 -35.5t-19.5 -40.5t-38.5 -30.5t-41 -5.5q22 15 26.5 27t2.5 23t-4.5 22.5t5.5 25.5z" />
    <glyph glyph-name="quotedblleft" unicode="&#x201c;" horiz-adv-x="177" 
d="M204 339q-9 -14 -24.5 -19t-29.5 5q-19 14 -15 35.5t19.5 40.5t38.5 30.5t41 5.5q-23 -15 -27 -27t-2 -23t4.5 -22.5t-5.5 -25.5zM114 339q-9 -14 -24.5 -19t-29.5 5q-19 14 -15 35.5t19.5 40.5t38.5 30.5t41 5.5q-23 -15 -27 -27t-2 -23t4.5 -22.5t-5.5 -25.5z" />
    <glyph glyph-name="plus" unicode="+" horiz-adv-x="288" 
d="M200 226q-7 -13 -14.5 -28l-15.5 -31h68q9 0 11.5 -6t0 -13t-8 -13t-13.5 -6h-77l-32 -65q-4 -8 -12 -11t-15 -2t-11 5.5t-1 11.5q4 8 12.5 24.5t18.5 36.5h-64q-9 0 -12 6t-0.5 13t8.5 13t14 6h73q10 20 18 36.5t13 26.5q4 8 12 11t15 2t11 -5.5t1 -11.5z" />
    <glyph glyph-name="endash" unicode="&#x2013;" horiz-adv-x="258" 
d="M209 167q9 0 11.5 -6t0 -13t-8 -13t-13.5 -6h-152q-9 0 -12 6t-0.5 13t8.5 13t14 6h152z" />
    <glyph glyph-name="emdash" unicode="&#x2014;" horiz-adv-x="356" 
d="M303 167q9 0 11.5 -6t0 -13t-8 -13t-13.5 -6h-246q-9 0 -12 6t-0.5 13t8.5 13t14 6h246z" />
    <glyph glyph-name="minus" unicode="&#x2212;" horiz-adv-x="222" 
d="M169 167q9 0 11.5 -6t0 -13t-8 -13t-13.5 -6h-112q-9 0 -12 6t-0.5 13t8.5 13t14 6h112z" />
    <glyph glyph-name="macron" unicode="&#xaf;" horiz-adv-x="258" 
d="M209 469q9 0 11.5 -6t0 -13t-8 -13t-13.5 -6h-152q-9 0 -12 6t-0.5 13t8.5 13t14 6h152z" />
    <glyph glyph-name="degree" unicode="&#xb0;" horiz-adv-x="250" 
d="M102 287q0 29 20 49t49 20t49 -20t20 -49t-20 -49t-49 -20t-49 20t-20 49zM126 287q0 -19 13 -32t32 -13t32 13t13 32t-13 32t-32 13t-32 -13t-13 -32z" />
    <glyph glyph-name="quoteleft" unicode="&#x2018;" horiz-adv-x="87" 
d="M114 339q-9 -14 -24.5 -19t-29.5 5q-19 14 -15 35.5t19.5 40.5t38.5 30.5t41 5.5q-23 -15 -27 -27t-2 -23t4.5 -22.5t-5.5 -25.5z" />
    <glyph glyph-name="quoteright" unicode="&#x2019;" horiz-adv-x="90" 
d="M69 422q9 14 24.5 19t29.5 -5q19 -14 15 -35.5t-19.5 -40.5t-38.5 -30.5t-41 -5.5q22 15 26.5 27t2.5 23t-4.5 22.5t5.5 25.5z" />
    <glyph glyph-name="asciicircum" unicode="^" horiz-adv-x="197" 
d="M74 331q7 6 17 14.5t20 16.5t19 16t14 13q13 11 21 11t16 -11l20 -27.5t23 -33.5q6 -8 4.5 -13.5t-6.5 -8t-11.5 -0.5t-12.5 10q-5 8 -11.5 16.5t-11.5 16.5l-12 18q-13 -10 -25 -20q-11 -8 -22.5 -17t-19.5 -15q-9 -6 -16 -7t-10.5 1.5t-3 8t7.5 11.5z" />
    <glyph glyph-name="less" unicode="&#x3c;" horiz-adv-x="197" 
d="M97 81q-13 14 -28 31.5t-26 28.5q-11 13 -11 21t11 16q5 4 19 13.5t30 20.5t31.5 21t24.5 16q8 6 13.5 4.5t8 -6.5t0 -11.5t-9.5 -12.5q-8 -5 -23.5 -15.5t-31.5 -21.5q-18 -12 -40 -26q8 -10 17 -20q7 -9 15 -19t14 -18q6 -9 7 -16t-1.5 -10.5t-8 -3t-11.5 7.5z" />
    <glyph glyph-name="greater" unicode="&#x3e;" horiz-adv-x="197" 
d="M98 246q13 -14 28 -31.5t26 -28.5q11 -13 11 -21t-11 -16q-5 -4 -19 -13.5t-30 -20.5t-31.5 -21t-24.5 -16q-8 -6 -13.5 -4.5t-8 6.5t-0.5 11.5t10 12.5q8 5 23.5 15.5t31.5 21.5q18 12 40 26q-9 9 -17 20q-8 8 -15.5 18.5t-13.5 18.5q-6 9 -7 16t1.5 10.5t8 3t11.5 -7.5
z" />
    <glyph glyph-name="guilsinglleft" unicode="&#x2039;" horiz-adv-x="197" 
d="M97 81q-13 14 -28 31.5t-26 28.5q-11 13 -11 21t11 16q5 4 19 13.5t30 20.5t31.5 21t24.5 16q8 6 13.5 4.5t8 -6.5t0 -11.5t-9.5 -12.5q-8 -5 -23.5 -15.5t-31.5 -21.5q-18 -12 -40 -26q8 -10 17 -20q7 -9 15 -19t14 -18q6 -9 7 -16t-1.5 -10.5t-8 -3t-11.5 7.5z" />
    <glyph glyph-name="guilsinglright" unicode="&#x203a;" horiz-adv-x="197" 
d="M98 246q13 -14 28 -31.5t26 -28.5q11 -13 11 -21t-11 -16q-5 -4 -19 -13.5t-30 -20.5t-31.5 -21t-24.5 -16q-8 -6 -13.5 -4.5t-8 6.5t-0.5 11.5t10 12.5q8 5 23.5 15.5t31.5 21.5q18 12 40 26q-9 9 -17 20q-8 8 -15.5 18.5t-13.5 18.5q-6 9 -7 16t1.5 10.5t8 3t11.5 -7.5
z" />
    <glyph glyph-name="guillemotleft" unicode="&#xab;" horiz-adv-x="302" 
d="M97 81q-13 14 -28 31.5t-26 28.5q-11 13 -11 21t11 16q5 4 19 13.5t30 20.5t31.5 21t24.5 16q8 6 13.5 4.5t8 -6.5t0 -11.5t-9.5 -12.5q-8 -5 -23.5 -15.5t-31.5 -21.5q-18 -12 -40 -26q8 -10 17 -20q7 -9 15 -19t14 -18q6 -9 7 -16t-1.5 -10.5t-8 -3t-11.5 7.5zM187 81
q-13 14 -28 31.5t-26 28.5q-11 13 -11 21t11 16q5 4 19 13.5t30 20.5t31.5 21t24.5 16q8 6 13.5 4.5t8 -6.5t0 -11.5t-9.5 -12.5q-8 -5 -23.5 -15.5t-31.5 -21.5q-18 -12 -40 -26q8 -10 17 -20q7 -9 15 -19t14 -18q6 -9 7 -16t-1.5 -10.5t-8 -3t-11.5 7.5z" />
    <glyph glyph-name="guillemotright" unicode="&#xbb;" horiz-adv-x="271" 
d="M98 246q13 -14 28 -31.5t26 -28.5q11 -13 11 -21t-11 -16q-5 -4 -19 -13.5t-30 -20.5t-31.5 -21t-24.5 -16q-8 -6 -13.5 -4.5t-8 6.5t-0.5 11.5t10 12.5q8 5 23.5 15.5t31.5 21.5q18 12 40 26q-9 9 -17 20q-8 8 -15.5 18.5t-13.5 18.5q-6 9 -7 16t1.5 10.5t8 3t11.5 -7.5
zM178 246q13 -14 28 -31.5t26 -28.5q11 -13 11 -21t-11 -16q-5 -4 -19 -13.5t-30 -20.5t-31.5 -21t-24.5 -16q-8 -6 -13.5 -4.5t-8 6.5t-0.5 11.5t10 12.5q8 5 23.5 15.5t31.5 21.5q18 12 40 26q-9 9 -17 20q-8 8 -15.5 18.5t-13.5 18.5q-6 9 -7 16t1.5 10.5t8 3t11.5 -7.5z
" />
    <glyph glyph-name="dollar" unicode="$" horiz-adv-x="270" 
d="M233 352q11 -10 19 -23.5t12 -30.5q2 -10 2 -24t-4.5 -26.5t-13.5 -22t-24 -10.5t-21 7t-6.5 18t3 18.5t7.5 8.5t9 3.5t8.5 9.5t5.5 14.5t0 17.5q-4 10 -7 14q-10 -22 -20.5 -47t-22.5 -51q3 -17 9 -37q18 -65 11 -109t-27.5 -69.5t-49.5 -32.5t-56 1q-5 -9 -8 -16
t-4 -10q-4 -9 -10.5 -13t-11.5 -4t-7.5 4.5t0.5 12.5q2 4 5.5 14t10.5 24q-14 9 -24.5 23t-15.5 34q-6 24 -2.5 46t13 39t24 28t31.5 15q15 3 22 -5t9 -18.5t-1 -19.5t-8 -9q-9 1 -20.5 -4.5t-21.5 -16t-15.5 -25t-0.5 -30.5q6 -21 22 -32l68 149q-18 65 -15 108t18.5 66.5
t39 29t45.5 -3.5q7 15 8 20q3 11 10 17.5t13 7t9 -3.5t0 -14zM81 11q12 0 23 6.5t18.5 20t10.5 34.5t-1 50q-15 -32 -27.5 -60t-23.5 -51zM200 343q-13 4 -22.5 -9.5t-5.5 -56.5z" />
    <glyph glyph-name="percent.001" horiz-adv-x="367" 
d="M83 309q0 29 20 49t49 20t49 -20t20 -49t-20 -49t-49 -20t-49 20t-20 49zM107 309q0 -19 13 -32t32 -13t32 13t13 32t-13 32t-32 13t-32 -13t-13 -32zM175 48q0 29 20 49t49 20t49 -20t20 -49t-20 -49t-49 -20t-49 20t-20 49zM199 48q0 -19 13 -32t32 -13t32 13t13 32
t-13 32t-32 13t-32 -13t-13 -32zM360 355q-12 -16 -38 -48l-58.5 -72t-68 -83t-66 -79.5t-52 -62t-25.5 -30.5q-6 -6 -13 -8.5t-12 -1.5t-6.5 5t3.5 10q4 5 27 33t55.5 66.5t69 83.5t69 84.5t55.5 67.5t27 35q6 9 14 12.5t14 3t8.5 -4.5t-3.5 -11z" />
    <glyph glyph-name="perthousand" unicode="&#x2030;" horiz-adv-x="392" 
d="M175 48q0 29 20 49t49 20q13 0 27 -6q12 6 27 6q29 0 49 -20t20 -49t-20 -49t-49 -20q-15 0 -27 6q-14 -6 -27 -6q-29 0 -49 20t-20 49zM83 309q0 29 20 49t49 20t49 -20t20 -49t-20 -49t-49 -20t-49 20t-20 49zM360 355q-12 -16 -38 -48l-58.5 -72t-68 -83t-66 -79.5
t-52 -62t-25.5 -30.5q-6 -6 -13 -8.5t-12 -1.5t-6.5 5t3.5 10q4 5 27 33t55.5 66.5t69 83.5t69 84.5t55.5 67.5t27 35q6 9 14 12.5t14 3t8.5 -4.5t-3.5 -11zM107 309q0 -19 13 -32t32 -13t32 13t13 32t-13 32t-32 13t-32 -13t-13 -32zM313 48q0 -26 -17 -45h2q19 0 32 13
t13 32t-13 32t-32 13h-2q17 -19 17 -45zM229 48q0 26 16 45h-1q-19 0 -32 -13t-13 -32t13 -32t32 -13h1q-16 19 -16 45zM253 48q0 -24 18 -37q18 13 18 37q0 23 -18 36q-18 -13 -18 -36z" />
    <glyph glyph-name="Lslash" unicode="&#x141;" horiz-adv-x="370" 
d="M148 152q15 3 34.5 8.5t41.5 12.5q17 40 34 83t34 85q-18 -23 -39.5 -45.5t-47 -40.5t-54.5 -29.5t-60 -11.5q-39 0 -61 20t-26 50.5t10.5 66t49.5 66t89.5 50.5t131.5 20q26 0 46.5 0.5t37.5 1.5q14 16 27.5 26t28.5 12q23 3 35.5 -7.5t7.5 -24.5q-5 -12 -19.5 -18
t-47.5 -9q-10 -19 -20.5 -49t-23 -66.5t-27 -77t-32.5 -79.5q31 11 47 14q9 2 12.5 -2t3 -9.5t-5 -11.5t-12.5 -7l-60 -18q-23 -46 -50 -83.5t-60 -58.5q25 -12 54 -26t58.5 -25.5t58.5 -16t55 3.5q12 3 14 -0.5t-3 -14.5t-13.5 -22t-20 -20t-25 -15t-28.5 -6q-21 0 -44 15
t-46.5 35.5t-47 42t-45.5 33.5q-18 -6 -37 -6q-23 0 -33.5 6.5t-10 14.5t12.5 14.5t35 6.5q7 0 15 -2t18 -5q18 15 35 43t34 63q-20 -6 -37 -10.5t-26 -6.5t-13 1.5t-3.5 9.5t5.5 11.5t13 7.5zM355 441q-7 -15 -17 -31q-8 -14 -19.5 -31.5t-26.5 -37.5q11 29 23 54.5
t25 48.5q0 2 1 2q2 5 5 9.5t6 9.5h-70q-46 0 -84 -16t-65.5 -39.5t-44 -51t-19 -51t9 -39.5t40.5 -16q37 0 73.5 25t66.5 57.5t51.5 64t29.5 45.5q0 2 1 2l3 6z" />
    <glyph glyph-name="lslash" unicode="&#x142;" horiz-adv-x="143" 
d="M-10 108q6 18 15.5 45.5t20 60t22 68t22.5 69.5q-7 -5 -13 -8t-11 -5q-9 -5 -13.5 -2t-5.5 8.5t2.5 12.5t10.5 10q11 5 21.5 11.5t21.5 12.5q13 38 22 65t13 35q5 11 17 16t23 5t17.5 -5.5t2.5 -15.5q-2 -5 -7 -19t-12 -35l10 6q8 4 12.5 1t5.5 -9t-2 -12.5t-10 -9.5
l-30 -17q-13 -39 -28.5 -84.5t-29 -86.5t-23 -71.5t-12.5 -39.5q-4 -13 -7.5 -24.5t-4.5 -19.5t2.5 -13t12.5 -5q19 0 43.5 24t44.5 59q11 17 18.5 13.5t-0.5 -21.5q-9 -20 -27 -42.5t-39.5 -41.5t-45 -31t-42.5 -12q-20 0 -27 10.5t-7 26.5t5.5 35t11.5 36z" />
    <glyph glyph-name="Zcaron" unicode="&#x17d;" horiz-adv-x="465" 
d="M322 -41q-20 0 -46.5 5.5t-56.5 13.5t-60.5 16t-57.5 14q-14 -5 -28 -7.5t-28 -2.5q-23 0 -33.5 6.5t-10 14.5t12.5 14.5t35 6.5q18 0 45 -3q33 24 71.5 68.5t79 97.5t82 109t80.5 103q-30 -20 -73 -40q-53 -25 -92.5 -27t-66 9.5t-38.5 34t-8.5 46.5t23 47t56.5 36
t91.5 12t127.5 -23q33 -10 58 -15q34 28 59 32q23 3 35.5 -7.5t7.5 -24.5q-5 -13 -19.5 -21t-51.5 -5q-16 -20 -38.5 -53.5t-50.5 -74t-60.5 -85t-68 -86.5t-73.5 -78t-76 -60q31 -3 65 -5t67 -2.5t63.5 2t53.5 9.5q12 4 14 0t-3 -15q-9 -21 -33 -41.5t-54 -20.5zM326 397
q48 19 84.5 43t53.5 38q-19 4 -46 12q-43 12 -80 10.5t-65.5 -11t-48.5 -25.5t-29 -32.5t-7 -31t17.5 -21t45.5 -3.5t75 21zM500 619q-7 -6 -17 -14.5t-20 -16.5t-19 -16t-14 -13q-13 -11 -21 -11t-16 11l-20 27.5t-23 33.5q-6 8 -4.5 13.5t6.5 8t11.5 0t12.5 -9.5
q5 -8 11.5 -16.5t11.5 -16.5l12 -18q13 10 25 20q11 8 22.5 17t19.5 15q9 6 16 7t10.5 -1.5t3 -8t-7.5 -11.5z" />
    <glyph glyph-name="zcaron" unicode="&#x17e;" horiz-adv-x="277" 
d="M260 324q6 3 16 2.5t19 -3t13 -6.5t-2 -7q-17 -10 -49.5 -37t-69.5 -62.5t-74.5 -74.5t-64.5 -73q21 13 40.5 12.5t37.5 -6.5t34 -13t30 -7t27.5 10t25 24t20.5 28.5t14 23.5q9 16 18 13.5t-1 -21.5q-9 -18 -22.5 -40t-31 -41.5t-37 -32.5t-40.5 -13q-18 0 -38 8t-39 15
t-37 8t-33 -13q-4 -4 -9.5 -6t-9.5 -1t-5 5.5t5 13.5q16 25 41.5 61t51.5 71t49.5 65.5t35.5 45.5q-29 -8 -49.5 -10.5t-31.5 -2.5q-10 -17 -21.5 -37.5t-22.5 -39t-20 -34t-13 -22.5q-13 -23 -22 -19t5 27l71 126q-17 4 -18 20.5t8 33.5t24.5 31t29.5 14q12 0 16 -7
t1.5 -18.5t-9 -25.5t-15.5 -28q36 0 74.5 13t77.5 30zM306 492q-7 -6 -17 -14.5t-20 -16.5t-19 -16t-14 -13q-13 -11 -21 -11t-16 11l-20 27.5t-23 33.5q-6 8 -4.5 13.5t6.5 8t11.5 0t12.5 -9.5q5 -8 11.5 -16.5t11.5 -16.5l12 -18q13 10 25 20q11 8 22.5 17t19.5 15
q9 6 16 7t10.5 -1.5t3 -8t-7.5 -11.5z" />
    <glyph glyph-name="equal" unicode="=" horiz-adv-x="299" 
d="M214 144q9 0 11.5 -6t0 -13t-8 -13t-13.5 -6h-157q-9 0 -12 6t-0.5 13t8.5 13t14 6h157zM240 208q9 0 11.5 -6t0 -13t-8 -13t-13.5 -6h-157q-9 0 -12 6t-0.5 13t8.5 13t14 6h157z" />
    <glyph glyph-name="numbersign.001" horiz-adv-x="314" 
d="M226 229h24q9 0 11.5 -4.5t1 -9.5t-7 -9.5t-13.5 -4.5h-26q-7 -20 -13.5 -41t-13.5 -40h21q9 0 11.5 -4.5t1 -9.5t-7 -9.5t-13.5 -4.5h-23l-26 -73q-4 -9 -10.5 -13t-11.5 -4t-7.5 4.5t0.5 12.5q2 7 9.5 26.5t16.5 46.5h-43l-26 -73q-4 -9 -10.5 -13t-11.5 -4t-7.5 4.5
t0.5 12.5q2 7 9.5 26.5t16.5 46.5h-24q-9 0 -12 4.5t-1 9.5t7.5 9.5t13.5 4.5h26l28 81h-22q-9 0 -12 4.5t-1 9.5t7.5 9.5t13.5 4.5h23l21 63q3 11 10 17.5t13 7t9 -3.5t0 -14l-24 -70h43l21 63q3 11 10 17.5t13 7t9 -3.5t0 -14zM188 201h-44q-7 -20 -13.5 -41t-13.5 -40h43
z" />
    <glyph glyph-name="parenleft" unicode="(" 
d="M325 494q22 7 23.5 -3t-17.5 -20q-35 -19 -69 -58t-63 -88t-51 -104t-32.5 -106.5t-8 -96t22.5 -71.5q13 -19 5 -28t-27 11q-49 51 -65 108t-7.5 114.5t37 111.5t69 99.5t88.5 79.5t95 51z" />
    <glyph glyph-name="parenright" unicode=")" 
d="M-56 -88q-11 -4 -17 -2.5t-6.5 5.5t4 9.5t13.5 10.5q35 19 69 58t63 88t51 104t32.5 106.5t8 95.5t-22.5 72q-7 9 -8 17t2.5 11t11 1t16.5 -12q49 -51 65 -108t7.5 -114.5t-37 -111.5t-69 -99.5t-88.5 -79.5t-95 -51z" />
    <glyph glyph-name="bracketright" unicode="]" 
d="M-97 -54q-11 4 -15 9.5t-1.5 10t9 5.5t16.5 -3q7 -3 18 -5.5t22.5 -3.5t21 0.5t14.5 6.5q9 8 28 40.5t42 77.5t46.5 96t41 96.5t27 79t3.5 44.5q-4 7 -22.5 11t-41.5 2q-12 -2 -19 1t-8.5 7.5t4 9.5t18.5 9q17 5 45 4t56 -13q26 -11 30.5 -51.5t-6.5 -95t-35.5 -115.5
t-57 -113.5t-70.5 -88t-76 -39.5q-23 -2 -43 4t-47 14z" />
    <glyph glyph-name="bracketleft" unicode="[" 
d="M337 426q11 -4 15 -9.5t1.5 -10t-9 -6t-16.5 3.5q-8 3 -18.5 5.5t-22 3.5t-21 -1t-14.5 -6q-9 -8 -28 -40.5t-42 -77.5t-46.5 -96t-41 -96.5t-27 -79.5t-3.5 -44q4 -7 22.5 -11t41.5 -2q12 1 19 -1.5t8.5 -7t-4 -9.5t-18.5 -9q-17 -5 -45 -4t-56 13q-26 11 -30.5 51.5
t6.5 95t35.5 115.5t57 113.5t70.5 88t76 39.5q23 2 43 -4t47 -14z" />
    <glyph glyph-name="braceleft" unicode="{" 
d="M294 494q22 7 23.5 -3t-17.5 -20q-17 -9 -31 -31t-26 -49.5t-23 -56.5t-23.5 -53t-27 -39.5t-33.5 -15.5q15 0 15 -17t-7.5 -43t-19 -58.5t-20.5 -63.5t-12 -57t7 -40q14 -19 7.5 -25.5t-29.5 8.5q-33 22 -43.5 52.5t-7.5 63t13.5 64.5t19.5 57.5t10.5 41t-13.5 15.5
q-12 0 -8 10t18 10q13 0 22 14t19 36.5t23 50.5t34 56t52.5 52.5t77.5 40.5z" />
    <glyph glyph-name="braceright" unicode="}" 
d="M-25 -80q-11 -4 -17 -2.5t-6.5 5.5t4 9.5t13.5 10.5q17 9 31 31t26 49.5t23 56.5t23.5 53t27 39.5t33.5 15.5q-15 0 -15 17t7.5 43t19 58.5t20.5 63.5t12 57t-7 40q-14 19 -7.5 25.5t29.5 -8.5q33 -22 43.5 -52.5t7.5 -63t-13.5 -64.5t-19.5 -57.5t-10.5 -41t13.5 -15.5
q12 0 8 -10t-18 -10q-13 0 -22 -14t-19 -36.5t-23 -50.5t-34 -56t-52.5 -52.5t-77.5 -40.5z" />
    <glyph glyph-name="asciitilde" unicode="~" horiz-adv-x="278" 
d="M229 169q10 -14 12.5 -23.5t-0.5 -13t-9 -1t-13 14.5q-5 8 -15.5 7t-25 -6t-31.5 -10t-35 -6t-35 6t-32 27q-9 12 -10.5 20.5t1 12.5t8.5 1.5t12 -12.5q6 -11 26.5 -5.5t46.5 11.5t53 4.5t47 -27.5z" />
    <glyph glyph-name="underscore" unicode="_" horiz-adv-x="258" 
d="M187 -17q9 0 11.5 -6t0 -13t-8 -13t-13.5 -6h-188q-9 0 -12 6t-0.5 13t8.5 13t14 6h188z" />
    <glyph glyph-name="eth" unicode="&#xf0;" horiz-adv-x="296" 
d="M296 135q11 16 19 12.5t-1 -20.5q-5 -9 -18.5 -29t-38 -41t-61.5 -38t-88 -19q-8 -1 -17 -1.5t-19 1.5q-35 5 -52.5 25.5t-21.5 50t3 64t22.5 67.5t38 61t47.5 43.5t51.5 15t51.5 -23.5q2 17 1.5 40t-3.5 47l-40 -21q-9 -4 -13.5 0.5t-5 12t3 15.5t11.5 12l37 19
q-5 21 -13.5 39.5t-19.5 32.5q-11 13 -5.5 20t19.5 -5q31 -29 49 -72l72 36q8 4 12.5 -0.5t5 -12t-3 -15.5t-10.5 -11l-63 -32q14 -46 16.5 -99t-5.5 -103.5t-27 -94.5t-48 -72q31 12 60.5 36.5t53.5 59.5zM191 212q12 46 9.5 65t-14 18t-29.5 -19t-37 -44.5t-36 -58
t-27 -61.5t-10 -54t15 -35q12 -8 30 7.5t37 44t36 65.5t26 72z" />
    <glyph glyph-name="asterisk" unicode="*" horiz-adv-x="270" 
d="M205 329h53q9 0 11.5 -6t0 -13t-8 -13t-13.5 -6h-58q7 -15 13.5 -27.5t12.5 -20.5q5 -7 1.5 -11.5t-11 -6t-16 1t-12.5 8.5q-5 7 -10.5 18t-13.5 25l-40 -42q-6 -6 -14.5 -6.5t-15 2.5t-9 8.5t3.5 11.5l38 39h-50q-9 0 -12 6t-0.5 13t8.5 13t14 6h51q-7 14 -13 25t-11 19
q-5 7 -1.5 11.5t11 6t15.5 -1t12 -8.5q14 -21 24 -40l41 41q6 6 14.5 6t14.5 -3t8.5 -8.5t-2.5 -10.5z" />
    <glyph glyph-name="Scaron" unicode="&#x160;" horiz-adv-x="341" 
d="M134 204q-12 1 -28.5 -7t-30 -22.5t-21 -34.5t-2.5 -44q6 -30 23 -48.5t37 -22.5t40 7t32 39t13 73.5t-17 111.5q-23 85 -20 141.5t21.5 88.5t48.5 42t59.5 3t54.5 -29.5t35 -54.5q4 -15 4 -34.5t-6 -37.5t-19.5 -31t-34.5 -14q-21 -2 -29.5 9.5t-9 25.5t4.5 26t10 12
t12 5t12.5 13.5t8 20t-0.5 24.5q-4 14 -16 26.5t-26.5 16t-28 -4t-20.5 -32t-3.5 -69.5t23.5 -115q24 -86 17.5 -144.5t-30.5 -93t-60.5 -46.5t-72.5 -4.5t-65.5 32.5t-39.5 64q-9 34 -4.5 65t18 55t34.5 40t46 21q20 4 30 -7.5t12.5 -26t-1 -27.5t-10.5 -12zM424 631
q-7 -6 -17 -14.5t-20 -16.5t-19 -16t-14 -13q-13 -11 -21 -11t-16 11l-20 27.5t-23 33.5q-6 8 -4.5 13.5t6.5 8t11.5 0t12.5 -9.5q5 -8 11.5 -16.5t11.5 -16.5l12 -18q13 10 25 20q11 8 22.5 17t19.5 15q9 6 16 7t10.5 -1.5t3 -8t-7.5 -11.5z" />
    <glyph glyph-name="question" unicode="?" horiz-adv-x="210" 
d="M76 198q15 22 31.5 44t33.5 46t33 50.5t28 57.5q10 25 12.5 45.5t-0.5 35t-11 21t-19 3.5q-18 -5 -32 -24t-20 -43t-2.5 -49t18.5 -42q4 -5 -1.5 -13t-16.5 -14t-24 -7.5t-23 7.5q-19 17 -15.5 50.5t21.5 67.5t47.5 59.5t62.5 27.5q21 1 38.5 -10.5t27 -32t9 -48.5
t-13.5 -60q-15 -38 -34 -59t-40.5 -39t-44 -39.5t-45.5 -58.5q-5 -8 -11 -8.5t-10 3.5t-4.5 12t5.5 17zM-4 40q0 17 11 28.5t28 11.5t28.5 -11.5t11.5 -28.5t-11.5 -28.5t-28.5 -11.5t-28 11.5t-11 28.5z" />
    <glyph glyph-name="at" unicode="@" horiz-adv-x="481" 
d="M436 127l-2 -4q-10 -20 -28 -42t-39 -40t-43.5 -29.5t-41.5 -11.5q-25 0 -31 16.5t-2 39.5q-26 -27 -52 -42.5t-49 -15.5q-21 0 -33 13.5t-16 36t1.5 52.5t20.5 64t36 64t44.5 52.5t47 35.5t44.5 13q27 0 40 -24l1 1q5 11 16.5 16t22.5 5t18 -5.5t3 -15.5
q-5 -11 -14.5 -37t-20 -56t-19.5 -58t-13 -41t-7.5 -24.5t-4.5 -19.5t2.5 -13t12.5 -5q19 0 43.5 24t44.5 59q26 54 34.5 105.5t1 95.5t-29.5 76.5t-57 48.5q-38 16 -81.5 9t-85.5 -33.5t-79.5 -70.5t-63.5 -101q-25 -57 -30.5 -114t5 -105t36.5 -84.5t65 -53.5
q38 -17 79.5 -7t83.5 33q10 6 17.5 6t9.5 -4t-2 -11t-15 -15q-44 -31 -93.5 -35.5t-93.5 15.5q-44 19 -72 59t-39.5 92.5t-4.5 113.5t34 122t67.5 108t86.5 74.5t94.5 34t92.5 -12.5q41 -18 66 -54.5t33 -84t-2 -103t-39 -112.5zM265 108q17 48 32 94t26 76q-8 24 -29 26
q-14 0 -30 -9.5t-32 -26t-30 -39t-24 -48.5q-21 -52 -16.5 -89t31.5 -38q15 -1 32.5 10.5t34.5 31.5z" />
    <glyph glyph-name="Euro" unicode="&#x20ac;" horiz-adv-x="251" 
d="M198 372q30 6 49 -3.5t28 -26t9.5 -38.5t-6.5 -41.5t-21 -34t-32 -16.5q-20 -3 -32 4.5t-17 18t-3 19.5t10 9q13 -1 28 12.5t22.5 29t3.5 28t-29 10.5q-38 -8 -75.5 -44.5t-57.5 -90.5h84q9 0 11.5 -6t0 -13t-8 -13t-13.5 -6h-85q-1 -7 -2 -13.5t-1 -12.5h72q9 0 11.5 -6
t0 -13t-8 -13t-13.5 -6h-62q5 -38 23.5 -57.5t49.5 -14.5q23 5 45 24.5t48 57.5q12 17 22 12.5t-1 -24.5q-12 -22 -29.5 -43t-37.5 -38.5t-41.5 -29t-40.5 -15.5q-29 -6 -50 4t-33 32.5t-14 56.5t8 75t30 79.5t45.5 69.5t54.5 51.5t58 25.5z" />
    <glyph glyph-name="sterling" unicode="&#xa3;" horiz-adv-x="363" 
d="M62 35q11 14 20.5 36t19.5 48h-16q-9 0 -12 6t-0.5 13t8.5 13t14 6h21q14 33 31 67t40 63t53.5 50t71.5 28q33 6 54 -4.5t31 -29t10.5 -42t-7 -45t-22.5 -37t-35 -18.5q-22 -3 -35.5 5.5t-19 20t-3 21t11.5 9.5q9 -1 19 7t18 19.5t13 24.5t3.5 23.5t-9.5 16t-26 1.5
q-28 -6 -45.5 -23t-30 -41.5t-23.5 -54.5t-26 -61h17q9 0 11.5 -6t0 -13t-8 -13t-13.5 -6h-27q-14 -25 -34 -48t-47 -43q23 -6 50 -9.5t54.5 -3t53.5 5t46 14.5q9 4 10.5 1.5t-0.5 -12.5q-5 -19 -21.5 -39t-42.5 -24q-17 -3 -39 1.5t-45.5 13t-47 18t-43.5 17.5
q-7 -3 -14 -5.5t-15 -3.5q-19 -3 -28.5 1t-10 10.5t8.5 13.5t27 10q10 1 29 -2z" />
    <glyph glyph-name="florin" unicode="&#x192;" horiz-adv-x="129" 
d="M130 344q-8 -25 -22.5 -66.5t-31 -90t-33.5 -99t-32 -93t-25.5 -72t-13.5 -36.5q-4 -8 -15 -12t-22.5 -4t-18.5 4t-4 12q3 6 14 37.5t26.5 76t33.5 96.5t35 100.5t30.5 88t19.5 58.5h-41q-5 0 -6 4t1 9t6 9t9 4h35q-2 22 4 45t20.5 42.5t36 33.5t51.5 19q26 4 43.5 -5
t24 -24.5t1 -33.5t-26.5 -33q-11 -8 -25.5 -9t-26.5 1.5t-17.5 7t2.5 8.5q19 8 30.5 20t15 23t-0.5 19t-16 8q-17 0 -31 -12.5t-21.5 -30.5t-8 -39.5t10.5 -39.5h52q5 0 6 -4t-1 -9t-6 -9t-9 -4h-53z" />
    <glyph glyph-name="dagger" unicode="&#x2020;" horiz-adv-x="202" 
d="M161 405l36 109q3 11 10 17.5t13 7t9 -3.5t0 -14l-40 -116h39q9 0 11.5 -6t0 -13t-8 -13t-13.5 -6h-42l-34.5 -103.5t-37 -110.5t-36 -106.5t-31 -92.5t-23 -67.5t-11.5 -31.5q-4 -9 -10.5 -13t-11.5 -4t-7.5 4.5t0.5 12.5q2 5 11.5 31.5t23.5 68t31.5 93t36 107
t37 110.5t34.5 102h-42q-9 0 -12 6t-0.5 13t8.5 13t14 6h45z" />
    <glyph glyph-name="daggerdbl" unicode="&#x2021;" horiz-adv-x="202" 
d="M161 405l36 109q3 11 10 17.5t13 7t9 -3.5t0 -14l-40 -116h39q9 0 11.5 -6t0 -13t-8 -13t-13.5 -6h-42q-13 -39 -27 -82t-29 -87.5t-30 -88t-28 -82.5h38q9 0 11.5 -6t0 -13t-8 -13t-13.5 -6h-41q-18 -54 -30.5 -90.5t-15.5 -43.5q-4 -9 -10.5 -13t-11.5 -4t-7.5 4.5
t0.5 12.5q2 6 15 42.5t31 91.5h-42q-9 0 -12 6t-0.5 13t8.5 13t14 6h45l115 340h-42q-9 0 -12 6t-0.5 13t8.5 13t14 6h45z" />
    <glyph glyph-name="OE" unicode="&#x152;" horiz-adv-x="521" 
d="M491 522q40 3 65.5 -11t37.5 -36t12.5 -49.5t-9 -51.5t-27.5 -42t-42 -21q-27 -4 -43 6.5t-22.5 24t-4 25t13.5 11.5q11 -1 23.5 8.5t23 23.5t17 30t6 29.5t-10.5 22.5t-32 8q-32 -2 -57 -27t-39.5 -59t-14.5 -67.5t20 -51.5q6 -6 6.5 -11t-10.5 -7q-24 -6 -42 -22
t-28.5 -37.5t-13.5 -45t3 -44t22 -35t42 -17.5q34 -3 73 20t74 74q7 11 14.5 17t11.5 6.5t4 -5.5t-7 -19q-16 -29 -39 -56.5t-49.5 -50t-54.5 -38t-53 -21.5q-42 -10 -73 9t-46 54q-26 -25 -54 -41.5t-55 -21.5q-38 -8 -66 5t-44 43t-18.5 74.5t11.5 98.5q13 54 39.5 104.5
t60 91t71.5 67.5t76 35t66.5 -6t44.5 -46q19 21 48 35t69 17zM159 87q35 5 71 31q0 14 1 27.5t6 27.5q9 31 25.5 53.5t35.5 36.5t38.5 21t35.5 7q-16 13 -25 31.5t-11 40.5t3.5 44.5t18.5 42.5q-11 28 -31 42.5t-49 10.5q-29 -3 -58.5 -22.5t-56 -50t-48.5 -70t-34 -82.5
t-12 -79.5t10.5 -62.5t30.5 -39t49 -10z" />
    <glyph glyph-name="oe" unicode="&#x153;" horiz-adv-x="414" 
d="M414 135q12 17 19 13t-2 -21q-11 -22 -28.5 -44.5t-40 -40.5t-49 -29t-56.5 -11t-55 16.5t-35 48.5q-21 -26 -45 -43t-48 -22t-41.5 3t-27.5 27t-11.5 46.5t7.5 61.5q8 34 24.5 65.5t37.5 56.5t44.5 42.5t47.5 22.5q29 6 49.5 -9t27.5 -45q38 41 81 53q39 10 62 -5.5
t19 -47t-41.5 -75t-119.5 -90.5q11 -29 35 -41.5t52 -7.5q33 7 53.5 27.5t40.5 48.5zM103 69q14 2 29 12.5t29 27.5q0 7 1 14.5t3 15.5q5 27 16.5 54.5t28.5 50.5q-1 25 -13 42.5t-32 17.5q-18 -2 -34.5 -13.5t-31 -29t-25.5 -40t-17 -46.5t-5.5 -44.5t7 -35t18 -21.5
t26.5 -5zM227 179q-5 -29 0 -51q59 33 83 66.5t26 58.5t-12 37t-31 3q-28 -14 -44 -46.5t-22 -67.5z" />
    <glyph glyph-name="scaron" unicode="&#x161;" horiz-adv-x="224" 
d="M101 319q9 7 21.5 9t22 0.5t13 -5t-4.5 -8.5q-13 -8 -15.5 -18.5t0.5 -24.5t10 -31.5t13 -37.5q11 -39 9.5 -78.5t-18.5 -69.5q38 28 72 80q11 16 19 12.5t-1 -20.5q-4 -8 -15.5 -25t-30.5 -36t-46 -36t-63 -25q-20 -5 -42 -5q-30 0 -48.5 14t-26 35t-5.5 45t12.5 45
t28.5 35t42 14q12 0 18 -10t7 -22t-2 -21.5t-8 -9.5q-26 0 -41 -16t-18 -35.5t7 -35.5t34 -16q21 0 35 15.5t20 39t5.5 52.5t-7.5 56q-6 24 -12.5 43.5t-8.5 36t3 30t21 24.5zM242 485q-7 -6 -17 -14.5t-20 -16.5t-19 -16t-14 -13q-13 -11 -21 -11t-16 11l-20 27.5t-23 33.5
q-6 8 -4.5 13.5t6.5 8t11.5 0t12.5 -9.5q5 -8 11.5 -16.5t11.5 -16.5l12 -18q13 10 25 20q11 8 22.5 17t19.5 15q9 6 16 7t10.5 -1.5t3 -8t-7.5 -11.5z" />
    <glyph glyph-name="trademark" unicode="&#x2122;" horiz-adv-x="440" 
d="M251 223q11 0 21.5 11t20.5 28.5t20 39t20 42.5q-12 -14 -28 -24t-34 -10q-24 0 -28.5 18t10 39.5t48.5 39.5t88 18h2q11 0 13 -2.5t-1 -13.5q-2 -6 -10 -33t-17 -56.5t-15 -53.5t-2 -24t16.5 23.5t28 54.5t32 59.5t28.5 39.5q2 3 6.5 4.5t8.5 1.5t6.5 -2t1.5 -6
q-2 -5 -9.5 -28t-17 -50t-17.5 -50.5t-9 -28.5q-3 -11 -4.5 -18t5.5 -7q8 0 18 9.5t18 23.5q4 8 7 6.5t0 -9.5q-4 -8 -11 -16.5t-15.5 -16t-18 -12.5t-16.5 -5q-8 0 -11 4t-3 10.5t2 14t4 14.5q3 9 8.5 25t11.5 34t12.5 37t11.5 34q-11 -20 -25.5 -49.5t-29.5 -57t-29 -47.5
t-23 -20q-11 0 -13 12.5t1.5 31.5t10 42t13 44t11.5 37t5 22q-12 -18 -25 -50t-28 -63t-32.5 -53.5t-36.5 -22.5q-18 0 -25.5 8t-8 18t5.5 19t17 10q7 1 10.5 -2.5t4 -8.5t-0.5 -9.5t-4 -4.5q-5 0 -8.5 -3.5t-3.5 -7t2.5 -7t9.5 -3.5zM110 220q12 0 24.5 15.5t25 38.5t26 50
t27.5 50q-19 -15 -46.5 -27.5t-56.5 -3.5q-22 7 -26 25.5t9 35.5t42 25t73 -6q11 -4 21 -5.5t17 -2.5q16 13 33 13q17 -2 22 -7t1 -10q-9 -14 -50 -8q-10 -16 -23.5 -48t-31 -63.5t-39.5 -55t-47 -23.5q-18 0 -26.5 8t-10 18t3.5 19t16 10q7 1 11 -3t4.5 -9t-1 -9t-4.5 -4
q-5 0 -7.5 -3.5t-1.5 -8t4.5 -8t10.5 -3.5zM125 354q13 -4 28 -0.5t29.5 11t26.5 16.5t19 15l8 10q-16 3 -32 9q-26 8 -48 1.5t-34 -19t-12.5 -25.5t15.5 -18zM350 379q8 14 15 24.5t15 15.5q-32 -2 -56.5 -17.5t-38.5 -33t-16.5 -31.5t10.5 -14q11 0 21.5 6t20 15t17 18.5
t12.5 16.5z" />
    <glyph glyph-name="Ydieresis" unicode="&#x178;" horiz-adv-x="509" 
d="M268 17q24 0 45 24.5t41.5 64.5t39.5 89.5t38 100.5q-16 -27 -33.5 -51t-35.5 -40.5t-36 -22.5t-36 4q-29 16 -32 50t10 75q-17 -19 -36.5 -36.5t-42 -31t-47 -21.5t-50.5 -8q-39 0 -61 20t-25.5 50.5t11 66t49.5 66t89.5 50.5t131.5 20q29 0 53.5 0.5t41.5 1.5
q13 15 28 25.5t29 12.5q23 3 33 -7.5t5 -24.5q-4 -12 -22 -18.5t-56 -8.5q-22 -18 -42.5 -48t-32 -61.5t-10.5 -59t22 -39.5q13 -8 27 -2.5t28 18t27 31t24.5 38t21 37t15.5 29.5q23 48 46.5 79.5t51.5 36.5q6 2 8 -1t-2 -8q-13 -17 -28 -62.5t-34.5 -103t-43.5 -120
t-54.5 -115t-68.5 -86t-85 -33.5q-44 0 -66 20.5t-26 46t9 47.5t39 25q19 2 28 -7.5t11.5 -22t-1.5 -23.5t-11 -11q-14 0 -19.5 -9t-3.5 -19.5t11.5 -19t26.5 -8.5zM121 252q27 0 53 13t50 33.5t45 44.5t37 46q13 22 28 41.5t30 35.5q-17 -1 -36.5 -1h-42.5q-46 0 -84 -16
t-65.5 -39.5t-44 -51t-19.5 -51t9 -39.5t40 -16zM418 596q0 17 11 28.5t28 11.5t28.5 -11.5t11.5 -28.5t-11.5 -28.5t-28.5 -11.5t-28 11.5t-11 28.5zM514 596q0 17 11 28.5t28 11.5t28.5 -11.5t11.5 -28.5t-11.5 -28.5t-28.5 -11.5t-28 11.5t-11 28.5z" />
    <glyph glyph-name="bullet" unicode="&#x2022;" horiz-adv-x="312" 
d="M93 158q0 26 19 45t45 19t45 -19t19 -45t-19 -45t-45 -19t-45 19t-19 45z" />
    <glyph glyph-name="questiondown" unicode="&#xbf;" horiz-adv-x="261" 
d="M213 261q-15 -22 -31.5 -44t-33.5 -46t-33 -50.5t-28 -57.5q-10 -25 -12.5 -45.5t0.5 -35t11 -21t19 -3.5q18 5 32 24t20 43t2.5 49t-18.5 42q-5 5 1 13t17 14t24 7.5t23 -7.5q12 -11 14.5 -30.5t-3 -42t-17.5 -45.5t-29 -42t-38 -31.5t-43 -13.5q-21 -1 -38.5 10.5
t-27 32t-9.5 48.5t14 60q15 37 34 58.5t40.5 39.5t44 39.5t45.5 58.5q5 8 11 8.5t10 -3.5t4.5 -12t-5.5 -17zM293 419q0 -17 -11 -28.5t-28 -11.5t-28.5 11.5t-11.5 28.5t11.5 28.5t28.5 11.5t28 -11.5t11 -28.5z" />
    <glyph glyph-name="exclamdown" unicode="&#xa1;" horiz-adv-x="194" 
d="M20 -43q7 21 18 50.5t23.5 62.5t25.5 66.5t24 62t19.5 49.5t11.5 28q5 11 12.5 16t13.5 5t8.5 -5.5t-1.5 -15.5q-3 -7 -10 -30.5t-16.5 -55t-20 -67.5t-19.5 -68.5t-16.5 -57t-9.5 -33.5q-3 -11 -14.5 -17.5t-23.5 -7t-20 3.5t-5 14zM248 420q0 -17 -11 -28.5t-28 -11.5
t-28.5 11.5t-11.5 28.5t11.5 28.5t28.5 11.5t28 -11.5t11 -28.5z" />
    <glyph glyph-name="cent" unicode="&#xa2;" 
d="M193 380q-4 -10 -8 -23.5t-9 -30.5q24 -4 37.5 -23.5t13.5 -45t-13 -53t-41 -47.5q-10 -8 -22.5 -10.5t-24.5 -1.5l-22 -81q22 -11 51 -5q33 7 56 29t38 47q6 9 11.5 12t9 1.5t3.5 -7.5t-5 -14q-14 -24 -32 -46.5t-39.5 -40t-47.5 -28t-55 -10.5h-7q-5 -17 -8.5 -28.5
t-5.5 -16.5q-4 -9 -10.5 -13t-11.5 -4t-7.5 4.5t0.5 12.5l15 51q-32 12 -50.5 45t-8.5 86q6 31 20 61.5t33.5 56.5t43.5 44t51 24l13 48q3 11 10 17.5t13 7t9 -3.5t0 -14zM62 174q-8 -56 19 -91l19 68q-12 5 -2 14l8 7l36 132q-26 -8 -50 -42t-30 -88zM144 214q23 30 31 55
t-6 33z" />
    <glyph glyph-name="copyright.001" horiz-adv-x="833" 
 />
    <glyph glyph-name="copyright" unicode="&#xa9;" horiz-adv-x="472" 
d="M333 135q6 9 11.5 12t9 1.5t3.5 -7.5t-5 -14q-14 -24 -32 -46.5t-39.5 -40t-47.5 -28t-55 -10.5q-22 0 -41.5 9t-33.5 26.5t-19.5 43t0.5 58.5q6 31 20.5 62t34 57t44 44.5t51.5 23.5q33 6 52.5 -11t23.5 -45t-9 -59.5t-44 -53.5q-12 -9 -28 -11t-29 0t-19.5 7.5
t1.5 11.5q27 24 46 49t27.5 45.5t5 33.5t-22.5 13q-14 0 -28.5 -9.5t-27.5 -26.5t-23 -41.5t-13 -54.5q-3 -26 1.5 -49t16.5 -39.5t30.5 -24t44.5 -2.5q33 7 56 29t38 47zM23 240q20 50 53 87.5t72.5 59.5t82.5 26.5t84 -11.5q40 -17 67.5 -50t40.5 -76.5t10.5 -93.5
t-22.5 -100t-53 -87.5t-72.5 -59.5t-83 -26.5t-83.5 11.5t-67.5 49.5t-40.5 77t-10.5 93.5t22.5 100zM45 231q-19 -46 -22 -91.5t8.5 -85t36 -69.5t60.5 -44q36 -15 74.5 -10t73.5 25t65 55t48 80q19 46 21.5 91.5t-8.5 85t-35.5 69.5t-60.5 44q-36 15 -74.5 10t-73.5 -25
t-65 -55t-48 -80z" />
    <glyph glyph-name="registered" unicode="&#xae;" horiz-adv-x="472" 
d="M23 240q20 50 53 87.5t72.5 59.5t82.5 26.5t84 -11.5q40 -17 67.5 -50t40.5 -76.5t10.5 -93.5t-22.5 -100t-53 -87.5t-72.5 -59.5t-83 -26.5t-83.5 11.5t-67.5 49.5t-40.5 77t-10.5 93.5t22.5 100zM45 231q-19 -46 -22 -91.5t8.5 -85t36 -69.5t60.5 -44q36 -15 74.5 -10
t73.5 25t65 55t48 80q19 46 21.5 91.5t-8.5 85t-35.5 69.5t-60.5 44q-36 15 -74.5 10t-73.5 -25t-65 -55t-48 -80zM327 98q11 17 18.5 13.5t-0.5 -21.5q-9 -20 -27 -42.5t-39.5 -41.5t-45 -31t-42.5 -12q-28 0 -38 17.5t-8.5 44.5t12 59.5t23.5 62.5t26 53.5t20 32.5
q-6 2 -13 6t-15 9q-7 -15 -18.5 -38l-23.5 -47l-22 -44t-15 -29q-6 -11 -12.5 -15.5t-10 -3t-3 8t7.5 18.5q5 9 15.5 29.5t22.5 45t23.5 49t19.5 40.5q-11 15 -7.5 36t15.5 38.5t28.5 27t31.5 1.5q14 -8 12.5 -22t-9.5 -28q-10 -17 -26 -35q7 -11 22 -14t28 -6t19 -8t-6 -19
q-15 -18 -32.5 -54t-28.5 -72.5t-11 -64t21 -27.5q19 0 43.5 24t44.5 59z" />
    <glyph glyph-name="ordfeminine" unicode="&#xaa;" horiz-adv-x="357" 
d="M270 538q27 0 40 -24l1 1q5 11 16.5 16t22.5 5t18 -5.5t3 -15.5q-5 -11 -14.5 -37t-20 -56t-19.5 -58t-13 -41t-7.5 -24.5t-4.5 -19.5t2.5 -13t12.5 -5q19 0 43.5 24t44.5 59q11 17 18.5 13.5t-0.5 -21.5q-9 -20 -27 -42.5t-39.5 -41.5t-45 -31t-42.5 -12q-25 0 -31 16.5
t-2 39.5q-26 -27 -52 -42.5t-49 -15.5q-21 0 -33 13.5t-16 36t1.5 52.5t20.5 64t36 64t44.5 52.5t47 35.5t44.5 13zM242 317q17 48 32 94t26 76q-8 24 -29 26q-14 0 -30 -9.5t-32 -26t-30 -39t-24 -48.5q-21 -52 -16.5 -89t31.5 -38q15 -1 32.5 10.5t34.5 31.5z" />
    <glyph glyph-name="logicalnot" unicode="&#xac;" horiz-adv-x="287" 
d="M203 129h-156q-9 0 -12 6t-0.5 13t8.5 13t14 6h180q19 0 11 -21l-29 -80q-3 -9 -10 -12.5t-13.5 -3t-11 5t-1.5 12.5z" />
    <glyph glyph-name="plusminus" unicode="&#xb1;" horiz-adv-x="351" 
d="M253 226q-7 -13 -14.5 -28l-15.5 -31h68q9 0 11.5 -6t0 -13t-8 -13t-13.5 -6h-77l-32 -65q-4 -8 -12 -11t-15 -2t-11 5.5t-1 11.5q4 8 12.5 24.5t18.5 36.5h-64q-9 0 -12 6t-0.5 13t8.5 13t14 6h73q10 20 18 36.5t13 26.5q4 8 12 11t15 2t11 -5.5t1 -11.5zM219 1
q9 0 11.5 -6t0 -13t-8 -13t-13.5 -6h-181q-9 0 -12 6t-0.5 13t8.5 13t14 6h181z" />
    <glyph glyph-name="divide" unicode="&#xf7;" horiz-adv-x="302" 
d="M209 184q9 0 11.5 -6t0 -13t-8 -13t-13.5 -6h-112q-9 0 -12 6t-0.5 13t8.5 13t14 6h112zM57 40q0 17 11 28.5t28 11.5t28.5 -11.5t11.5 -28.5t-11.5 -28.5t-28.5 -11.5t-28 11.5t-11 28.5zM148 285q0 17 11 28.5t28 11.5t28.5 -11.5t11.5 -28.5t-11.5 -28.5t-28.5 -11.5
t-28 11.5t-11 28.5z" />
    <glyph glyph-name="multiply" unicode="&#xd7;" horiz-adv-x="288" 
d="M128 245q4 -14 9.5 -30t10.5 -33l67 69q6 6 12 3.5t9.5 -9t3.5 -15t-6 -13.5l-73 -76l22 -69q3 -9 -0.5 -16.5t-9.5 -11.5t-12 -4t-9 8t-8.5 25t-11.5 37l-71 -72q-7 -7 -13 -4.5t-9 9t-3 15t6 14.5q13 13 33.5 34t43.5 45q-7 21 -12.5 40t-8.5 30q-3 9 0.5 16.5
t9.5 11.5t12 3.5t8 -7.5z" />
    <glyph glyph-name="onequarter" unicode="&#xbc;" horiz-adv-x="502" 
d="M420 216q7 6 9 6q16 11 27 14t6 -12q-7 -19 -15 -43t-17 -50.5t-18 -54t-17 -51.5q7 0 9.5 -3.5t1 -7t-6 -7t-11.5 -3.5l-25 -69q-5 -11 -17 -16t-23.5 -5t-19.5 5t-4 16q3 8 10 25.5t16 43.5h-87q-11 0 -12.5 6t12.5 23q7 8 28 31t48 51t55.5 55.5t50.5 45.5zM28 81
q-5 0 -5.5 4t1.5 9t5.5 9t8.5 4h38q4 11 13 34t20 54.5t24 69t26 77.5q5 19 3.5 21t-15.5 -5q-8 -4 -13 -3t-5.5 5t4 9t15.5 10q8 3 24.5 11t32.5 13.5t26.5 4.5t5.5 -16q-10 -30 -24.5 -73t-28.5 -85.5t-26 -77.5t-18 -49h41q5 0 6 -4t-1 -9t-6 -9t-8 -4h-144zM438 382
q-12 -18 -38.5 -57t-60 -86.5t-69.5 -98.5t-67 -94.5t-52.5 -74t-26.5 -36.5q-6 -8 -13 -10.5t-12 -1t-6.5 6t3.5 12.5q3 4 17.5 24.5t35.5 50t47.5 67t53.5 76t53.5 76t48 68t36 51.5t17.5 27q6 10 14 14.5t14 4t8.5 -5t-3.5 -13.5zM333 25q10 28 21 60.5t22 67.5
q-11 -16 -24 -34t-24 -34t-19 -27.5t-9 -14.5q-6 -11 -7.5 -14.5t5.5 -3.5h35z" />
    <glyph glyph-name="threequarters" unicode="&#xbe;" horiz-adv-x="492" 
d="M223 408q21 -5 34.5 -19.5t18 -34t-0.5 -42.5t-21 -45q-12 -17 -27.5 -22.5t-29.5 -5.5q17 -9 22 -26.5t0 -35.5q-8 -38 -36.5 -66.5t-85.5 -28.5q-46 0 -63 22.5t-12 49.5t28.5 49.5t59.5 22.5q13 0 19 -10t7 -21.5t-2 -21.5t-8 -10q-27 0 -43.5 -9t-21.5 -20t3.5 -20.5
t32.5 -9.5q18 0 34.5 18t24 40.5t4 42.5t-25.5 25q-9 2 -7 10.5t15 8.5q9 0 16.5 4.5t14 10.5t11 12.5t7.5 10.5q16 21 24.5 40t9.5 34t-5 23.5t-18 8.5q-19 0 -32.5 -10t-20 -26t-5.5 -36t11 -40q3 -6 -5 -12.5t-20 -9t-25 0t-20 13.5q-14 21 -6 48t29 48.5t51.5 33.5
t63.5 5zM420 216q7 6 9 6q16 11 27 14t6 -12q-7 -19 -15 -43t-17 -50.5t-18 -54t-17 -51.5q7 0 9.5 -3.5t1 -7t-6 -7t-11.5 -3.5l-25 -69q-5 -11 -17 -16t-23.5 -5t-19.5 5t-4 16q3 8 10 25.5t16 43.5h-87q-11 0 -12.5 6t12.5 23q7 8 28 31t48 51t55.5 55.5t50.5 45.5z
M438 382q-12 -18 -38.5 -57t-60 -86.5t-69.5 -98.5t-67 -94.5t-52.5 -74t-26.5 -36.5q-6 -8 -13 -10.5t-12 -1t-6.5 6t3.5 12.5q3 4 17.5 24.5t35.5 50t47.5 67t53.5 76t53.5 76t48 68t36 51.5t17.5 27q6 10 14 14.5t14 4t8.5 -5t-3.5 -13.5zM333 25q10 28 21 60.5t22 67.5
q-11 -16 -24 -34t-24 -34t-19 -27.5t-9 -14.5q-6 -11 -7.5 -14.5t5.5 -3.5h35z" />
    <glyph glyph-name="onehalf" unicode="&#xbd;" horiz-adv-x="551" 
d="M241 -38l10 5q9 4 15 1q13 9 38 17q-17 -9 -33.5 -20t-32.5 -26q-7 -6 -11.5 -6t-5.5 3.5t2.5 10.5t12.5 14q20 17 48 37.5t57.5 44t57.5 48.5t48 51q16 21 24.5 40t9.5 34t-4.5 23.5t-17.5 8.5q-19 0 -37.5 -14.5t-31 -36t-16 -46t6.5 -45.5q3 -6 -5 -12t-20 -9
t-25 -0.5t-20 13.5q-9 14 -6 33.5t14.5 39.5t29.5 38.5t39.5 32t45 20t45.5 1.5q21 -5 34.5 -20.5t17 -38t-4.5 -49.5t-30 -54q-19 -24 -42 -40t-47.5 -28t-50.5 -23t-52 -25q19 7 38.5 10.5t33.5 1.5q20 -4 31 -10.5t26 -6.5q11 0 22 4t22 11q14 8 18 4t-7 -16
q-18 -21 -38.5 -36t-42.5 -15q-19 0 -39.5 7.5t-41 14t-40 7.5t-36.5 -12q-8 -6 -14.5 -5.5t5.5 18.5zM28 81q-5 0 -5.5 4t1.5 9t5.5 9t8.5 4h38q4 11 13 34t20 54.5t24 69t26 77.5q5 19 3.5 21t-15.5 -5q-8 -4 -13 -3t-5.5 5t4 9t15.5 10q8 3 24.5 11t32.5 13.5t26.5 4.5
t5.5 -16q-10 -30 -24.5 -73t-28.5 -85.5t-26 -77.5t-18 -49h41q5 0 6 -4t-1 -9t-6 -9t-8 -4h-144zM438 382q-12 -18 -38.5 -57t-60 -86.5t-69.5 -98.5t-67 -94.5t-52.5 -74t-26.5 -36.5q-6 -8 -13 -10.5t-12 -1t-6.5 6t3.5 12.5q3 4 17.5 24.5t35.5 50t47.5 67t53.5 76
t53.5 76t48 68t36 51.5t17.5 27q6 10 14 14.5t14 4t8.5 -5t-3.5 -13.5z" />
    <glyph glyph-name="germandbls" unicode="&#xdf;" horiz-adv-x="324" 
d="M129 338q-8 -24 -20 -59t-25 -73t-26.5 -77t-24.5 -71.5t-19.5 -55t-11.5 -29.5q-4 -8 -15 -12t-22.5 -4t-18.5 4t-4 12q3 7 13 36t24 69t30 85.5t30 86t24 70.5l13 39q7 24 18 50.5t27 48.5t39 36.5t55 15.5q53 1 77 -23.5t23.5 -58.5t-22.5 -68.5t-60 -53.5
q-13 -8 -15 -10.5t3 -10.5t15.5 -26t24.5 -56t12.5 -77t-19.5 -69q19 14 36 33.5t34 44.5q11 16 19 12.5t-1 -20.5q-4 -8 -15.5 -25t-30 -35.5t-45.5 -36t-63 -24.5q-20 -6 -43 -6q-31 0 -49 14t-25.5 35t-5.5 45t12.5 45t28.5 35t42 14q12 0 18 -10t7 -22t-2 -21.5t-8 -9.5
q-26 0 -41 -16t-18 -35.5t7 -35.5t34 -16q21 0 35.5 15.5t21 39.5t6 52.5t-9.5 55.5q-14 42 -24 62.5t-14 31t0.5 15.5t20.5 16l2 1q24 17 43 47.5t27.5 60t4 51.5t-28.5 22q-18 0 -33.5 -16t-27.5 -39t-22 -50t-17 -49z" />
    <glyph glyph-name="mu" unicode="&#xb5;" horiz-adv-x="288" 
d="M134 108q3 9 6.5 18t6.5 19q-17 -29 -36 -55.5t-38 -46.5t-37 -31.5t-33 -11.5q-17 0 -22 22q-9 -31 -14 -59.5t-8 -51.5t-5.5 -40t-5.5 -24q-4 -9 -16.5 -12.5t-24.5 -2.5t-20.5 6t-5.5 13q4 10 18.5 43.5t32.5 75t35 81.5t25 62q15 48 45 103t73 102q10 11 20.5 9
t1.5 -12q-23 -27 -43.5 -63.5t-33 -71t-15 -60.5t10.5 -31q12 -5 29.5 9t36 39t37 58.5t33.5 68.5q5 14 9 24.5t7 17.5q5 11 17 16t23 5t17.5 -5.5t2.5 -15.5q-4 -11 -13.5 -37t-20 -56t-20 -58t-13.5 -41t-7 -24.5t-4 -19.5t2.5 -13t12.5 -5q18 0 43 24t45 59
q10 17 17.5 13.5t-0.5 -21.5q-9 -20 -26.5 -42.5t-39.5 -41.5t-45 -31t-42 -12q-20 0 -27.5 10.5t-7.5 26.5t5.5 35t11.5 36z" />
    <glyph glyph-name="mu" unicode="&#x3bc;" horiz-adv-x="288" 
d="M134 108q3 9 6.5 18t6.5 19q-17 -29 -36 -55.5t-38 -46.5t-37 -31.5t-33 -11.5q-17 0 -22 22q-9 -31 -14 -59.5t-8 -51.5t-5.5 -40t-5.5 -24q-4 -9 -16.5 -12.5t-24.5 -2.5t-20.5 6t-5.5 13q4 10 18.5 43.5t32.5 75t35 81.5t25 62q15 48 45 103t73 102q10 11 20.5 9
t1.5 -12q-23 -27 -43.5 -63.5t-33 -71t-15 -60.5t10.5 -31q12 -5 29.5 9t36 39t37 58.5t33.5 68.5q5 14 9 24.5t7 17.5q5 11 17 16t23 5t17.5 -5.5t2.5 -15.5q-4 -11 -13.5 -37t-20 -56t-20 -58t-13.5 -41t-7 -24.5t-4 -19.5t2.5 -13t12.5 -5q18 0 43 24t45 59
q10 17 17.5 13.5t-0.5 -21.5q-9 -20 -26.5 -42.5t-39.5 -41.5t-45 -31t-42 -12q-20 0 -27.5 10.5t-7.5 26.5t5.5 35t11.5 36z" />
    <glyph glyph-name="section" unicode="&#xa7;" horiz-adv-x="322" 
d="M239 125q-8 -10 -21 -15t-23 -5q9 -28 9.5 -56t-9.5 -52t-31.5 -42t-56.5 -26q-29 -7 -50 2.5t-33 28t-15.5 43t2 47t20 40t37.5 23.5q12 3 20 -5.5t11.5 -20t3 -21.5t-5.5 -11q-26 -6 -37 -25t-9.5 -38.5t15 -33t36.5 -7.5q21 5 31 23t10.5 42.5t-6.5 52.5t-20 53
q-12 21 -22.5 39t-16 33.5t-4 30t14.5 28.5q9 10 22 14.5t22 4.5q-9 28 -9.5 56t9 52t31 42t57.5 26q30 7 51 -2.5t33 -28t15.5 -43t-2 -47t-20 -40.5t-37.5 -23q-12 -3 -20 5.5t-12 20t-3 21.5t6 11q26 6 37 25t9.5 38.5t-15 33t-37.5 7.5q-21 -5 -30.5 -23t-10.5 -42.5
t6.5 -52.5t20.5 -52q12 -22 22.5 -39.5t16 -33.5t3.5 -30t-15 -28zM174 153q5 -8 9 -16.5t7 -17.5q9 10 8.5 21t-7 23.5t-16.5 27.5t-20 33q-5 8 -9 16.5t-8 17.5q-9 -10 -8.5 -21t7 -24t17 -27.5t20.5 -32.5z" />
    <glyph glyph-name="yen" unicode="&#xa5;" horiz-adv-x="509" 
d="M384 173q12 29 24 60t24 63q-16 -27 -33.5 -51t-35.5 -40.5t-36 -22.5t-36 4q-29 16 -32 50t10 75q-17 -19 -36.5 -36.5t-42 -31t-47 -21.5t-50.5 -8q-39 0 -61 20t-25.5 50.5t11 66t49.5 66t89.5 50.5t131.5 20q29 0 53.5 0.5t41.5 1.5q13 15 28 25.5t29 12.5
q23 3 33 -7.5t5 -24.5q-4 -12 -22 -18.5t-56 -8.5q-22 -18 -42.5 -48t-32 -61.5t-10.5 -59t22 -39.5q13 -8 27 -2.5t28 18t27 31t24.5 38t21 37t15.5 29.5q23 48 46.5 79.5t51.5 36.5q6 2 8 -1t-2 -8q-12 -15 -25 -52t-28.5 -85t-34.5 -102.5t-43 -105.5h12q9 0 11.5 -6
t0 -13t-8 -13t-13.5 -6h-22q-4 -7 -7 -13.5t-7 -12.5h20q9 0 11.5 -6t0 -13t-8 -13t-13.5 -6h-37q-26 -33 -56 -53t-66 -20q-44 0 -66 20.5t-26 46t9 47.5t39 25q19 2 28 -7.5t11.5 -22t-1.5 -23.5t-11 -11q-14 0 -19.5 -9t-3.5 -19.5t11.5 -19t26.5 -8.5q18 0 34.5 14
t32.5 40h-45q-9 0 -12 6t-0.5 13t8.5 13t14 6h56l12 26h-52q-9 0 -12 6t-0.5 13t8.5 13t14 6h58zM121 252q27 0 53 13t50 33.5t45 44.5t37 46q13 22 28 41.5t30 35.5q-17 -1 -36.5 -1h-42.5q-46 0 -84 -16t-65.5 -39.5t-44 -51t-19.5 -51t9 -39.5t40 -16z" />
    <glyph glyph-name="brokenbar" unicode="&#xa6;" horiz-adv-x="251" 
d="M124 168q-7 -21 -17 -50t-21 -61.5t-22.5 -65.5t-21 -60.5t-17 -48t-10.5 -27.5q-4 -9 -10.5 -13t-11.5 -4t-7.5 4.5t0.5 12.5q3 7 11 30t19 54t23.5 66.5t23 67l18.5 55.5l11 33q3 11 10 17.5t13 7t9 -3.5t0 -14zM241 521q-11 -31 -26 -77t-29.5 -91t-26.5 -80.5
t-17 -46.5q-4 -9 -10.5 -13t-11.5 -4t-7.5 4.5t0.5 12.5q3 7 10.5 28.5t17 50.5t20.5 62l21 63t17 52.5t10 31.5q3 11 10 17.5t13 7t9 -3.5t0 -14z" />
    <glyph glyph-name="currency" unicode="&#xa4;" horiz-adv-x="332" 
d="M94 159q0 23 15 43l-12 6t-8 4.5t-9 5t-14 7.5q-7 3 -10 11t-1.5 15.5t6 11.5t12.5 1q18 -9 29 -25t19 -25q17 14 42 14q24 0 42 -15q8 8 20 26t32 28q8 3 12.5 -1t6 -11.5t-1.5 -15.5t-10 -11q-10 -5 -15.5 -7.5t-9.5 -5t-9 -5t-14 -7.5q16 -19 16 -44q0 -27 -19 -48
l10 -5t7.5 -4t8.5 -4.5t14 -6.5q7 -3 10 -11t1.5 -15.5t-6 -11.5t-12.5 -1q-17 8 -28 23t-19 25q-18 -10 -36 -10q-14 0 -27 5.5t-22 14.5q-8 -8 -19.5 -25.5t-31.5 -27.5q-8 -3 -12.5 1t-6 11.5t1.5 15.5t10 11q10 4 15 7t9.5 5t9.5 5t15 8q-11 17 -11 38zM118 159
q0 -19 13 -32t32 -13t32 13t13 32t-13 32t-32 13t-32 -13t-13 -32z" />
    <glyph glyph-name="twosuperior" unicode="&#xb2;" horiz-adv-x="251" 
d="M-33 212q-2 -2 -3 -2l-9 -8q-7 -6 -11.5 -6t-5.5 3.5t2.5 10.5t12.5 14q20 17 48 37.5t57.5 44t57.5 48.5t48 51q16 21 24.5 40t9.5 34t-4.5 23.5t-17.5 8.5q-19 0 -37.5 -14.5t-31 -36t-16 -46t6.5 -45.5q3 -6 -5 -12t-20 -9t-25 -0.5t-20 13.5q-9 14 -6 33.5t14.5 39.5
t29.5 38.5t39.5 32t45 20t45.5 1.5q21 -5 34.5 -20.5t17 -38t-4.5 -49.5t-30 -54q-19 -24 -42 -40t-47.5 -28t-50.5 -23t-52 -25q19 6 38.5 10t33.5 2q20 -4 31 -10.5t26 -6.5q11 0 22 4t22 11q14 8 18 4t-7 -16q-18 -21 -38.5 -36t-42.5 -15q-19 0 -39.5 7.5t-41 14
t-40 7.5t-36.5 -12z" />
    <glyph glyph-name="threesuperior" unicode="&#xb3;" horiz-adv-x="242" 
d="M183 526q21 -5 34.5 -19.5t18 -34t-0.5 -42.5t-21 -45q-12 -17 -27.5 -22.5t-29.5 -5.5q17 -9 22 -26.5t0 -35.5q-8 -38 -36.5 -66.5t-85.5 -28.5q-46 0 -63 22.5t-12 49.5t28.5 49.5t59.5 22.5q13 0 19 -10t7 -21.5t-2 -21.5t-8 -10q-27 0 -43.5 -9t-21.5 -20t3.5 -20.5
t32.5 -9.5q18 0 34.5 18t24 40.5t4 42.5t-25.5 25q-9 2 -7 10.5t15 8.5q9 0 16.5 4.5t14 10.5t11 12.5t7.5 10.5q16 21 24.5 40t9.5 34t-5 23.5t-18 8.5q-19 0 -32.5 -10t-20 -26t-5.5 -36t11 -40q3 -6 -5 -12.5t-20 -9t-25 0t-20 13.5q-14 21 -6 48t29 48.5t51.5 33.5
t63.5 5z" />
    <glyph glyph-name="onesuperior" unicode="&#xb9;" horiz-adv-x="202" 
d="M-29 200q-5 0 -5.5 4t1.5 9t5.5 9t8.5 4h38q4 11 13 34t20 54.5t24 69t26 77.5q5 19 3.5 21t-15.5 -5q-8 -4 -13 -3t-5.5 5t4 9t15.5 10q8 3 24.5 11t32.5 13.5t26.5 4.5t5.5 -16q-10 -30 -24.5 -73t-28.5 -85.5t-26 -77.5t-18 -49h41q5 0 6 -4t-1 -9t-6 -9t-8 -4h-144z
" />
    <glyph glyph-name="ordmasculine" unicode="&#xba;" horiz-adv-x="251" 
d="M162 527q24 5 41.5 -3.5t27 -27.5t11 -46.5t-6.5 -61.5q-9 -34 -25.5 -65.5t-37.5 -56.5t-44.5 -42t-47.5 -22q-23 -5 -40.5 3t-27.5 27t-11.5 46.5t6.5 61.5q9 34 25 65.5t37 56.5t45 42.5t48 22.5zM212 398q11 49 -2 79.5t-44 26.5q-15 -2 -31 -13.5t-30 -29t-25 -40
t-17 -46.5t-5 -44.5t7 -35t17.5 -21.5t26.5 -5q15 3 31 14.5t30 29t25 39.5t17 46z" />
    <glyph glyph-name="periodcentered" unicode="&#xb7;" horiz-adv-x="220" 
d="M64 164q0 17 11 28.5t28 11.5t28.5 -11.5t11.5 -28.5t-11.5 -28.5t-28.5 -11.5t-28 11.5t-11 28.5z" />
    <glyph glyph-name="paragraph" unicode="&#xb6;" horiz-adv-x="320" 
d="M280 275q-7 -21 -19.5 -58t-27.5 -81.5t-30 -91t-28.5 -86t-23.5 -68t-13 -35.5q-4 -9 -10.5 -13t-11.5 -4t-7.5 4.5t0.5 12.5q3 7 13 37l24 72t30.5 90t30.5 91t25 76t15 44h-55l-20.5 -61.5l-27 -81t-29 -88t-27.5 -82t-22 -64t-12 -33.5q-4 -9 -10.5 -13t-11.5 -4
t-7.5 4.5t0.5 12.5q3 7 14 39.5t26.5 77.5t32.5 95.5t32 94.5h-1q-18 0 -27.5 9.5t-12 24t1.5 31.5t14.5 31.5t25.5 24t35 9.5h107l1 -1q10 -2 6 -16z" />
    <glyph glyph-name="Agrave" unicode="&#xc0;" horiz-adv-x="512" 
d="M531 528q2 0 3 -0.5t3 -0.5q9 -2 15 -7t2 -14q-3 -7 -13.5 -36.5t-24.5 -70t-29.5 -87t-29.5 -87.5t-24 -71.5t-12 -39.5q-4 -13 -7.5 -24.5t-4 -19.5t2.5 -13t12 -5q19 0 43.5 24t44.5 59q11 17 18.5 13.5t-0.5 -21.5q-9 -20 -27 -42.5t-39.5 -41.5t-44.5 -31t-42 -12
q-20 0 -27.5 10.5t-7.5 26.5t5.5 35t11.5 36q4 12 10 29t13 38h-93q-20 -36 -42 -68.5t-45.5 -56.5t-49.5 -38t-55 -14q-45 0 -67 20.5t-26 46t9.5 47.5t39.5 25q19 2 28 -7.5t11 -22t-2 -23.5t-11 -11q-13 0 -19 -9t-4 -19.5t11.5 -19t27.5 -8.5q16 0 32 12.5t32 33.5
t32.5 50t33.5 62q-55 3 -83 30.5t-29.5 67t23.5 84t77.5 83t131.5 63.5t186 25zM236 197q22 44 46 90.5t51 88.5t57 76.5t65 54.5q-61 -11 -110.5 -37.5t-85 -60t-56.5 -69.5t-25.5 -67t9.5 -52t49 -24zM389 197q14 43 30.5 92t31 93t26 77t16.5 44q-25 -14 -48.5 -46
t-46.5 -74t-47 -90.5t-49 -95.5h87zM586 573q11 -9 5.5 -12.5t-20.5 -2.5t-36 4.5t-41 8.5t-36 10t-20 8q-8 6 -14 16.5t-9 21t-2.5 18.5t5.5 10q5 1 28.5 -8.5t51.5 -23.5t53.5 -28.5t34.5 -21.5z" />
    <glyph glyph-name="Aacute" unicode="&#xc1;" horiz-adv-x="512" 
d="M531 528q2 0 3 -0.5t3 -0.5q9 -2 15 -7t2 -14q-3 -7 -13.5 -36.5t-24.5 -70t-29.5 -87t-29.5 -87.5t-24 -71.5t-12 -39.5q-4 -13 -7.5 -24.5t-4 -19.5t2.5 -13t12 -5q19 0 43.5 24t44.5 59q11 17 18.5 13.5t-0.5 -21.5q-9 -20 -27 -42.5t-39.5 -41.5t-44.5 -31t-42 -12
q-20 0 -27.5 10.5t-7.5 26.5t5.5 35t11.5 36q4 12 10 29t13 38h-93q-20 -36 -42 -68.5t-45.5 -56.5t-49.5 -38t-55 -14q-45 0 -67 20.5t-26 46t9.5 47.5t39.5 25q19 2 28 -7.5t11 -22t-2 -23.5t-11 -11q-13 0 -19 -9t-4 -19.5t11.5 -19t27.5 -8.5q16 0 32 12.5t32 33.5
t32.5 50t33.5 62q-55 3 -83 30.5t-29.5 67t23.5 84t77.5 83t131.5 63.5t186 25zM236 197q22 44 46 90.5t51 88.5t57 76.5t65 54.5q-61 -11 -110.5 -37.5t-85 -60t-56.5 -69.5t-25.5 -67t9.5 -52t49 -24zM389 197q14 43 30.5 92t31 93t26 77t16.5 44q-25 -14 -48.5 -46
t-46.5 -74t-47 -90.5t-49 -95.5h87zM460 575q9 7 34.5 21.5t53.5 28.5t51.5 23.5t28.5 8.5q5 -2 5.5 -10t-2.5 -18.5t-9.5 -21t-13.5 -16.5q-4 -3 -20 -8t-36 -10t-41 -8.5t-36 -4.5t-20.5 2.5t5.5 12.5z" />
    <glyph glyph-name="Acircumflex" unicode="&#xc2;" horiz-adv-x="512" 
d="M532 528q2 0 3 -0.5t3 -0.5q9 -2 14.5 -7t1.5 -14q-3 -7 -13.5 -36.5t-24.5 -70t-29.5 -87t-29.5 -87.5t-24 -71.5t-12 -39.5q-4 -13 -7.5 -24.5t-4 -19.5t2.5 -13t12 -5q19 0 43.5 24t44.5 59q11 17 18.5 13.5t-0.5 -21.5q-9 -20 -27 -42.5t-39.5 -41.5t-44.5 -31
t-42 -12q-20 0 -27.5 10.5t-7.5 26.5t5.5 35t11.5 36q4 12 10 29t13 38h-93q-20 -36 -42 -68.5t-45.5 -56.5t-49.5 -38t-55 -14q-45 0 -67 20.5t-26 46t9.5 47.5t39.5 25q19 2 28 -7.5t11 -22t-2 -23.5t-11 -11q-13 0 -19 -9t-4 -19.5t11.5 -19t27.5 -8.5q16 0 32 12.5
t32 33.5t32.5 50t33.5 62q-55 3 -83 30.5t-29.5 67t23.5 84t77.5 83t131.5 63.5t186 25h1zM236 197q22 44 46 90.5t51 88.5t57 76.5t65 54.5q-61 -11 -110.5 -37.5t-85 -60t-56.5 -69.5t-25.5 -67t9.5 -52t49 -24zM389 197q14 43 30.5 92t31 93t26 77t16.5 44
q-25 -14 -48.5 -46t-46.5 -74t-47 -90.5t-49 -95.5h87zM440 579q7 6 17 14.5t20 16.5t19 16t14 13q13 11 21 11t16 -11l20 -27.5t23 -33.5q6 -8 4.5 -13.5t-6.5 -8t-11.5 -0.5t-12.5 10q-5 8 -11.5 16.5t-11.5 16.5l-12 18q-13 -10 -25 -20q-11 -8 -22.5 -17t-19.5 -15
q-9 -6 -16 -7t-10.5 1.5t-3 8t7.5 11.5z" />
    <glyph glyph-name="Atilde" unicode="&#xc3;" horiz-adv-x="512" 
d="M531 528q5 0 7 -1q9 -2 14.5 -7t1.5 -14q-3 -7 -13.5 -36.5t-24.5 -70t-29.5 -87t-29.5 -87.5t-24 -71.5t-12 -39.5q-4 -13 -7.5 -24.5t-4 -19.5t2.5 -13t12 -5q19 0 43.5 24t44.5 59q11 17 18.5 13.5t-0.5 -21.5q-9 -20 -27 -42.5t-39.5 -41.5t-44.5 -31t-42 -12
q-20 0 -27.5 10.5t-7.5 26.5t5.5 35t11.5 36q4 12 10 29t13 38h-93q-20 -36 -42 -68.5t-45.5 -56.5t-49.5 -38t-55 -14q-45 0 -67 20.5t-26 46t9.5 47.5t39.5 25q19 2 28 -7.5t11 -22t-2 -23.5t-11 -11q-13 0 -19 -9t-4 -19.5t11.5 -19t27.5 -8.5q16 0 32 12.5t32 33.5
t32.5 50t33.5 62q-55 3 -83 30.5t-29.5 67t23.5 84t77.5 83t131.5 63.5t186 25zM236 197q22 44 46 90.5t51 88.5t57 76.5t65 54.5q-61 -11 -110.5 -37.5t-85 -60t-56.5 -69.5t-25.5 -67t9.5 -52t49 -24zM389 197q14 43 30.5 92t31 93t26 77t16.5 44q-25 -14 -48.5 -46
t-46.5 -74t-47 -90.5t-49 -95.5h87zM610 593q10 -14 12.5 -23.5t-0.5 -13t-9 -1t-13 14.5q-5 8 -15.5 7t-25 -6t-31.5 -10t-35 -6t-35 6t-32 27q-9 12 -10.5 20.5t1 12.5t8.5 1.5t12 -12.5q6 -11 26.5 -5.5t46.5 11.5t53 4.5t47 -27.5z" />
    <glyph glyph-name="Adieresis" unicode="&#xc4;" horiz-adv-x="512" 
d="M532 528q2 0 3 -0.5t3 -0.5q9 -2 14.5 -7t1.5 -14q-3 -7 -13.5 -36.5t-24.5 -70t-29.5 -87t-29.5 -87.5t-24 -71.5t-12 -39.5q-4 -13 -7.5 -24.5t-4 -19.5t2.5 -13t12 -5q19 0 43.5 24t44.5 59q11 17 18.5 13.5t-0.5 -21.5q-9 -20 -27 -42.5t-39.5 -41.5t-44.5 -31
t-42 -12q-20 0 -27.5 10.5t-7.5 26.5t5.5 35t11.5 36q4 12 10 29t13 38h-93q-20 -36 -42 -68.5t-45.5 -56.5t-49.5 -38t-55 -14q-45 0 -67 20.5t-26 46t9.5 47.5t39.5 25q19 2 28 -7.5t11 -22t-2 -23.5t-11 -11q-13 0 -19 -9t-4 -19.5t11.5 -19t27.5 -8.5q16 0 32 12.5
t32 33.5t32.5 50t33.5 62q-55 3 -83 30.5t-29.5 67t23.5 84t77.5 83t131.5 63.5t186 25h1zM236 197q22 44 46 90.5t51 88.5t57 76.5t65 54.5q-61 -11 -110.5 -37.5t-85 -60t-56.5 -69.5t-25.5 -67t9.5 -52t49 -24zM389 197q14 43 30.5 92t31 93t26 77t16.5 44
q-25 -14 -48.5 -46t-46.5 -74t-47 -90.5t-49 -95.5h87zM436 600q0 17 11 28.5t28 11.5t28.5 -11.5t11.5 -28.5t-11.5 -28.5t-28.5 -11.5t-28 11.5t-11 28.5zM532 600q0 17 11 28.5t28 11.5t28.5 -11.5t11.5 -28.5t-11.5 -28.5t-28.5 -11.5t-28 11.5t-11 28.5z" />
    <glyph glyph-name="Aring" unicode="&#xc5;" horiz-adv-x="512" 
d="M531 528q2 0 3 -0.5t3 -0.5q9 -2 15 -7t2 -14q-3 -7 -13.5 -36.5t-24.5 -70t-29.5 -87t-29.5 -87.5t-24 -71.5t-12 -39.5q-4 -13 -7.5 -24.5t-4 -19.5t2.5 -13t12 -5q19 0 43.5 24t44.5 59q11 17 18.5 13.5t-0.5 -21.5q-9 -20 -27 -42.5t-39.5 -41.5t-44.5 -31t-42 -12
q-20 0 -27.5 10.5t-7.5 26.5t5.5 35t11.5 36q4 12 10 29t13 38h-93q-20 -36 -42 -68.5t-45.5 -56.5t-49.5 -38t-55 -14q-45 0 -67 20.5t-26 46t9.5 47.5t39.5 25q19 2 28 -7.5t11 -22t-2 -23.5t-11 -11q-13 0 -19 -9t-4 -19.5t11.5 -19t27.5 -8.5q16 0 32 12.5t32 33.5
t32.5 50t33.5 62q-55 3 -83 30.5t-29.5 67t23.5 84t77.5 83t131.5 63.5t186 25zM236 197q22 44 46 90.5t51 88.5t57 76.5t65 54.5q-61 -11 -110.5 -37.5t-85 -60t-56.5 -69.5t-25.5 -67t9.5 -52t49 -24zM389 197q14 43 30.5 92t31 93t26 77t16.5 44q-25 -14 -48.5 -46
t-46.5 -74t-47 -90.5t-49 -95.5h87zM467 620q0 29 20 49t49 20t49 -20t20 -49t-20 -49t-49 -20t-49 20t-20 49zM491 620q0 -19 13 -32t32 -13t32 13t13 32t-13 32t-32 13t-32 -13t-13 -32z" />
    <glyph glyph-name="AE" unicode="&#xc6;" horiz-adv-x="652" 
d="M616 522q40 3 65.5 -11t37.5 -36t12.5 -49.5t-9 -51.5t-27.5 -42t-42 -21q-27 -4 -43 6.5t-22.5 24t-4 25t13.5 11.5q11 -1 23.5 8.5t23 23.5t17 30t6 29.5t-10.5 22.5t-32 8q-32 -2 -57 -27t-39.5 -59t-14.5 -67.5t20 -51.5q6 -6 6.5 -11t-10.5 -7q-24 -6 -42 -22
t-28.5 -37.5t-13.5 -45t3 -44t22 -35t42 -17.5q34 -3 73 20t74 74q7 11 14.5 17t11.5 6.5t4 -5.5t-7 -19q-16 -29 -39 -56.5t-49.5 -50t-54.5 -38t-53 -21.5q-34 -8 -61.5 4t-45 36.5t-23 59t5.5 70.5v2h-67q-21 -36 -43.5 -68t-47 -56.5t-51 -38.5t-56.5 -14
q-45 0 -67 20.5t-26 46t9.5 47.5t39.5 25q19 2 28 -7.5t11 -22t-2 -23.5t-11 -11q-13 0 -19 -9t-4 -19.5t11.5 -19t27.5 -8.5q17 0 33.5 12.5t33 34t33 50t34.5 61.5q-56 2 -85.5 27t-31.5 61t23 78t77 77.5t132 59t187 23.5q4 0 6 -1q33 19 79 22zM241 197q22 40 45.5 83
t49.5 81t55.5 69.5t62.5 49.5q-61 -10 -110.5 -34.5t-85 -55t-56.5 -64t-24.5 -62t11 -47t49.5 -20.5h3zM514 485q-27 -5 -52.5 -32.5t-50.5 -68t-50.5 -90t-52.5 -97.5h62q11 25 27 42.5t33.5 29t35 17t31.5 5.5q-20 16 -29 41t-7 52t15 54t38 47z" />
    <glyph glyph-name="Ccedilla" unicode="&#xc7;" horiz-adv-x="290" 
d="M269 522q39 7 64 -5t37 -34.5t12.5 -51t-8.5 -54t-27 -44.5t-42 -22q-26 -4 -42 6.5t-23 24t-4.5 25t13.5 11.5q11 -1 23.5 8.5t23 24t17 31t6 30t-10 22t-31.5 6.5q-28 -5 -56.5 -26.5t-53.5 -53.5t-44 -72.5t-28 -83.5q-9 -44 -7 -80.5t14.5 -62t33.5 -37.5t49 -7
q31 6 61 24.5t65 68.5q8 11 15.5 17t11.5 6.5t3.5 -5.5t-7.5 -19q-16 -29 -39 -57t-49 -50.5t-54 -38t-54 -20.5q-11 -3 -19 -3q-2 -9 -4.5 -16t-6.5 -18q22 0 32.5 -12.5t7.5 -27t-21.5 -25.5t-52.5 -8q-25 2 -35.5 15t-12.5 21q-1 4 1.5 6.5t6 2.5t7 -1.5t3.5 -5.5
q1 -8 10.5 -15t20.5 -6q9 0 15 6.5t8 14t-0.5 13.5t-10.5 6q-12 -1 -8.5 6l8.5 17q5 9 7 14t4 14q-27 3 -47 21t-30 47.5t-10.5 69t11.5 85.5q13 54 39 105t59.5 91.5t72 68t76.5 33.5z" />
    <glyph glyph-name="Egrave" unicode="&#xc8;" horiz-adv-x="297" 
d="M266 522q40 3 65.5 -11t37.5 -36t12.5 -49.5t-9 -51.5t-27.5 -42t-42 -21q-27 -4 -43 6.5t-22.5 24t-4 25t13.5 11.5q11 -1 23.5 8.5t23 23.5t17 30t6 29.5t-10.5 22.5t-32 8q-32 -2 -57 -27t-39.5 -59t-14.5 -67.5t20 -51.5q6 -6 6.5 -11t-10.5 -7q-24 -6 -42 -22
t-28.5 -37.5t-13.5 -45t3 -44t22 -35t42 -17.5q34 -3 73 20t74 74q7 11 14.5 17t11.5 6.5t4 -5.5t-7 -19q-16 -29 -39 -56.5t-49.5 -50t-54.5 -38t-53 -21.5q-34 -8 -61.5 4t-45 36.5t-23 59t5.5 70.5q9 31 25.5 53.5t35.5 36.5t38.5 21t35.5 7q-27 22 -34 59.5t7.5 74.5
t50.5 65t95 32zM379 558q11 -9 5.5 -12.5t-20.5 -2.5t-36 4.5t-41 8.5t-36 10t-20 8q-8 6 -14 16.5t-9 21t-2.5 18.5t5.5 10q5 1 28.5 -8.5t51.5 -23.5t53.5 -28.5t34.5 -21.5z" />
    <glyph glyph-name="Eacute" unicode="&#xc9;" horiz-adv-x="297" 
d="M266 522q40 3 65.5 -11t37.5 -36t12.5 -49.5t-9 -51.5t-27.5 -42t-42 -21q-27 -4 -43 6.5t-22.5 24t-4 25t13.5 11.5q11 -1 23.5 8.5t23 23.5t17 30t6 29.5t-10.5 22.5t-32 8q-32 -2 -57 -27t-39.5 -59t-14.5 -67.5t20 -51.5q6 -6 6.5 -11t-10.5 -7q-24 -6 -42 -22
t-28.5 -37.5t-13.5 -45t3 -44t22 -35t42 -17.5q34 -3 73 20t74 74q7 11 14.5 17t11.5 6.5t4 -5.5t-7 -19q-16 -29 -39 -56.5t-49.5 -50t-54.5 -38t-53 -21.5q-34 -8 -61.5 4t-45 36.5t-23 59t5.5 70.5q9 31 25.5 53.5t35.5 36.5t38.5 21t35.5 7q-27 22 -34 59.5t7.5 74.5
t50.5 65t95 32zM252 562q9 7 34.5 21.5t53.5 28.5t51.5 23.5t28.5 8.5q5 -2 5.5 -10t-2.5 -18.5t-9.5 -21t-13.5 -16.5q-4 -3 -20 -8t-36 -10t-41 -8.5t-36 -4.5t-20.5 2.5t5.5 12.5z" />
    <glyph glyph-name="Ecircumflex" unicode="&#xca;" horiz-adv-x="297" 
d="M266 522q40 3 65.5 -11t37.5 -36t12.5 -49.5t-9 -51.5t-27.5 -42t-42 -21q-27 -4 -43 6.5t-22.5 24t-4 25t13.5 11.5q11 -1 23.5 8.5t23 23.5t17 30t6 29.5t-10.5 22.5t-32 8q-32 -2 -57 -27t-39.5 -59t-14.5 -67.5t20 -51.5q6 -6 6.5 -11t-10.5 -7q-24 -6 -42 -22
t-28.5 -37.5t-13.5 -45t3 -44t22 -35t42 -17.5q34 -3 73 20t74 74q7 11 14.5 17t11.5 6.5t4 -5.5t-7 -19q-16 -29 -39 -56.5t-49.5 -50t-54.5 -38t-53 -21.5q-34 -8 -61.5 4t-45 36.5t-23 59t5.5 70.5q9 31 25.5 53.5t35.5 36.5t38.5 21t35.5 7q-27 22 -34 59.5t7.5 74.5
t50.5 65t95 32zM229 574q7 6 17 14.5t20 16.5t19 16t14 13q13 11 21 11t16 -11l20 -27.5t23 -33.5q6 -8 4.5 -13.5t-6.5 -8t-11.5 -0.5t-12.5 10q-5 8 -11.5 16.5t-11.5 16.5l-12 18q-13 -10 -25 -20q-11 -8 -22.5 -17t-19.5 -15q-9 -6 -16 -7t-10.5 1.5t-3 8t7.5 11.5z" />
    <glyph glyph-name="Edieresis" unicode="&#xcb;" horiz-adv-x="297" 
d="M266 522q40 3 65.5 -11t37.5 -36t12.5 -49.5t-9 -51.5t-27.5 -42t-42 -21q-27 -4 -43 6.5t-22.5 24t-4 25t13.5 11.5q11 -1 23.5 8.5t23 23.5t17 30t6 29.5t-10.5 22.5t-32 8q-32 -2 -57 -27t-39.5 -59t-14.5 -67.5t20 -51.5q6 -6 6.5 -11t-10.5 -7q-24 -6 -42 -22
t-28.5 -37.5t-13.5 -45t3 -44t22 -35t42 -17.5q34 -3 73 20t74 74q7 11 14.5 17t11.5 6.5t4 -5.5t-7 -19q-16 -29 -39 -56.5t-49.5 -50t-54.5 -38t-53 -21.5q-34 -8 -61.5 4t-45 36.5t-23 59t5.5 70.5q9 31 25.5 53.5t35.5 36.5t38.5 21t35.5 7q-27 22 -34 59.5t7.5 74.5
t50.5 65t95 32zM230 593q0 17 11 28.5t28 11.5t28.5 -11.5t11.5 -28.5t-11.5 -28.5t-28.5 -11.5t-28 11.5t-11 28.5zM326 593q0 17 11 28.5t28 11.5t28.5 -11.5t11.5 -28.5t-11.5 -28.5t-28.5 -11.5t-28 11.5t-11 28.5z" />
    <glyph glyph-name="Igrave" unicode="&#xcc;" horiz-adv-x="347" 
d="M102 17q28 0 53 30t48 77t44.5 104t44.5 112q-18 -23 -40 -45.5t-47.5 -40.5t-54 -29t-59.5 -11q-39 0 -60.5 20t-25.5 50.5t10.5 66t49.5 66t89.5 50.5t131.5 20q25 0 46 0.5t38 1.5q13 16 27 26t29 12q22 3 35 -7.5t7 -24.5q-4 -11 -19 -17.5t-47 -9.5
q-13 -25 -28 -69.5t-33.5 -97t-41.5 -106t-52 -97.5t-64.5 -72t-78.5 -28q-44 0 -66 20.5t-26 46t9 47.5t39 25q19 2 28 -7.5t11 -22t-1.5 -23.5t-10.5 -11q-14 0 -19.5 -9t-4 -19.5t11 -19t27.5 -8.5zM119 252q36 0 71 23t64.5 54.5t51.5 62.5t32 48l15 25h-70
q-46 0 -84 -16t-65.5 -39.5t-44 -51t-19.5 -51t9 -39.5t40 -16zM471 562q11 -9 5.5 -12.5t-20.5 -2.5t-36 4.5t-41 8.5t-36 10t-20 8q-8 6 -14 16.5t-9 21t-2.5 18.5t5.5 10q5 1 28.5 -8.5t51.5 -23.5t53.5 -28.5t34.5 -21.5z" />
    <glyph glyph-name="Iacute" unicode="&#xcd;" horiz-adv-x="347" 
d="M102 17q28 0 53 30t48 77t44.5 104t44.5 112q-18 -23 -40 -45.5t-47.5 -40.5t-54 -29t-59.5 -11q-39 0 -60.5 20t-25.5 50.5t10.5 66t49.5 66t89.5 50.5t131.5 20q25 0 46 0.5t38 1.5q13 16 27 26t29 12q22 3 35 -7.5t7 -24.5q-4 -11 -19 -17.5t-47 -9.5
q-13 -25 -28 -69.5t-33.5 -97t-41.5 -106t-52 -97.5t-64.5 -72t-78.5 -28q-44 0 -66 20.5t-26 46t9 47.5t39 25q19 2 28 -7.5t11 -22t-1.5 -23.5t-10.5 -11q-14 0 -19.5 -9t-4 -19.5t11 -19t27.5 -8.5zM119 252q36 0 71 23t64.5 54.5t51.5 62.5t32 48l15 25h-70
q-46 0 -84 -16t-65.5 -39.5t-44 -51t-19.5 -51t9 -39.5t40 -16zM336 548q9 7 34.5 21.5t53.5 28.5t51.5 23.5t28.5 8.5q5 -2 5.5 -10t-2.5 -18.5t-9.5 -21t-13.5 -16.5q-4 -3 -20 -8t-36 -10t-41 -8.5t-36 -4.5t-20.5 2.5t5.5 12.5z" />
    <glyph glyph-name="Icircumflex" unicode="&#xce;" horiz-adv-x="347" 
d="M102 17q28 0 53 30t48 77t44.5 104t44.5 112q-18 -23 -40 -45.5t-47.5 -40.5t-54 -29t-59.5 -11q-39 0 -60.5 20t-25.5 50.5t10.5 66t49.5 66t89.5 50.5t131.5 20q25 0 46 0.5t38 1.5q13 16 27 26t29 12q22 3 35 -7.5t7 -24.5q-4 -11 -19 -17.5t-47 -9.5
q-13 -25 -28 -69.5t-33.5 -97t-41.5 -106t-52 -97.5t-64.5 -72t-78.5 -28q-44 0 -66 20.5t-26 46t9 47.5t39 25q19 2 28 -7.5t11 -22t-1.5 -23.5t-10.5 -11q-14 0 -19.5 -9t-4 -19.5t11 -19t27.5 -8.5zM119 252q36 0 71 23t64.5 54.5t51.5 62.5t32 48l15 25h-70
q-46 0 -84 -16t-65.5 -39.5t-44 -51t-19.5 -51t9 -39.5t40 -16zM325 565q7 6 17 14.5t20 16.5t19 16t14 13q13 11 21 11t16 -11l20 -27.5t23 -33.5q6 -8 4.5 -13.5t-6.5 -8t-11.5 -0.5t-12.5 10q-5 8 -11.5 16.5t-11.5 16.5l-12 18q-13 -10 -25 -20q-11 -8 -22.5 -17
t-19.5 -15q-9 -6 -16 -7t-10.5 1.5t-3 8t7.5 11.5z" />
    <glyph glyph-name="Idieresis" unicode="&#xcf;" horiz-adv-x="347" 
d="M102 17q28 0 53 30t48 77t44.5 104t44.5 112q-18 -23 -40 -45.5t-47.5 -40.5t-54 -29t-59.5 -11q-39 0 -60.5 20t-25.5 50.5t10.5 66t49.5 66t89.5 50.5t131.5 20q25 0 46 0.5t38 1.5q13 16 27 26t29 12q22 3 35 -7.5t7 -24.5q-4 -11 -19 -17.5t-47 -9.5
q-13 -25 -28 -69.5t-33.5 -97t-41.5 -106t-52 -97.5t-64.5 -72t-78.5 -28q-44 0 -66 20.5t-26 46t9 47.5t39 25q19 2 28 -7.5t11 -22t-1.5 -23.5t-10.5 -11q-14 0 -19.5 -9t-4 -19.5t11 -19t27.5 -8.5zM119 252q36 0 71 23t64.5 54.5t51.5 62.5t32 48l15 25h-70
q-46 0 -84 -16t-65.5 -39.5t-44 -51t-19.5 -51t9 -39.5t40 -16zM324 577q0 17 11 28.5t28 11.5t28.5 -11.5t11.5 -28.5t-11.5 -28.5t-28.5 -11.5t-28 11.5t-11 28.5zM420 577q0 17 11 28.5t28 11.5t28.5 -11.5t11.5 -28.5t-11.5 -28.5t-28.5 -11.5t-28 11.5t-11 28.5z" />
    <glyph glyph-name="Eth" unicode="&#xd0;" horiz-adv-x="523" 
d="M267 -2q-2 0 -3.5 0.5t-3.5 0.5q-26 3 -43 14t-25 27q-21 -20 -45 -31t-51 -11q-44 0 -66 20.5t-26 46t9.5 47.5t39.5 25q19 2 28 -7.5t11 -22t-2 -23.5t-11 -11q-13 0 -19 -9t-4 -19.5t11.5 -19t27.5 -8.5q19 0 36.5 16t33.5 43t31.5 62.5t30.5 74.5h-15q-9 0 -12 6
t-0.5 13t8.5 13t14 6h19q8 22 16.5 44t17.5 43q-32 -40 -72.5 -69t-89.5 -29q-39 0 -57.5 21t-15.5 53t27 69t69.5 69t113 53.5t156.5 22.5h7q43 -1 69 -23.5t38 -59t10 -83t-15 -95.5t-36 -96t-54 -84.5t-69 -61.5t-80 -26v-1h-9zM296 213q-17 -44 -38 -82q8 -6 11 -16
t2.5 -19t-4 -16t-8.5 -7q-14 0 -19.5 -9t-3.5 -19.5t11.5 -19t27.5 -8.5v-1q28 2 58 38t57 88.5t46.5 114t26.5 116t-2.5 92.5t-41.5 44h-4q-11 0 -21.5 -22.5t-23 -58.5t-27 -82.5t-32.5 -94.5h23q9 0 11.5 -6t0 -13t-8 -13t-13.5 -6h-28zM134 272q29 0 56.5 17t51 40.5
t41.5 48.5t28 42q19 35 38.5 59t42.5 29q-53 -3 -99 -21.5t-82 -44.5t-61 -56t-36 -55.5t-7 -42t27 -16.5z" />
    <glyph glyph-name="Ntilde" unicode="&#xd1;" horiz-adv-x="537" 
d="M296 204q-17 -41 -37.5 -78.5t-44.5 -66t-52.5 -45t-61.5 -16.5q-44 0 -66 20.5t-26 46t9.5 47.5t39.5 25q19 2 28 -7.5t11 -22t-2 -23.5t-11 -11q-14 0 -19.5 -9t-3.5 -19.5t11.5 -19t27.5 -8.5q26 0 49 29.5t44.5 76t42.5 103t42 110.5q-32 -39 -71.5 -67.5
t-88.5 -28.5q-40 0 -58.5 21.5t-15.5 53.5t28 69t71.5 69t114.5 53.5t158 21.5q12 0 12 -7.5t-8 -7.5t-16 -13t-16.5 -35t-18 -51.5t-20.5 -63.5q18 32 38.5 63.5t42.5 57t45.5 41t46.5 15.5q29 0 38 -21t5 -54.5t-19 -77t-33 -89t-36.5 -89t-30 -77t-13.5 -54.5t12 -21
q10 0 23.5 11t27.5 26t25.5 30.5t16.5 23.5q11 17 20 15.5t-2 -23.5q-6 -11 -20.5 -32.5t-35.5 -42.5t-46 -36.5t-52 -15.5q-26 0 -33.5 20.5t-2.5 54t19 76.5t31 87.5t34.5 87.5t29.5 76.5t15 54t-9 20.5q-17 0 -38.5 -19.5t-46 -55.5t-51 -86.5t-53.5 -111.5zM318 430
q18 33 37 55.5t41 27.5q-53 -3 -99 -22t-82 -46t-61 -57t-36 -56t-6.5 -43t26.5 -17q32 0 61 19.5t53 45.5t41 52.5t25 40.5zM565 579q10 -14 12.5 -23.5t-0.5 -13t-9 -1t-13 14.5q-5 8 -15.5 7t-25 -6t-31.5 -10t-35 -6t-35 6t-32 27q-9 12 -10.5 20.5t1 12.5t8.5 1.5
t12 -12.5q6 -11 26.5 -5.5t46.5 11.5t53 4.5t47 -27.5z" />
    <glyph glyph-name="Ograve" unicode="&#xd2;" horiz-adv-x="387" 
d="M263 522q37 8 65.5 -5t44 -43t18 -74.5t-10.5 -98.5q-14 -54 -40 -104t-59.5 -90.5t-72 -68t-75.5 -35.5q-38 -8 -66 5t-44 43t-18.5 74.5t11.5 98.5q13 54 39.5 104.5t60 91t71.5 67.5t76 35zM356 311q12 43 12 79.5t-10.5 63t-31 39.5t-48.5 10q-29 -3 -58.5 -22.5
t-56 -50t-48.5 -70t-34 -82.5t-12 -79.5t10.5 -62.5t30.5 -39t49 -10q28 3 58 22.5t56.5 50t48.5 69.5t34 82zM384 567q11 -9 5.5 -12.5t-20.5 -2.5t-36 4.5t-41 8.5t-36 10t-20 8q-8 6 -14 16.5t-9 21t-2.5 18.5t5.5 10q5 1 28.5 -8.5t51.5 -23.5t53.5 -28.5t34.5 -21.5z
" />
    <glyph glyph-name="Oacute" unicode="&#xd3;" horiz-adv-x="387" 
d="M263 522q37 8 65.5 -5t44 -43t18 -74.5t-10.5 -98.5q-14 -54 -40 -104t-59.5 -90.5t-72 -68t-75.5 -35.5q-38 -8 -66 5t-44 43t-18.5 74.5t11.5 98.5q13 54 39.5 104.5t60 91t71.5 67.5t76 35zM356 311q12 43 12 79.5t-10.5 63t-31 39.5t-48.5 10q-29 -3 -58.5 -22.5
t-56 -50t-48.5 -70t-34 -82.5t-12 -79.5t10.5 -62.5t30.5 -39t49 -10q28 3 58 22.5t56.5 50t48.5 69.5t34 82zM257 566q9 7 34.5 21.5t53.5 28.5t51.5 23.5t28.5 8.5q5 -2 5.5 -10t-2.5 -18.5t-9.5 -21t-13.5 -16.5q-4 -3 -20 -8t-36 -10t-41 -8.5t-36 -4.5t-20.5 2.5
t5.5 12.5z" />
    <glyph glyph-name="Ocircumflex" unicode="&#xd4;" horiz-adv-x="387" 
d="M263 522q37 8 65.5 -5t44 -43t18 -74.5t-10.5 -98.5q-14 -54 -40 -104t-59.5 -90.5t-72 -68t-75.5 -35.5q-38 -8 -66 5t-44 43t-18.5 74.5t11.5 98.5q13 54 39.5 104.5t60 91t71.5 67.5t76 35zM356 311q12 43 12 79.5t-10.5 63t-31 39.5t-48.5 10q-29 -3 -58.5 -22.5
t-56 -50t-48.5 -70t-34 -82.5t-12 -79.5t10.5 -62.5t30.5 -39t49 -10q28 3 58 22.5t56.5 50t48.5 69.5t34 82zM239 570q7 6 17 14.5t20 16.5t19 16t14 13q13 11 21 11t16 -11l20 -27.5t23 -33.5q6 -8 4.5 -13.5t-6.5 -8t-11.5 -0.5t-12.5 10q-5 8 -11.5 16.5t-11.5 16.5
l-12 18q-13 -10 -25 -20q-11 -8 -22.5 -17t-19.5 -15q-9 -6 -16 -7t-10.5 1.5t-3 8t7.5 11.5z" />
    <glyph glyph-name="Otilde" unicode="&#xd5;" horiz-adv-x="387" 
d="M263 522q37 8 65.5 -5t44 -43t18 -74.5t-10.5 -98.5q-14 -54 -40 -104t-59.5 -90.5t-72 -68t-75.5 -35.5q-38 -8 -66 5t-44 43t-18.5 74.5t11.5 98.5q13 54 39.5 104.5t60 91t71.5 67.5t76 35zM356 311q12 43 12 79.5t-10.5 63t-31 39.5t-48.5 10q-29 -3 -58.5 -22.5
t-56 -50t-48.5 -70t-34 -82.5t-12 -79.5t10.5 -62.5t30.5 -39t49 -10q28 3 58 22.5t56.5 50t48.5 69.5t34 82zM406 592q10 -14 12.5 -23.5t-0.5 -13t-9 -1t-13 14.5q-5 8 -15.5 7t-25 -6t-31.5 -10t-35 -6t-35 6t-32 27q-9 12 -10.5 20.5t1 12.5t8.5 1.5t12 -12.5
q6 -11 26.5 -5.5t46.5 11.5t53 4.5t47 -27.5z" />
    <glyph glyph-name="Odieresis" unicode="&#xd6;" horiz-adv-x="387" 
d="M263 522q37 8 65.5 -5t44 -43t18 -74.5t-10.5 -98.5q-14 -54 -40 -104t-59.5 -90.5t-72 -68t-75.5 -35.5q-38 -8 -66 5t-44 43t-18.5 74.5t11.5 98.5q13 54 39.5 104.5t60 91t71.5 67.5t76 35zM356 311q12 43 12 79.5t-10.5 63t-31 39.5t-48.5 10q-29 -3 -58.5 -22.5
t-56 -50t-48.5 -70t-34 -82.5t-12 -79.5t10.5 -62.5t30.5 -39t49 -10q28 3 58 22.5t56.5 50t48.5 69.5t34 82zM245 602q0 17 11 28.5t28 11.5t28.5 -11.5t11.5 -28.5t-11.5 -28.5t-28.5 -11.5t-28 11.5t-11 28.5zM341 602q0 17 11 28.5t28 11.5t28.5 -11.5t11.5 -28.5
t-11.5 -28.5t-28.5 -11.5t-28 11.5t-11 28.5z" />
    <glyph glyph-name="Oslash" unicode="&#xd8;" horiz-adv-x="387" 
d="M263 522q33 8 58.5 -2.5t42.5 -33.5l15 20q6 10 14 14.5t14 4t8.5 -5t-3.5 -13.5q-5 -8 -13.5 -19.5t-19.5 -26.5q11 -30 12 -70.5t-11 -88.5q-14 -54 -40 -104t-59.5 -90.5t-72 -68t-75.5 -35.5q-62 -13 -97 29l-20 -25q-6 -8 -13 -10.5t-12 -1t-6.5 6t3.5 12.5l33 42
q-14 30 -16 72.5t11 95.5q13 54 39.5 104.5t60 91t71.5 67.5t76 35zM81 131q33 41 71.5 88.5t75 93.5t69 86.5t53.5 67.5q-11 20 -29.5 29.5t-42.5 6.5q-29 -3 -58.5 -22.5t-56 -50t-48.5 -70t-34 -82.5q-14 -45 -13 -83t13 -64zM356 311q11 37 12 69.5t-6 57.5
q-26 -33 -59.5 -75.5t-69.5 -87t-71 -88t-65 -80.5q24 -24 62 -20q28 3 58 22.5t56.5 50t48.5 69.5t34 82z" />
    <glyph glyph-name="Ugrave" unicode="&#xd9;" horiz-adv-x="532" 
d="M396 187l1 1q16 50 37.5 101.5t41 94.5t34.5 72.5t19 34.5q7 10 19.5 14.5t23.5 4.5t17 -5t0 -14q-4 -7 -21 -42.5t-38.5 -85t-43.5 -105t-37 -103t-19.5 -78.5t9.5 -31q9 0 21 7.5t24.5 20t25 28.5t22.5 33t17.5 13.5t-0.5 -21.5q-9 -20 -26.5 -42.5t-39 -41.5t-45 -31
t-42.5 -12q-14 0 -21.5 9t-9 25.5t1.5 39t10 49.5q-15 -24 -32.5 -47t-35.5 -40.5t-36 -27.5t-34 -8q-20 3 -32 21t-14 48.5t6.5 71.5t28.5 91l30 70q-33 -35 -75 -61.5t-92 -26.5q-39 0 -61 20t-26 50.5t10.5 66t49.5 66t89.5 50.5t131.5 20q30 0 54 0.5t41 1.5
q14 15 29 25.5t29 12.5q22 3 32.5 -7.5t5.5 -24.5q-5 -12 -21.5 -18.5t-51.5 -8.5q-35 -26 -64.5 -80t-56.5 -120q-34 -85 -31.5 -137t29.5 -59q13 -3 30.5 10t34.5 32.5t31 40t20 32.5zM119 252q26 0 52 13t50 33.5t44.5 44.5t37.5 46q28 47 57 76h-78q-46 0 -84 -16
t-65.5 -39.5t-44 -51t-19 -51t9 -39.5t40.5 -16zM563 543q11 -9 5.5 -12.5t-20.5 -2.5t-36 4.5t-41 8.5t-36 10t-20 8q-8 6 -14 16.5t-9 21t-2.5 18.5t5.5 10q5 1 28.5 -8.5t51.5 -23.5t53.5 -28.5t34.5 -21.5z" />
    <glyph glyph-name="Uacute" unicode="&#xda;" horiz-adv-x="532" 
d="M396 187l1 1q16 50 37.5 101.5t41 94.5t34.5 72.5t19 34.5q7 10 19.5 14.5t23.5 4.5t17 -5t0 -14q-4 -7 -21 -42.5t-38.5 -85t-43.5 -105t-37 -103t-19.5 -78.5t9.5 -31q9 0 21 7.5t24.5 20t25 28.5t22.5 33t17.5 13.5t-0.5 -21.5q-9 -20 -26.5 -42.5t-39 -41.5t-45 -31
t-42.5 -12q-14 0 -21.5 9t-9 25.5t1.5 39t10 49.5q-15 -24 -32.5 -47t-35.5 -40.5t-36 -27.5t-34 -8q-20 3 -32 21t-14 48.5t6.5 71.5t28.5 91l30 70q-33 -35 -75 -61.5t-92 -26.5q-39 0 -61 20t-26 50.5t10.5 66t49.5 66t89.5 50.5t131.5 20q30 0 54 0.5t41 1.5
q14 15 29 25.5t29 12.5q22 3 32.5 -7.5t5.5 -24.5q-5 -12 -21.5 -18.5t-51.5 -8.5q-35 -26 -64.5 -80t-56.5 -120q-34 -85 -31.5 -137t29.5 -59q13 -3 30.5 10t34.5 32.5t31 40t20 32.5zM119 252q26 0 52 13t50 33.5t44.5 44.5t37.5 46q28 47 57 76h-78q-46 0 -84 -16
t-65.5 -39.5t-44 -51t-19 -51t9 -39.5t40.5 -16zM472 552q9 7 34.5 21.5t53.5 28.5t51.5 23.5t28.5 8.5q5 -2 5.5 -10t-2.5 -18.5t-9.5 -21t-13.5 -16.5q-4 -3 -20 -8t-36 -10t-41 -8.5t-36 -4.5t-20.5 2.5t5.5 12.5z" />
    <glyph glyph-name="Ucircumflex" unicode="&#xdb;" horiz-adv-x="532" 
d="M396 187l1 1q16 50 37.5 101.5t41 94.5t34.5 72.5t19 34.5q7 10 19.5 14.5t23.5 4.5t17 -5t0 -14q-4 -7 -21 -42.5t-38.5 -85t-43.5 -105t-37 -103t-19.5 -78.5t9.5 -31q9 0 21 7.5t24.5 20t25 28.5t22.5 33t17.5 13.5t-0.5 -21.5q-9 -20 -26.5 -42.5t-39 -41.5t-45 -31
t-42.5 -12q-14 0 -21.5 9t-9 25.5t1.5 39t10 49.5q-15 -24 -32.5 -47t-35.5 -40.5t-36 -27.5t-34 -8q-20 3 -32 21t-14 48.5t6.5 71.5t28.5 91l30 70q-33 -35 -75 -61.5t-92 -26.5q-39 0 -61 20t-26 50.5t10.5 66t49.5 66t89.5 50.5t131.5 20q30 0 54 0.5t41 1.5
q14 15 29 25.5t29 12.5q22 3 32.5 -7.5t5.5 -24.5q-5 -12 -21.5 -18.5t-51.5 -8.5q-35 -26 -64.5 -80t-56.5 -120q-34 -85 -31.5 -137t29.5 -59q13 -3 30.5 10t34.5 32.5t31 40t20 32.5zM119 252q26 0 52 13t50 33.5t44.5 44.5t37.5 46q28 47 57 76h-78q-46 0 -84 -16
t-65.5 -39.5t-44 -51t-19 -51t9 -39.5t40.5 -16zM438 568q7 6 17 14.5t20 16.5t19 16t14 13q13 11 21 11t16 -11l20 -27.5t23 -33.5q6 -8 4.5 -13.5t-6.5 -8t-11.5 -0.5t-12.5 10q-5 8 -11.5 16.5t-11.5 16.5l-12 18q-13 -10 -25 -20q-11 -8 -22.5 -17t-19.5 -15
q-9 -6 -16 -7t-10.5 1.5t-3 8t7.5 11.5z" />
    <glyph glyph-name="Udieresis" unicode="&#xdc;" horiz-adv-x="532" 
d="M396 187l1 1q16 50 37.5 101.5t41 94.5t34.5 72.5t19 34.5q7 10 19.5 14.5t23.5 4.5t17 -5t0 -14q-4 -7 -21 -42.5t-38.5 -85t-43.5 -105t-37 -103t-19.5 -78.5t9.5 -31q9 0 21 7.5t24.5 20t25 28.5t22.5 33t17.5 13.5t-0.5 -21.5q-9 -20 -26.5 -42.5t-39 -41.5t-45 -31
t-42.5 -12q-14 0 -21.5 9t-9 25.5t1.5 39t10 49.5q-15 -24 -32.5 -47t-35.5 -40.5t-36 -27.5t-34 -8q-20 3 -32 21t-14 48.5t6.5 71.5t28.5 91l30 70q-33 -35 -75 -61.5t-92 -26.5q-39 0 -61 20t-26 50.5t10.5 66t49.5 66t89.5 50.5t131.5 20q30 0 54 0.5t41 1.5
q14 15 29 25.5t29 12.5q22 3 32.5 -7.5t5.5 -24.5q-5 -12 -21.5 -18.5t-51.5 -8.5q-35 -26 -64.5 -80t-56.5 -120q-34 -85 -31.5 -137t29.5 -59q13 -3 30.5 10t34.5 32.5t31 40t20 32.5zM119 252q26 0 52 13t50 33.5t44.5 44.5t37.5 46q28 47 57 76h-78q-46 0 -84 -16
t-65.5 -39.5t-44 -51t-19 -51t9 -39.5t40.5 -16zM528 586q0 17 11 28.5t28 11.5t28.5 -11.5t11.5 -28.5t-11.5 -28.5t-28.5 -11.5t-28 11.5t-11 28.5zM432 586q0 17 11 28.5t28 11.5t28.5 -11.5t11.5 -28.5t-11.5 -28.5t-28.5 -11.5t-28 11.5t-11 28.5z" />
    <glyph glyph-name="Yacute" unicode="&#xdd;" horiz-adv-x="509" 
d="M268 17q24 0 45 24.5t41.5 64.5t39.5 89.5t38 100.5q-16 -27 -33.5 -51t-35.5 -40.5t-36 -22.5t-36 4q-29 16 -32 50t10 75q-17 -19 -36.5 -36.5t-42 -31t-47 -21.5t-50.5 -8q-39 0 -61 20t-25.5 50.5t11 66t49.5 66t89.5 50.5t131.5 20q29 0 53.5 0.5t41.5 1.5
q13 15 28 25.5t29 12.5q23 3 33 -7.5t5 -24.5q-4 -12 -22 -18.5t-56 -8.5q-22 -18 -42.5 -48t-32 -61.5t-10.5 -59t22 -39.5q13 -8 27 -2.5t28 18t27 31t24.5 38t21 37t15.5 29.5q23 48 46.5 79.5t51.5 36.5q6 2 8 -1t-2 -8q-13 -17 -28 -62.5t-34.5 -103t-43.5 -120
t-54.5 -115t-68.5 -86t-85 -33.5q-44 0 -66 20.5t-26 46t9 47.5t39 25q19 2 28 -7.5t11.5 -22t-1.5 -23.5t-11 -11q-14 0 -19.5 -9t-3.5 -19.5t11.5 -19t26.5 -8.5zM121 252q27 0 53 13t50 33.5t45 44.5t37 46q13 22 28 41.5t30 35.5q-17 -1 -36.5 -1h-42.5q-46 0 -84 -16
t-65.5 -39.5t-44 -51t-19.5 -51t9 -39.5t40 -16zM461 564q9 7 34.5 21.5t53.5 28.5t51.5 23.5t28.5 8.5q5 -2 5.5 -10t-2.5 -18.5t-9.5 -21t-13.5 -16.5q-4 -3 -20 -8t-36 -10t-41 -8.5t-36 -4.5t-20.5 2.5t5.5 12.5z" />
    <glyph glyph-name="agrave" unicode="&#xe0;" horiz-adv-x="308" 
d="M183 329q27 0 40 -24l1 1q5 11 16.5 16t22.5 5t18 -5.5t3 -15.5q-5 -11 -14.5 -37t-20 -56t-19.5 -58t-13 -41t-7.5 -24.5t-4.5 -19.5t2.5 -13t12.5 -5q19 0 43.5 24t44.5 59q11 17 18.5 13.5t-0.5 -21.5q-9 -20 -27 -42.5t-39.5 -41.5t-45 -31t-42.5 -12q-25 0 -31 16.5
t-2 39.5q-26 -27 -52 -42.5t-49 -15.5q-21 0 -33 13.5t-16 36t1.5 52.5t20.5 64t36 64t44.5 52.5t47 35.5t44.5 13zM155 108q17 48 32 94t26 76q-8 24 -29 26q-14 0 -30 -9.5t-32 -26t-30 -39t-24 -48.5q-21 -52 -16.5 -89t31.5 -38q15 -1 32.5 10.5t34.5 31.5zM306 428
q11 -9 5.5 -12.5t-20.5 -2.5t-36 4.5t-41 8.5t-36 10t-20 8q-8 6 -14 16.5t-9 21t-2.5 18.5t5.5 10q5 1 28.5 -8.5t51.5 -23.5t53.5 -28.5t34.5 -21.5z" />
    <glyph glyph-name="aacute" unicode="&#xe1;" horiz-adv-x="308" 
d="M183 329q27 0 40 -24l1 1q5 11 16.5 16t22.5 5t18 -5.5t3 -15.5q-5 -11 -14.5 -37t-20 -56t-19.5 -58t-13 -41t-7.5 -24.5t-4.5 -19.5t2.5 -13t12.5 -5q19 0 43.5 24t44.5 59q11 17 18.5 13.5t-0.5 -21.5q-9 -20 -27 -42.5t-39.5 -41.5t-45 -31t-42.5 -12q-25 0 -31 16.5
t-2 39.5q-26 -27 -52 -42.5t-49 -15.5q-21 0 -33 13.5t-16 36t1.5 52.5t20.5 64t36 64t44.5 52.5t47 35.5t44.5 13zM155 108q17 48 32 94t26 76q-8 24 -29 26q-14 0 -30 -9.5t-32 -26t-30 -39t-24 -48.5q-21 -52 -16.5 -89t31.5 -38q15 -1 32.5 10.5t34.5 31.5zM169 439
q9 7 34.5 21.5t53.5 28.5t51.5 23.5t28.5 8.5q5 -2 5.5 -10t-2.5 -18.5t-9.5 -21t-13.5 -16.5q-4 -3 -20 -8t-36 -10t-41 -8.5t-36 -4.5t-20.5 2.5t5.5 12.5z" />
    <glyph glyph-name="acircumflex" unicode="&#xe2;" horiz-adv-x="308" 
d="M183 329q27 0 40 -24l1 1q5 11 16.5 16t22.5 5t18 -5.5t3 -15.5q-5 -11 -14.5 -37t-20 -56t-19.5 -58t-13 -41t-7.5 -24.5t-4.5 -19.5t2.5 -13t12.5 -5q19 0 43.5 24t44.5 59q11 17 18.5 13.5t-0.5 -21.5q-9 -20 -27 -42.5t-39.5 -41.5t-45 -31t-42.5 -12q-25 0 -31 16.5
t-2 39.5q-26 -27 -52 -42.5t-49 -15.5q-21 0 -33 13.5t-16 36t1.5 52.5t20.5 64t36 64t44.5 52.5t47 35.5t44.5 13zM155 108q17 48 32 94t26 76q-8 24 -29 26q-14 0 -30 -9.5t-32 -26t-30 -39t-24 -48.5q-21 -52 -16.5 -89t31.5 -38q15 -1 32.5 10.5t34.5 31.5zM149 447
q7 6 17 14.5t20 16.5t19 16t14 13q13 11 21 11t16 -11l20 -27.5t23 -33.5q6 -8 4.5 -13.5t-6.5 -8t-11.5 -0.5t-12.5 10q-5 8 -11.5 16.5t-11.5 16.5l-12 18q-13 -10 -25 -20q-11 -8 -22.5 -17t-19.5 -15q-9 -6 -16 -7t-10.5 1.5t-3 8t7.5 11.5z" />
    <glyph glyph-name="atilde" unicode="&#xe3;" horiz-adv-x="308" 
d="M183 329q27 0 40 -24l1 1q5 11 16.5 16t22.5 5t18 -5.5t3 -15.5q-5 -11 -14.5 -37t-20 -56t-19.5 -58t-13 -41t-7.5 -24.5t-4.5 -19.5t2.5 -13t12.5 -5q19 0 43.5 24t44.5 59q11 17 18.5 13.5t-0.5 -21.5q-9 -20 -27 -42.5t-39.5 -41.5t-45 -31t-42.5 -12q-25 0 -31 16.5
t-2 39.5q-26 -27 -52 -42.5t-49 -15.5q-21 0 -33 13.5t-16 36t1.5 52.5t20.5 64t36 64t44.5 52.5t47 35.5t44.5 13zM155 108q17 48 32 94t26 76q-8 24 -29 26q-14 0 -30 -9.5t-32 -26t-30 -39t-24 -48.5q-21 -52 -16.5 -89t31.5 -38q15 -1 32.5 10.5t34.5 31.5zM319 470
q10 -14 12.5 -23.5t-0.5 -13t-9 -1t-13 14.5q-5 8 -15.5 7t-25 -6t-31.5 -10t-35 -6t-35 6t-32 27q-9 12 -10.5 20.5t1 12.5t8.5 1.5t12 -12.5q6 -11 26.5 -5.5t46.5 11.5t53 4.5t47 -27.5z" />
    <glyph glyph-name="adieresis" unicode="&#xe4;" horiz-adv-x="308" 
d="M183 329q27 0 40 -24l1 1q5 11 16.5 16t22.5 5t18 -5.5t3 -15.5q-5 -11 -14.5 -37t-20 -56t-19.5 -58t-13 -41t-7.5 -24.5t-4.5 -19.5t2.5 -13t12.5 -5q19 0 43.5 24t44.5 59q11 17 18.5 13.5t-0.5 -21.5q-9 -20 -27 -42.5t-39.5 -41.5t-45 -31t-42.5 -12q-25 0 -31 16.5
t-2 39.5q-26 -27 -52 -42.5t-49 -15.5q-21 0 -33 13.5t-16 36t1.5 52.5t20.5 64t36 64t44.5 52.5t47 35.5t44.5 13zM155 108q17 48 32 94t26 76q-8 24 -29 26q-14 0 -30 -9.5t-32 -26t-30 -39t-24 -48.5q-21 -52 -16.5 -89t31.5 -38q15 -1 32.5 10.5t34.5 31.5zM148 477
q0 17 11 28.5t28 11.5t28.5 -11.5t11.5 -28.5t-11.5 -28.5t-28.5 -11.5t-28 11.5t-11 28.5zM244 477q0 17 11 28.5t28 11.5t28.5 -11.5t11.5 -28.5t-11.5 -28.5t-28.5 -11.5t-28 11.5t-11 28.5z" />
    <glyph glyph-name="aring" unicode="&#xe5;" horiz-adv-x="308" 
d="M183 329q27 0 40 -24l1 1q5 11 16.5 16t22.5 5t18 -5.5t3 -15.5q-5 -11 -14.5 -37t-20 -56t-19.5 -58t-13 -41t-7.5 -24.5t-4.5 -19.5t2.5 -13t12.5 -5q19 0 43.5 24t44.5 59q11 17 18.5 13.5t-0.5 -21.5q-9 -20 -27 -42.5t-39.5 -41.5t-45 -31t-42.5 -12q-25 0 -31 16.5
t-2 39.5q-26 -27 -52 -42.5t-49 -15.5q-21 0 -33 13.5t-16 36t1.5 52.5t20.5 64t36 64t44.5 52.5t47 35.5t44.5 13zM155 108q17 48 32 94t26 76q-8 24 -29 26q-14 0 -30 -9.5t-32 -26t-30 -39t-24 -48.5q-21 -52 -16.5 -89t31.5 -38q15 -1 32.5 10.5t34.5 31.5zM172 477
q0 29 20 49t49 20t49 -20t20 -49t-20 -49t-49 -20t-49 20t-20 49zM196 477q0 -19 13 -32t32 -13t32 13t13 32t-13 32t-32 13t-32 -13t-13 -32z" />
    <glyph glyph-name="ae" unicode="&#xe6;" horiz-adv-x="418" 
d="M183 329q26 0 40 -23q1 2 2 3.5t2 3.5q6 10 18.5 14.5t23 3.5t15.5 -5.5t-3 -12.5l-6 -7q22 14 42 20q39 10 62 -5.5t19 -47t-41.5 -75t-119.5 -90.5q11 -29 35 -41.5t52 -7.5q33 7 53.5 27.5t40.5 48.5q12 17 19 13t-2 -21q-11 -22 -28.5 -44.5t-40 -40.5t-49 -29
t-56.5 -11q-35 0 -62.5 22t-32.5 64q-30 -41 -64.5 -65.5t-63.5 -24.5q-21 0 -33 13.5t-16 36t1.5 52.5t20.5 64t36 64t44.5 52.5t47 35.5t44.5 13zM170 143q1 9 4.5 25.5t9.5 36t13 40t14 37.5q-8 21 -27 22q-14 0 -30 -9.5t-32 -26t-30 -39t-24 -48.5q-21 -52 -16.5 -89
t31.5 -38q18 -1 40 16t42 45l4 24q0 2 1 4zM231 179q-5 -29 0 -51q59 33 83 66.5t26 58.5t-12 37t-31 3q-28 -14 -44 -46.5t-22 -67.5z" />
    <glyph glyph-name="ccedilla" unicode="&#xe7;" 
d="M249 135q6 9 11.5 12t9 1.5t3.5 -7.5t-5 -14q-14 -23 -31 -45t-38 -39t-45 -28.5t-52 -12.5l-10 -30q22 0 32.5 -12.5t7.5 -27t-21.5 -25.5t-52.5 -8q-25 2 -35.5 15t-12.5 21q-1 4 1.5 6.5t6 2.5t7 -1.5t3.5 -5.5q1 -8 10.5 -15t20.5 -6q9 0 15 6.5t8 14t-0.5 13.5
t-10.5 6q-12 -1 -8.5 6l8.5 17q4 8 6 12.5t4 11.5q-40 5 -66 39.5t-15 96.5q6 31 20.5 62t34 57t44 44.5t51.5 23.5q33 6 52.5 -11t23.5 -45t-9 -59.5t-44 -53.5q-12 -9 -28 -11t-29 0t-19.5 7.5t1.5 11.5q27 24 46 49t27.5 45.5t5 33.5t-22.5 13q-14 0 -28.5 -9.5
t-27.5 -26.5t-23 -41.5t-13 -54.5q-3 -26 1.5 -49t16.5 -39.5t30.5 -24t44.5 -2.5q33 7 56 29t38 47z" />
    <glyph glyph-name="egrave" unicode="&#xe8;" 
d="M249 135q12 17 19 13t-2 -21q-11 -22 -28.5 -44.5t-40 -40.5t-49 -29t-56.5 -11q-22 0 -41.5 9t-33 26.5t-19 43t1.5 58.5q6 31 20 61.5t34 56t44 44t50 25.5q39 10 62 -5.5t19 -47t-41.5 -75t-119.5 -90.5q11 -29 35 -41.5t52 -7.5q33 7 53.5 27.5t40.5 48.5zM62 179
q-5 -29 0 -51q59 33 83 66.5t26 58.5t-12 37t-31 3q-28 -14 -44 -46.5t-22 -67.5zM250 422q11 -9 5.5 -12.5t-20.5 -2.5t-36 4.5t-41 8.5t-36 10t-20 8q-8 6 -14 16.5t-9 21t-2.5 18.5t5.5 10q5 1 28.5 -8.5t51.5 -23.5t53.5 -28.5t34.5 -21.5z" />
    <glyph glyph-name="eacute" unicode="&#xe9;" 
d="M249 135q12 17 19 13t-2 -21q-11 -22 -28.5 -44.5t-40 -40.5t-49 -29t-56.5 -11q-22 0 -41.5 9t-33 26.5t-19 43t1.5 58.5q6 31 20 61.5t34 56t44 44t50 25.5q39 10 62 -5.5t19 -47t-41.5 -75t-119.5 -90.5q11 -29 35 -41.5t52 -7.5q33 7 53.5 27.5t40.5 48.5zM62 179
q-5 -29 0 -51q59 33 83 66.5t26 58.5t-12 37t-31 3q-28 -14 -44 -46.5t-22 -67.5zM111 431q9 7 34.5 21.5t53.5 28.5t51.5 23.5t28.5 8.5q5 -2 5.5 -10t-2.5 -18.5t-9.5 -21t-13.5 -16.5q-4 -3 -20 -8t-36 -10t-41 -8.5t-36 -4.5t-20.5 2.5t5.5 12.5z" />
    <glyph glyph-name="ecircumflex" unicode="&#xea;" 
d="M249 135q12 17 19 13t-2 -21q-11 -22 -28.5 -44.5t-40 -40.5t-49 -29t-56.5 -11q-22 0 -41.5 9t-33 26.5t-19 43t1.5 58.5q6 31 20 61.5t34 56t44 44t50 25.5q39 10 62 -5.5t19 -47t-41.5 -75t-119.5 -90.5q11 -29 35 -41.5t52 -7.5q33 7 53.5 27.5t40.5 48.5zM62 179
q-5 -29 0 -51q59 33 83 66.5t26 58.5t-12 37t-31 3q-28 -14 -44 -46.5t-22 -67.5zM102 442q7 6 17 14.5t20 16.5t19 16t14 13q13 11 21 11t16 -11l20 -27.5t23 -33.5q6 -8 4.5 -13.5t-6.5 -8t-11.5 -0.5t-12.5 10q-5 8 -11.5 16.5t-11.5 16.5l-12 18q-13 -10 -25 -20
q-11 -8 -22.5 -17t-19.5 -15q-9 -6 -16 -7t-10.5 1.5t-3 8t7.5 11.5z" />
    <glyph glyph-name="edieresis" unicode="&#xeb;" 
d="M249 135q12 17 19 13t-2 -21q-11 -22 -28.5 -44.5t-40 -40.5t-49 -29t-56.5 -11q-22 0 -41.5 9t-33 26.5t-19 43t1.5 58.5q6 31 20 61.5t34 56t44 44t50 25.5q39 10 62 -5.5t19 -47t-41.5 -75t-119.5 -90.5q11 -29 35 -41.5t52 -7.5q33 7 53.5 27.5t40.5 48.5zM62 179
q-5 -29 0 -51q59 33 83 66.5t26 58.5t-12 37t-31 3q-28 -14 -44 -46.5t-22 -67.5zM98 468q0 17 11 28.5t28 11.5t28.5 -11.5t11.5 -28.5t-11.5 -28.5t-28.5 -11.5t-28 11.5t-11 28.5zM194 468q0 17 11 28.5t28 11.5t28.5 -11.5t11.5 -28.5t-11.5 -28.5t-28.5 -11.5t-28 11.5
t-11 28.5z" />
    <glyph glyph-name="igrave" unicode="&#xec;" horiz-adv-x="144" 
d="M-10 108q11 31 21.5 62t19.5 57.5t16 47t12 31.5t17 16t23 5t17.5 -5.5t2.5 -15.5q-4 -11 -13.5 -37t-20 -56t-20 -58t-13.5 -41t-7 -24.5t-4 -19.5t2.5 -13t12.5 -5q18 0 43 24t45 59q10 17 17.5 13.5t-0.5 -21.5q-9 -20 -26.5 -42.5t-39 -41.5t-45 -31t-42.5 -12
q-20 0 -27.5 10.5t-7.5 26.5t5.5 35t11.5 36zM198 439q11 -9 5.5 -12.5t-20.5 -2.5t-36 4.5t-41 8.5t-36 10t-20 8q-8 6 -14 16.5t-9 21t-2.5 18.5t5.5 10q5 1 28.5 -8.5t51.5 -23.5t53.5 -28.5t34.5 -21.5z" />
    <glyph glyph-name="iacute" unicode="&#xed;" horiz-adv-x="144" 
d="M-10 108q11 31 21.5 62t19.5 57.5t16 47t12 31.5t17 16t23 5t17.5 -5.5t2.5 -15.5q-4 -11 -13.5 -37t-20 -56t-20 -58t-13.5 -41t-7 -24.5t-4 -19.5t2.5 -13t12.5 -5q18 0 43 24t45 59q10 17 17.5 13.5t-0.5 -21.5q-9 -20 -26.5 -42.5t-39 -41.5t-45 -31t-42.5 -12
q-20 0 -27.5 10.5t-7.5 26.5t5.5 35t11.5 36zM69 439q9 7 34.5 21.5t53.5 28.5t51.5 23.5t28.5 8.5q5 -2 5.5 -10t-2.5 -18.5t-9.5 -21t-13.5 -16.5q-4 -3 -20 -8t-36 -10t-41 -8.5t-36 -4.5t-20.5 2.5t5.5 12.5z" />
    <glyph glyph-name="icircumflex" unicode="&#xee;" horiz-adv-x="144" 
d="M-10 108q11 31 21.5 62t19.5 57.5t16 47t12 31.5t17 16t23 5t17.5 -5.5t2.5 -15.5q-4 -11 -13.5 -37t-20 -56t-20 -58t-13.5 -41t-7 -24.5t-4 -19.5t2.5 -13t12.5 -5q18 0 43 24t45 59q10 17 17.5 13.5t-0.5 -21.5q-9 -20 -26.5 -42.5t-39 -41.5t-45 -31t-42.5 -12
q-20 0 -27.5 10.5t-7.5 26.5t5.5 35t11.5 36zM48 447q7 6 17 14.5t20 16.5t19 16t14 13q13 11 21 11t16 -11l20 -27.5t23 -33.5q6 -8 4.5 -13.5t-6.5 -8t-11.5 -0.5t-12.5 10q-5 8 -11.5 16.5t-11.5 16.5l-12 18q-13 -10 -25 -20q-11 -8 -22.5 -17t-19.5 -15q-9 -6 -16 -7
t-10.5 1.5t-3 8t7.5 11.5z" />
    <glyph glyph-name="idieresis" unicode="&#xef;" horiz-adv-x="144" 
d="M-10 108q11 31 21.5 62t19.5 57.5t16 47t12 31.5t17 16t23 5t17.5 -5.5t2.5 -15.5q-4 -11 -13.5 -37t-20 -56t-20 -58t-13.5 -41t-7 -24.5t-4 -19.5t2.5 -13t12.5 -5q18 0 43 24t45 59q10 17 17.5 13.5t-0.5 -21.5q-9 -20 -26.5 -42.5t-39 -41.5t-45 -31t-42.5 -12
q-20 0 -27.5 10.5t-7.5 26.5t5.5 35t11.5 36zM48 477q0 17 11 28.5t28 11.5t28.5 -11.5t11.5 -28.5t-11.5 -28.5t-28.5 -11.5t-28 11.5t-11 28.5zM144 477q0 17 11 28.5t28 11.5t28.5 -11.5t11.5 -28.5t-11.5 -28.5t-28.5 -11.5t-28 11.5t-11 28.5z" />
    <glyph glyph-name="ntilde" unicode="&#xf1;" horiz-adv-x="283" 
d="M72 174q18 30 37.5 57.5t39.5 49t38.5 34t34.5 12.5q27 0 30.5 -20.5t-5.5 -51t-25 -66t-28 -66t-14.5 -51t15.5 -20.5q19 0 43.5 24t44.5 59q11 17 18.5 13.5t-0.5 -21.5q-9 -20 -27 -42.5t-39.5 -41.5t-45 -31t-42.5 -12q-25 0 -29.5 19.5t1.5 48.5t19.5 63t24.5 63
t15 48.5t-7 19.5q-9 0 -27.5 -20t-39.5 -51.5t-41.5 -70.5t-34.5 -76l-4 -9v-1l-5 -12q-5 -11 -16.5 -16t-23 -5t-18.5 5t-2 16q3 7 10.5 28.5t18 50.5t22 62t21.5 63l17.5 52.5l10.5 31.5q3 10 13.5 14t21.5 3t19 -6t5 -13zM284 457q10 -14 12.5 -23.5t-0.5 -13t-9 -1
t-13 14.5q-5 8 -15.5 7t-25 -6t-31.5 -10t-35 -6t-35 6t-32 27q-9 12 -10.5 20.5t1 12.5t8.5 1.5t12 -12.5q6 -11 26.5 -5.5t46.5 11.5t53 4.5t47 -27.5z" />
    <glyph glyph-name="ograve" unicode="&#xf2;" horiz-adv-x="253" 
d="M327 261q10 13 16 8.5t-2 -18.5q-6 -9 -17.5 -14.5t-26 -7.5t-31 -1t-31.5 5q-1 -11 -2.5 -22t-4.5 -23q-8 -34 -24.5 -65.5t-37.5 -56.5t-44.5 -42t-47.5 -22t-41.5 3t-27.5 27t-11.5 46.5t7.5 61.5q8 34 24.5 65.5t37.5 56.5t44.5 42.5t47.5 22.5q34 7 55 -13t25 -58
q12 -5 25.5 -7t26.5 -1.5t24 3.5t16 10zM205 198q3 11 4 22t1 21q-26 10 -39.5 27.5t-5.5 35.5h-6q-15 -2 -31 -13.5t-29.5 -29t-24.5 -40t-17 -46.5t-5.5 -44.5t7 -35t18 -21.5t26.5 -5q15 3 31 14.5t30 29t24.5 39.5t16.5 46zM250 425q11 -9 5.5 -12.5t-20.5 -2.5t-36 4.5
t-41 8.5t-36 10t-20 8q-8 6 -14 16.5t-9 21t-2.5 18.5t5.5 10q5 1 28.5 -8.5t51.5 -23.5t53.5 -28.5t34.5 -21.5z" />
    <glyph glyph-name="oacute" unicode="&#xf3;" horiz-adv-x="253" 
d="M327 261q10 13 16 8.5t-2 -18.5q-6 -9 -17.5 -14.5t-26 -7.5t-31 -1t-31.5 5q-1 -11 -2.5 -22t-4.5 -23q-8 -34 -24.5 -65.5t-37.5 -56.5t-44.5 -42t-47.5 -22t-41.5 3t-27.5 27t-11.5 46.5t7.5 61.5q8 34 24.5 65.5t37.5 56.5t44.5 42.5t47.5 22.5q34 7 55 -13t25 -58
q12 -5 25.5 -7t26.5 -1.5t24 3.5t16 10zM205 198q3 11 4 22t1 21q-26 10 -39.5 27.5t-5.5 35.5h-6q-15 -2 -31 -13.5t-29.5 -29t-24.5 -40t-17 -46.5t-5.5 -44.5t7 -35t18 -21.5t26.5 -5q15 3 31 14.5t30 29t24.5 39.5t16.5 46zM126 439q9 7 34.5 21.5t53.5 28.5t51.5 23.5
t28.5 8.5q5 -2 5.5 -10t-2.5 -18.5t-9.5 -21t-13.5 -16.5q-4 -3 -20 -8t-36 -10t-41 -8.5t-36 -4.5t-20.5 2.5t5.5 12.5z" />
    <glyph glyph-name="ocircumflex" unicode="&#xf4;" horiz-adv-x="253" 
d="M327 261q10 13 16 8.5t-2 -18.5q-6 -9 -17.5 -14.5t-26 -7.5t-31 -1t-31.5 5q-1 -11 -2.5 -22t-4.5 -23q-8 -34 -24.5 -65.5t-37.5 -56.5t-44.5 -42t-47.5 -22t-41.5 3t-27.5 27t-11.5 46.5t7.5 61.5q8 34 24.5 65.5t37.5 56.5t44.5 42.5t47.5 22.5q34 7 55 -13t25 -58
q12 -5 25.5 -7t26.5 -1.5t24 3.5t16 10zM205 198q3 11 4 22t1 21q-26 10 -39.5 27.5t-5.5 35.5h-6q-15 -2 -31 -13.5t-29.5 -29t-24.5 -40t-17 -46.5t-5.5 -44.5t7 -35t18 -21.5t26.5 -5q15 3 31 14.5t30 29t24.5 39.5t16.5 46zM111 425q7 6 17 14.5t20 16.5t19 16t14 13
q13 11 21 11t16 -11l20 -27.5t23 -33.5q6 -8 4.5 -13.5t-6.5 -8t-11.5 -0.5t-12.5 10q-5 8 -11.5 16.5t-11.5 16.5l-12 18q-13 -10 -25 -20q-11 -8 -22.5 -17t-19.5 -15q-9 -6 -16 -7t-10.5 1.5t-3 8t7.5 11.5z" />
    <glyph glyph-name="otilde" unicode="&#xf5;" horiz-adv-x="253" 
d="M327 261q10 13 16 8.5t-2 -18.5q-6 -9 -17.5 -14.5t-26 -7.5t-31 -1t-31.5 5q-1 -11 -2.5 -22t-4.5 -23q-8 -34 -24.5 -65.5t-37.5 -56.5t-44.5 -42t-47.5 -22t-41.5 3t-27.5 27t-11.5 46.5t7.5 61.5q8 34 24.5 65.5t37.5 56.5t44.5 42.5t47.5 22.5q34 7 55 -13t25 -58
q12 -5 25.5 -7t26.5 -1.5t24 3.5t16 10zM205 198q3 11 4 22t1 21q-26 10 -39.5 27.5t-5.5 35.5h-6q-15 -2 -31 -13.5t-29.5 -29t-24.5 -40t-17 -46.5t-5.5 -44.5t7 -35t18 -21.5t26.5 -5q15 3 31 14.5t30 29t24.5 39.5t16.5 46zM277 453q10 -14 12.5 -23.5t-0.5 -13t-9 -1
t-13 14.5q-5 8 -15.5 7t-25 -6t-31.5 -10t-35 -6t-35 6t-32 27q-9 12 -10.5 20.5t1 12.5t8.5 1.5t12 -12.5q6 -11 26.5 -5.5t46.5 11.5t53 4.5t47 -27.5z" />
    <glyph glyph-name="odieresis" unicode="&#xf6;" horiz-adv-x="253" 
d="M327 261q10 13 16 8.5t-2 -18.5q-6 -9 -17.5 -14.5t-26 -7.5t-31 -1t-31.5 5q-1 -11 -2.5 -22t-4.5 -23q-8 -34 -24.5 -65.5t-37.5 -56.5t-44.5 -42t-47.5 -22t-41.5 3t-27.5 27t-11.5 46.5t7.5 61.5q8 34 24.5 65.5t37.5 56.5t44.5 42.5t47.5 22.5q34 7 55 -13t25 -58
q12 -5 25.5 -7t26.5 -1.5t24 3.5t16 10zM205 198q3 11 4 22t1 21q-26 10 -39.5 27.5t-5.5 35.5h-6q-15 -2 -31 -13.5t-29.5 -29t-24.5 -40t-17 -46.5t-5.5 -44.5t7 -35t18 -21.5t26.5 -5q15 3 31 14.5t30 29t24.5 39.5t16.5 46zM105 462q0 17 11 28.5t28 11.5t28.5 -11.5
t11.5 -28.5t-11.5 -28.5t-28.5 -11.5t-28 11.5t-11 28.5zM201 462q0 17 11 28.5t28 11.5t28.5 -11.5t11.5 -28.5t-11.5 -28.5t-28.5 -11.5t-28 11.5t-11 28.5z" />
    <glyph glyph-name="oslash" unicode="&#xf8;" horiz-adv-x="253" 
d="M327 261q10 13 16 8.5t-2 -18.5q-6 -9 -17.5 -14.5t-26 -7.5t-31 -1t-31.5 5q-1 -11 -2.5 -22t-4.5 -23q-8 -34 -24.5 -65.5t-37.5 -56.5t-44.5 -42t-47.5 -22q-31 -6 -51 8q-10 -13 -17 -22t-9 -13q-6 -8 -13 -10.5t-12 -1t-6.5 6t3.5 12.5q3 4 12.5 17t23.5 33
q-9 19 -10.5 46.5t6.5 61.5t24.5 65.5t37.5 56.5t44.5 42.5t47.5 22.5q31 6 53 -11q11 15 18 25t9 15q6 10 14 14.5t14 4t8.5 -5t-3.5 -13.5q-8 -11 -18.5 -27t-24.5 -36q7 -15 10 -37q12 -5 25.5 -7t26.5 -1.5t24 3.5t16 10zM172 265q-16 19 -7 39h-6q-15 -2 -31 -13.5
t-29.5 -29t-24.5 -40t-17 -46.5q-10 -43 -1 -73zM205 198q3 11 4 22t1 21q-5 2 -9 3.5t-8 3.5l-122 -171q14 -11 32 -8q15 3 31 14.5t30 29t24.5 39.5t16.5 46z" />
    <glyph glyph-name="ugrave" unicode="&#xf9;" horiz-adv-x="288" 
d="M134 108q3 9 6.5 18t6.5 19q-17 -29 -36 -55.5t-38 -46.5t-37 -31.5t-33 -11.5q-22 0 -24 32t13 80t45 103.5t73 102.5q10 11 20.5 9t1.5 -12q-23 -27 -43.5 -63.5t-33 -71t-15 -60.5t10.5 -31q12 -5 29.5 9t36 39t37 58.5t33.5 68.5q5 14 9 24.5t7 17.5q5 11 17 16t23 5
t17.5 -5.5t2.5 -15.5q-4 -11 -13.5 -37t-20 -56t-20 -58t-13.5 -41t-7 -24.5t-4 -19.5t2.5 -13t12.5 -5q18 0 43 24t45 59q10 17 17.5 13.5t-0.5 -21.5q-9 -20 -26.5 -42.5t-39.5 -41.5t-45 -31t-42 -12q-20 0 -27.5 10.5t-7.5 26.5t5.5 35t11.5 36zM275 422
q11 -9 5.5 -12.5t-20.5 -2.5t-36 4.5t-41 8.5t-36 10t-20 8q-8 6 -14 16.5t-9 21t-2.5 18.5t5.5 10q5 1 28.5 -8.5t51.5 -23.5t53.5 -28.5t34.5 -21.5z" />
    <glyph glyph-name="uacute" unicode="&#xfa;" horiz-adv-x="288" 
d="M134 108q3 9 6.5 18t6.5 19q-17 -29 -36 -55.5t-38 -46.5t-37 -31.5t-33 -11.5q-22 0 -24 32t13 80t45 103.5t73 102.5q10 11 20.5 9t1.5 -12q-23 -27 -43.5 -63.5t-33 -71t-15 -60.5t10.5 -31q12 -5 29.5 9t36 39t37 58.5t33.5 68.5q5 14 9 24.5t7 17.5q5 11 17 16t23 5
t17.5 -5.5t2.5 -15.5q-4 -11 -13.5 -37t-20 -56t-20 -58t-13.5 -41t-7 -24.5t-4 -19.5t2.5 -13t12.5 -5q18 0 43 24t45 59q10 17 17.5 13.5t-0.5 -21.5q-9 -20 -26.5 -42.5t-39.5 -41.5t-45 -31t-42 -12q-20 0 -27.5 10.5t-7.5 26.5t5.5 35t11.5 36zM149 439q9 7 34.5 21.5
t53.5 28.5t51.5 23.5t28.5 8.5q5 -2 5.5 -10t-2.5 -18.5t-9.5 -21t-13.5 -16.5q-4 -3 -20 -8t-36 -10t-41 -8.5t-36 -4.5t-20.5 2.5t5.5 12.5z" />
    <glyph glyph-name="ucircumflex" unicode="&#xfb;" horiz-adv-x="288" 
d="M134 108q3 9 6.5 18t6.5 19q-17 -29 -36 -55.5t-38 -46.5t-37 -31.5t-33 -11.5q-22 0 -24 32t13 80t45 103.5t73 102.5q10 11 20.5 9t1.5 -12q-23 -27 -43.5 -63.5t-33 -71t-15 -60.5t10.5 -31q12 -5 29.5 9t36 39t37 58.5t33.5 68.5q5 14 9 24.5t7 17.5q5 11 17 16t23 5
t17.5 -5.5t2.5 -15.5q-4 -11 -13.5 -37t-20 -56t-20 -58t-13.5 -41t-7 -24.5t-4 -19.5t2.5 -13t12.5 -5q18 0 43 24t45 59q10 17 17.5 13.5t-0.5 -21.5q-9 -20 -26.5 -42.5t-39.5 -41.5t-45 -31t-42 -12q-20 0 -27.5 10.5t-7.5 26.5t5.5 35t11.5 36zM138 447q7 6 17 14.5
t20 16.5t19 16t14 13q13 11 21 11t16 -11l20 -27.5t23 -33.5q6 -8 4.5 -13.5t-6.5 -8t-11.5 -0.5t-12.5 10q-5 8 -11.5 16.5t-11.5 16.5l-12 18q-13 -10 -25 -20q-11 -8 -22.5 -17t-19.5 -15q-9 -6 -16 -7t-10.5 1.5t-3 8t7.5 11.5z" />
    <glyph glyph-name="udieresis" unicode="&#xfc;" horiz-adv-x="288" 
d="M134 108q3 9 6.5 18t6.5 19q-17 -29 -36 -55.5t-38 -46.5t-37 -31.5t-33 -11.5q-22 0 -24 32t13 80t45 103.5t73 102.5q10 11 20.5 9t1.5 -12q-23 -27 -43.5 -63.5t-33 -71t-15 -60.5t10.5 -31q12 -5 29.5 9t36 39t37 58.5t33.5 68.5q5 14 9 24.5t7 17.5q5 11 17 16t23 5
t17.5 -5.5t2.5 -15.5q-4 -11 -13.5 -37t-20 -56t-20 -58t-13.5 -41t-7 -24.5t-4 -19.5t2.5 -13t12.5 -5q18 0 43 24t45 59q10 17 17.5 13.5t-0.5 -21.5q-9 -20 -26.5 -42.5t-39.5 -41.5t-45 -31t-42 -12q-20 0 -27.5 10.5t-7.5 26.5t5.5 35t11.5 36zM232 477q0 17 11 28.5
t28 11.5t28.5 -11.5t11.5 -28.5t-11.5 -28.5t-28.5 -11.5t-28 11.5t-11 28.5zM136 477q0 17 11 28.5t28 11.5t28.5 -11.5t11.5 -28.5t-11.5 -28.5t-28.5 -11.5t-28 11.5t-11 28.5z" />
    <glyph glyph-name="yacute" unicode="&#xfd;" horiz-adv-x="276" 
d="M287 167q16 13 21 6.5t-9 -20.5q-24 -23 -50.5 -53t-51 -63.5t-45 -68.5t-31.5 -69l-2 -5l-8 -24q-5 -19 -3.5 -21t15.5 5q16 8 18.5 -2t-19.5 -19q-8 -3 -24.5 -11t-32.5 -13.5t-26.5 -4.5t-5.5 16l107 312q-17 -27 -34.5 -51t-35.5 -42t-35 -28.5t-31 -10.5
q-22 0 -24.5 32t12.5 80t45.5 103.5t73.5 102.5q9 10 20 8.5t2 -11.5q-24 -27 -44 -63.5t-32.5 -71t-15 -60.5t10.5 -31q11 -5 28 8.5t35.5 38t37 57t33.5 67.5q6 18 10.5 30t6.5 16q5 11 17 16t23.5 5t19 -5.5t3.5 -15.5q-2 -6 -12 -33t-24.5 -67t-32 -87.5t-33.5 -93.5
q16 23 33 45t33.5 41t31 33.5t25.5 22.5zM159 439q9 7 34.5 21.5t53.5 28.5t51.5 23.5t28.5 8.5q5 -2 5.5 -10t-2.5 -18.5t-9.5 -21t-13.5 -16.5q-4 -3 -20 -8t-36 -10t-41 -8.5t-36 -4.5t-20.5 2.5t5.5 12.5z" />
    <glyph glyph-name="ydieresis" unicode="&#xff;" horiz-adv-x="276" 
d="M287 167q16 13 21 6.5t-9 -20.5q-24 -23 -50.5 -53t-51 -63.5t-45 -68.5t-31.5 -69l-2 -5l-8 -24q-5 -19 -3.5 -21t15.5 5q16 8 18.5 -2t-19.5 -19q-8 -3 -24.5 -11t-32.5 -13.5t-26.5 -4.5t-5.5 16l107 312q-17 -27 -34.5 -51t-35.5 -42t-35 -28.5t-31 -10.5
q-22 0 -24.5 32t12.5 80t45.5 103.5t73.5 102.5q9 10 20 8.5t2 -11.5q-24 -27 -44 -63.5t-32.5 -71t-15 -60.5t10.5 -31q11 -5 28 8.5t35.5 38t37 57t33.5 67.5q6 18 10.5 30t6.5 16q5 11 17 16t23.5 5t19 -5.5t3.5 -15.5q-2 -6 -12 -33t-24.5 -67t-32 -87.5t-33.5 -93.5
q16 23 33 45t33.5 41t31 33.5t25.5 22.5zM247 477q0 17 11 28.5t28 11.5t28.5 -11.5t11.5 -28.5t-11.5 -28.5t-28.5 -11.5t-28 11.5t-11 28.5zM151 477q0 17 11 28.5t28 11.5t28.5 -11.5t11.5 -28.5t-11.5 -28.5t-28.5 -11.5t-28 11.5t-11 28.5z" />
    <glyph glyph-name="uni00AD" unicode="&#xad;" horiz-adv-x="264" 
d="M209 172q9 0 11.5 -6t0 -13t-8 -13t-13.5 -6h-152q-9 0 -12 6t-0.5 13t8.5 13t14 6h152z" />
    <glyph glyph-name="Aogonek" unicode="&#x104;" horiz-adv-x="512" 
d="M531 528q2 0 3 -0.5t3 -0.5q9 -2 15 -7t2 -14q-3 -7 -13.5 -36.5t-24.5 -70t-29.5 -87t-29.5 -87.5t-24 -71.5t-12 -39.5q-4 -13 -7.5 -24.5t-4 -19.5t2.5 -13t12 -5q19 0 43.5 24t44.5 59q11 17 18.5 13.5t-0.5 -21.5q-7 -16 -20 -33.5t-29 -33.5t-34 -29.5t-35 -21.5
q-24 -15 -40.5 -32.5t-25.5 -32t-10 -24t7 -9.5q13 0 20.5 9t12.5 22q5 15 14.5 15t5.5 -14q-4 -16 -18 -34t-43 -18q-17 0 -31 10t-15.5 25.5t14 35.5t59.5 40q-12 4 -16.5 15.5t-3 26.5t6 32t10.5 32q4 12 10 29t13 38h-93q-20 -36 -42 -68.5t-45.5 -56.5t-49.5 -38
t-55 -14q-45 0 -67 20.5t-26 46t9.5 47.5t39.5 25q19 2 28 -7.5t11 -22t-2 -23.5t-11 -11q-13 0 -19 -9t-4 -19.5t11.5 -19t27.5 -8.5q16 0 32 12.5t32 33.5t32.5 50t33.5 62q-55 3 -83 30.5t-29.5 67t23.5 84t77.5 83t131.5 63.5t186 25zM236 197q22 44 46 90.5t51 88.5
t57 76.5t65 54.5q-61 -11 -110.5 -37.5t-85 -60t-56.5 -69.5t-25.5 -67t9.5 -52t49 -24zM389 197q14 43 30.5 92t31 93t26 77t16.5 44q-25 -14 -48.5 -46t-46.5 -74t-47 -90.5t-49 -95.5h87z" />
    <glyph glyph-name="Lcaron" unicode="&#x13d;" horiz-adv-x="370" 
d="M323 -122q-21 0 -44 15t-46.5 35.5t-47 42t-45.5 33.5q-18 -6 -37 -6q-23 0 -33.5 6.5t-10 14.5t12.5 14.5t35 6.5q7 0 15 -2t18 -5q21 18 40.5 51.5t38 75.5t36.5 89t37 92q-18 -23 -39.5 -45.5t-47 -40.5t-54.5 -29.5t-60 -11.5q-39 0 -61 20t-26 50.5t10.5 66t49.5 66
t89.5 50.5t131.5 20q26 0 46.5 0.5t37.5 1.5q14 16 27.5 26t28.5 12q23 3 35.5 -7.5t7.5 -24.5q-5 -12 -19.5 -18t-47.5 -9q-11 -21 -23.5 -57t-27.5 -79t-32.5 -89.5t-39.5 -89t-48 -78t-57 -55.5q25 -12 54 -26t58.5 -25.5t58.5 -16t55 3.5q12 3 14 -0.5t-3 -14.5
t-13.5 -22t-20 -20t-25 -15t-28.5 -6zM355 441q-7 -15 -17 -31q-8 -14 -19.5 -31.5t-26.5 -37.5q11 29 23 54.5t25 48.5q0 2 1 2q2 5 5 9.5t6 9.5h-70q-46 0 -84 -16t-65.5 -39.5t-44 -51t-19 -51t9 -39.5t40.5 -16q37 0 73.5 25t66.5 57.5t51.5 64t29.5 45.5q0 2 1 2l3 6z
M410 433q9 14 24.5 19t29.5 -5q19 -14 15 -35.5t-19.5 -40.5t-38.5 -30.5t-41 -5.5q22 15 26.5 27t2.5 23t-4.5 22.5t5.5 25.5z" />
    <glyph glyph-name="Sacute" unicode="&#x15a;" horiz-adv-x="341" 
d="M134 204q-12 1 -28.5 -7t-30 -22.5t-21 -34.5t-2.5 -44q6 -30 23 -48.5t37 -22.5t40 7t32 39t13 73.5t-17 111.5q-23 85 -20 141.5t21.5 88.5t48.5 42t59.5 3t54.5 -29.5t35 -54.5q4 -15 4 -34.5t-6 -37.5t-19.5 -31t-34.5 -14q-21 -2 -29.5 9.5t-9 25.5t4.5 26t10 12
t12 5t12.5 13.5t8 20t-0.5 24.5q-4 14 -16 26.5t-26.5 16t-28 -4t-20.5 -32t-3.5 -69.5t23.5 -115q24 -86 17.5 -144.5t-30.5 -93t-60.5 -46.5t-72.5 -4.5t-65.5 32.5t-39.5 64q-9 34 -4.5 65t18 55t34.5 40t46 21q20 4 30 -7.5t12.5 -26t-1 -27.5t-10.5 -12zM301 574
q9 7 34.5 21.5t53.5 28.5t51.5 23.5t28.5 8.5q5 -2 5.5 -10t-2.5 -18.5t-9.5 -21t-13.5 -16.5q-4 -3 -20 -8t-36 -10t-41 -8.5t-36 -4.5t-20.5 2.5t5.5 12.5z" />
    <glyph glyph-name="Scommaaccent" unicode="&#x218;" horiz-adv-x="341" 
d="M134 204q-12 1 -28.5 -7t-30 -22.5t-21 -34.5t-2.5 -44q6 -30 23 -48.5t37 -22.5t40 7t32 39t13 73.5t-17 111.5q-23 85 -20 141.5t21.5 88.5t48.5 42t59.5 3t54.5 -29.5t35 -54.5q4 -15 4 -34.5t-6 -37.5t-19.5 -31t-34.5 -14q-21 -2 -29.5 9.5t-9 25.5t4.5 26t10 12
t12 5t12.5 13.5t8 20t-0.5 24.5q-4 14 -16 26.5t-26.5 16t-28 -4t-20.5 -32t-3.5 -69.5t23.5 -115q24 -86 17.5 -144.5t-30.5 -93t-60.5 -46.5t-72.5 -4.5t-65.5 32.5t-39.5 64q-9 34 -4.5 65t18 55t34.5 40t46 21q20 4 30 -7.5t12.5 -26t-1 -27.5t-10.5 -12zM1 -35
q9 14 24.5 19t29.5 -5q19 -14 15 -35.5t-19.5 -40.5t-38.5 -30.5t-41 -5.5q22 15 26.5 27t2.5 23t-4.5 22.5t5.5 25.5z" />
    <glyph glyph-name="Tcaron" unicode="&#x164;" horiz-adv-x="360" 
d="M94 14q21 0 41.5 18t41 48.5t41.5 70.5t43 83.5t45 87t47 82.5q-24 -19 -54 -38.5t-64 -33t-70.5 -17.5t-71.5 7q-37 12 -53.5 37.5t-13.5 55.5t25 59.5t61.5 47.5t96 20.5t129.5 -20.5q29 -9 53.5 -13.5t43.5 -6.5q19 16 39 24.5t42 7.5q43 -2 55 -16t4 -27
q-12 -18 -44.5 -22.5t-81.5 3.5q-16 -27 -37 -73t-46 -99t-54.5 -107.5t-63.5 -98t-72 -71.5t-80 -28q-29 0 -49 10t-30.5 24.5t-12.5 32.5t2.5 33.5t16.5 26.5t29 13q19 2 28 -8t11 -22.5t-1.5 -23.5t-10.5 -11q-14 0 -19.5 -9t-3.5 -19.5t11.5 -19t26.5 -8.5zM131 349
q33 -11 70.5 -1.5t73.5 28.5t66 41t48 37q5 7 10 13t11 12q-19 5 -39 10.5t-42 12.5q-44 14 -83.5 10.5t-70.5 -17.5t-51.5 -35.5t-28 -43t0.5 -40.5t35 -27zM537 618q-7 -6 -17 -14.5t-20 -16.5t-19 -16t-14 -13q-13 -11 -21 -11t-16 11l-20 27.5t-23 33.5q-6 8 -4.5 13.5
t6.5 8t11.5 0t12.5 -9.5q5 -8 11.5 -16.5t11.5 -16.5l12 -18q13 10 25 20q11 8 22.5 17t19.5 15q9 6 16 7t10.5 -1.5t3 -8t-7.5 -11.5z" />
    <glyph glyph-name="Zacute" unicode="&#x179;" horiz-adv-x="465" 
d="M322 -41q-20 0 -46.5 5.5t-56.5 13.5t-60.5 16t-57.5 14q-14 -5 -28 -7.5t-28 -2.5q-23 0 -33.5 6.5t-10 14.5t12.5 14.5t35 6.5q18 0 45 -3q33 24 71.5 68.5t79 97.5t82 109t80.5 103q-30 -20 -73 -40q-53 -25 -92.5 -27t-66 9.5t-38.5 34t-8.5 46.5t23 47t56.5 36
t91.5 12t127.5 -23q33 -10 58 -15q34 28 59 32q23 3 35.5 -7.5t7.5 -24.5q-5 -13 -19.5 -21t-51.5 -5q-16 -20 -38.5 -53.5t-50.5 -74t-60.5 -85t-68 -86.5t-73.5 -78t-76 -60q31 -3 65 -5t67 -2.5t63.5 2t53.5 9.5q12 4 14 0t-3 -15q-9 -21 -33 -41.5t-54 -20.5zM326 397
q48 19 84.5 43t53.5 38q-19 4 -46 12q-43 12 -80 10.5t-65.5 -11t-48.5 -25.5t-29 -32.5t-7 -31t17.5 -21t45.5 -3.5t75 21zM412 577q9 7 34.5 21.5t53.5 28.5t51.5 23.5t28.5 8.5q5 -2 5.5 -10t-2.5 -18.5t-9.5 -21t-13.5 -16.5q-4 -3 -20 -8t-36 -10t-41 -8.5t-36 -4.5
t-20.5 2.5t5.5 12.5z" />
    <glyph glyph-name="Zdotaccent" unicode="&#x17b;" horiz-adv-x="465" 
d="M322 -41q-20 0 -46.5 5.5t-56.5 13.5t-60.5 16t-57.5 14q-14 -5 -28 -7.5t-28 -2.5q-23 0 -33.5 6.5t-10 14.5t12.5 14.5t35 6.5q18 0 45 -3q33 24 71.5 68.5t79 97.5t82 109t80.5 103q-30 -20 -73 -40q-53 -25 -92.5 -27t-66 9.5t-38.5 34t-8.5 46.5t23 47t56.5 36
t91.5 12t127.5 -23q33 -10 58 -15q34 28 59 32q23 3 35.5 -7.5t7.5 -24.5q-5 -13 -19.5 -21t-51.5 -5q-16 -20 -38.5 -53.5t-50.5 -74t-60.5 -85t-68 -86.5t-73.5 -78t-76 -60q31 -3 65 -5t67 -2.5t63.5 2t53.5 9.5q12 4 14 0t-3 -15q-9 -21 -33 -41.5t-54 -20.5zM326 397
q48 19 84.5 43t53.5 38q-19 4 -46 12q-43 12 -80 10.5t-65.5 -11t-48.5 -25.5t-29 -32.5t-7 -31t17.5 -21t45.5 -3.5t75 21zM411 585q0 17 11 28.5t28 11.5t28.5 -11.5t11.5 -28.5t-11.5 -28.5t-28.5 -11.5t-28 11.5t-11 28.5z" />
    <glyph glyph-name="aogonek" unicode="&#x105;" horiz-adv-x="308" 
d="M183 329q27 0 40 -24l1 1q5 11 16.5 16t22.5 5t18 -5.5t3 -15.5q-5 -11 -14.5 -37t-20 -56t-19.5 -58t-13 -41t-7.5 -24.5t-4.5 -19.5t2.5 -13t12.5 -5q19 0 43.5 24t44.5 59q11 17 18.5 13.5t-0.5 -21.5q-7 -16 -20 -34t-29.5 -34.5t-34.5 -30t-36 -20.5
q-23 -15 -39.5 -32.5t-25.5 -31.5t-10 -23.5t7 -9.5q13 0 20.5 9t12.5 22q5 15 14.5 15t5.5 -14q-4 -16 -18 -34t-43 -18q-17 0 -31 10t-15.5 25.5t14 35.5t59.5 40q-15 5 -18 20t0 34q-26 -27 -52 -42.5t-49 -15.5q-21 0 -33 13.5t-16 36t1.5 52.5t20.5 64t36 64t44.5 52.5
t47 35.5t44.5 13zM155 108q17 48 32 94t26 76q-8 24 -29 26q-14 0 -30 -9.5t-32 -26t-30 -39t-24 -48.5q-21 -52 -16.5 -89t31.5 -38q15 -1 32.5 10.5t34.5 31.5z" />
    <glyph glyph-name="lcaron" unicode="&#x13e;" horiz-adv-x="144" 
d="M-10 108l18.5 55.5t25 74.5t27 82t25 77.5t20.5 61t12 32.5q5 11 17 16t23 5t17.5 -5.5t2.5 -15.5q-3 -7 -12.5 -35t-23 -67t-28 -83.5t-27.5 -84t-23 -69t-12 -38.5q-4 -13 -7.5 -24.5t-4.5 -19.5t2.5 -13t12.5 -5q19 0 43.5 24t44.5 59q11 17 18.5 13.5t-0.5 -21.5
q-9 -20 -27 -42.5t-39.5 -41.5t-45 -31t-42.5 -12q-20 0 -27 10.5t-7 26.5t5.5 35t11.5 36zM171 447q9 14 24.5 19t29.5 -5q19 -14 15 -35.5t-19.5 -40.5t-38.5 -30.5t-41 -5.5q22 15 26.5 27t2.5 23t-4.5 22.5t5.5 25.5z" />
    <glyph glyph-name="sacute" unicode="&#x15b;" horiz-adv-x="224" 
d="M101 319q9 7 21.5 9t22 0.5t13 -5t-4.5 -8.5q-13 -8 -15.5 -18.5t0.5 -24.5t10 -31.5t13 -37.5q11 -39 9.5 -78.5t-18.5 -69.5q38 28 72 80q11 16 19 12.5t-1 -20.5q-4 -8 -15.5 -25t-30.5 -36t-46 -36t-63 -25q-20 -5 -42 -5q-30 0 -48.5 14t-26 35t-5.5 45t12.5 45
t28.5 35t42 14q12 0 18 -10t7 -22t-2 -21.5t-8 -9.5q-26 0 -41 -16t-18 -35.5t7 -35.5t34 -16q21 0 35 15.5t20 39t5.5 52.5t-7.5 56q-6 24 -12.5 43.5t-8.5 36t3 30t21 24.5zM112 439q9 7 34.5 21.5t53.5 28.5t51.5 23.5t28.5 8.5q5 -2 5.5 -10t-2.5 -18.5t-9.5 -21
t-13.5 -16.5q-4 -3 -20 -8t-36 -10t-41 -8.5t-36 -4.5t-20.5 2.5t5.5 12.5z" />
    <glyph glyph-name="scommaaccent" unicode="&#x219;" horiz-adv-x="224" 
d="M101 319q9 7 21.5 9t22 0.5t13 -5t-4.5 -8.5q-13 -8 -15.5 -18.5t0.5 -24.5t10 -31.5t13 -37.5q11 -39 9.5 -78.5t-18.5 -69.5q38 28 72 80q11 16 19 12.5t-1 -20.5q-4 -8 -15.5 -25t-30.5 -36t-46 -36t-63 -25q-20 -5 -42 -5q-30 0 -48.5 14t-26 35t-5.5 45t12.5 45
t28.5 35t42 14q12 0 18 -10t7 -22t-2 -21.5t-8 -9.5q-26 0 -41 -16t-18 -35.5t7 -35.5t34 -16q21 0 35 15.5t20 39t5.5 52.5t-7.5 56q-6 24 -12.5 43.5t-8.5 36t3 30t21 24.5zM-35 -48q9 14 24.5 19t29.5 -5q19 -14 15 -35.5t-19.5 -40.5t-38.5 -30.5t-41 -5.5
q22 15 26.5 27t2.5 23t-4.5 22.5t5.5 25.5z" />
    <glyph glyph-name="tcaron" unicode="&#x165;" horiz-adv-x="144" 
d="M127 344q-10 -29 -22 -65t-22.5 -69.5t-19 -59.5t-11.5 -36q-4 -13 -7.5 -24.5t-4 -19.5t2.5 -13t12 -5q19 0 44 24t45 59q10 17 17.5 13.5t-0.5 -21.5q-9 -20 -26.5 -42.5t-39.5 -41.5t-45 -31t-42 -12q-20 0 -27.5 10.5t-7.5 26.5t5.5 35t11.5 36q9 24 19.5 55.5t21 64
t20.5 63t18 53.5h-41q-5 0 -6 4t1 9t6 9t9 4h40l4 10q4 11 16.5 20t25 13t20.5 1.5t4 -12.5l-12 -32h55q5 0 6 -4t-1 -9t-6 -9t-9 -4h-54zM185 491q9 14 24.5 19t29.5 -5q19 -14 15 -35.5t-19.5 -40.5t-38.5 -30.5t-41 -5.5q22 15 26.5 27t2.5 23t-4.5 22.5t5.5 25.5z" />
    <glyph glyph-name="zacute" unicode="&#x17a;" horiz-adv-x="277" 
d="M260 324q6 3 16 2.5t19 -3t13 -6.5t-2 -7q-17 -10 -49.5 -37t-69.5 -62.5t-74.5 -74.5t-64.5 -73q21 13 40.5 12.5t37.5 -6.5t34 -13t30 -7t27.5 10t25 24t20.5 28.5t14 23.5q9 16 18 13.5t-1 -21.5q-9 -18 -22.5 -40t-31 -41.5t-37 -32.5t-40.5 -13q-18 0 -38 8t-39 15
t-37 8t-33 -13q-4 -4 -9.5 -6t-9.5 -1t-5 5.5t5 13.5q16 25 41.5 61t51.5 71t49.5 65.5t35.5 45.5q-29 -8 -49.5 -10.5t-31.5 -2.5q-10 -17 -21.5 -37.5t-22.5 -39t-20 -34t-13 -22.5q-13 -23 -22 -19t5 27l71 126q-17 4 -18 20.5t8 33.5t24.5 31t29.5 14q12 0 16 -7
t1.5 -18.5t-9 -25.5t-15.5 -28q36 0 74.5 13t77.5 30zM178 428q9 7 34.5 21.5t53.5 28.5t51.5 23.5t28.5 8.5q5 -2 5.5 -10t-2.5 -18.5t-9.5 -21t-13.5 -16.5q-4 -3 -20 -8t-36 -10t-41 -8.5t-36 -4.5t-20.5 2.5t5.5 12.5z" />
    <glyph glyph-name="zdotaccent" unicode="&#x17c;" horiz-adv-x="277" 
d="M260 324q6 3 16 2.5t19 -3t13 -6.5t-2 -7q-17 -10 -49.5 -37t-69.5 -62.5t-74.5 -74.5t-64.5 -73q21 13 40.5 12.5t37.5 -6.5t34 -13t30 -7t27.5 10t25 24t20.5 28.5t14 23.5q9 16 18 13.5t-1 -21.5q-9 -18 -22.5 -40t-31 -41.5t-37 -32.5t-40.5 -13q-18 0 -38 8t-39 15
t-37 8t-33 -13q-4 -4 -9.5 -6t-9.5 -1t-5 5.5t5 13.5q16 25 41.5 61t51.5 71t49.5 65.5t35.5 45.5q-29 -8 -49.5 -10.5t-31.5 -2.5q-10 -17 -21.5 -37.5t-22.5 -39t-20 -34t-13 -22.5q-13 -23 -22 -19t5 27l71 126q-17 4 -18 20.5t8 33.5t24.5 31t29.5 14q12 0 16 -7
t1.5 -18.5t-9 -25.5t-15.5 -28q36 0 74.5 13t77.5 30zM201 443q0 17 11 28.5t28 11.5t28.5 -11.5t11.5 -28.5t-11.5 -28.5t-28.5 -11.5t-28 11.5t-11 28.5z" />
    <glyph glyph-name="Racute" unicode="&#x154;" horiz-adv-x="550" 
d="M412 528q53 0 82.5 -19.5t39 -49.5t1.5 -64.5t-29 -65.5t-53.5 -52.5t-71.5 -24.5q25 -21 35 -55t15.5 -66.5t10.5 -55.5t20 -23q19 0 43.5 24t44.5 59q11 17 18.5 13.5t-0.5 -21.5q-9 -20 -27 -42.5t-39.5 -41.5t-45 -31t-42.5 -12q-24 0 -34 17t-13 43t-1.5 57.5
t0.5 60t-8.5 50t-26.5 28.5q-1 0 -2 1q-8 2 -12 4h-1q-18 -49 -39.5 -96t-48 -84t-59 -60t-71.5 -23q-44 0 -66 20.5t-26 46t9 47.5t39 25q19 2 28 -7.5t11 -22t-1.5 -23.5t-10.5 -11q-14 0 -19.5 -9t-3.5 -19.5t11.5 -19t26.5 -8.5q27 0 50 30t44.5 76.5t42 103t41.5 109.5
q-31 -39 -71 -67.5t-88 -28.5q-40 0 -58.5 21t-15.5 53t27 69t70 69t113 53.5t156 22.5h5zM314 423q18 34 37.5 57t41.5 28q-53 -3 -99 -21.5t-82 -45t-61 -56t-36 -55t-6.5 -42t26.5 -16.5q30 0 58.5 17.5t52 42t41.5 50t27 41.5zM417 509q-10 0 -20 -19.5t-21 -51.5
t-24 -73.5t-29 -86.5q24 -9 48.5 3.5t44.5 36.5t33.5 55.5t16.5 60t-6.5 50t-36.5 25.5h-6zM377 577q9 7 34.5 21.5t53.5 28.5t51.5 23.5t28.5 8.5q5 -2 5.5 -10t-2.5 -18.5t-9.5 -21t-13.5 -16.5q-4 -3 -20 -8t-36 -10t-41 -8.5t-36 -4.5t-20.5 2.5t5.5 12.5z" />
    <glyph glyph-name="Abreve" unicode="&#x102;" horiz-adv-x="512" 
d="M532 528q2 0 3 -0.5t2 -0.5q9 -2 15 -7t2 -14q-3 -7 -13.5 -36.5t-24.5 -70t-29.5 -87t-29.5 -87.5t-24 -71.5t-12 -39.5q-4 -13 -7.5 -24.5t-4 -19.5t2.5 -13t12 -5q19 0 43.5 24t44.5 59q11 17 18.5 13.5t-0.5 -21.5q-9 -20 -27 -42.5t-39.5 -41.5t-44.5 -31t-42 -12
q-20 0 -27.5 10.5t-7.5 26.5t5.5 35t11.5 36q4 12 10 29t13 38h-93q-20 -36 -42 -68.5t-45.5 -56.5t-49.5 -38t-55 -14q-45 0 -67 20.5t-26 46t9.5 47.5t39.5 25q19 2 28 -7.5t11 -22t-2 -23.5t-11 -11q-13 0 -19 -9t-4 -19.5t11.5 -19t27.5 -8.5q16 0 32 12.5t32 33.5
t32.5 50t33.5 62q-55 3 -83 30.5t-29.5 67t23.5 84t77.5 83t131.5 63.5t186 25h1zM236 197q22 44 46 90.5t51 88.5t57 76.5t65 54.5q-61 -11 -110.5 -37.5t-85 -60t-56.5 -69.5t-25.5 -67t9.5 -52t49 -24zM389 197q14 43 30.5 92t31 93t26 77t16.5 44q-25 -14 -48.5 -46
t-46.5 -74t-47 -90.5t-49 -95.5h87zM594 650q1 7 7 10t12 2.5t10.5 -4.5t2.5 -11q-4 -17 -14.5 -31.5t-25 -25.5t-31.5 -17.5t-33 -6.5q-33 0 -49.5 23.5t-8.5 57.5q2 8 7.5 11.5t11.5 3.5t9.5 -4t0.5 -11q-8 -22 1.5 -36t32.5 -14q22 0 42 15t25 38z" />
    <glyph glyph-name="Lacute" unicode="&#x139;" horiz-adv-x="370" 
d="M323 -122q-21 0 -44 15t-46.5 35.5t-47 42t-45.5 33.5q-18 -6 -37 -6q-23 0 -33.5 6.5t-10 14.5t12.5 14.5t35 6.5q7 0 15 -2t18 -5q21 18 40.5 51.5t38 75.5t36.5 89t37 92q-18 -23 -39.5 -45.5t-47 -40.5t-54.5 -29.5t-60 -11.5q-39 0 -61 20t-26 50.5t10.5 66t49.5 66
t89.5 50.5t131.5 20q26 0 46.5 0.5t37.5 1.5q14 16 27.5 26t28.5 12q23 3 35.5 -7.5t7.5 -24.5q-5 -12 -19.5 -18t-47.5 -9q-11 -21 -23.5 -57t-27.5 -79t-32.5 -89.5t-39.5 -89t-48 -78t-57 -55.5q25 -12 54 -26t58.5 -25.5t58.5 -16t55 3.5q12 3 14 -0.5t-3 -14.5
t-13.5 -22t-20 -20t-25 -15t-28.5 -6zM355 441q-7 -15 -17 -31q-8 -14 -19.5 -31.5t-26.5 -37.5q11 29 23 54.5t25 48.5q0 2 1 2q2 5 5 9.5t6 9.5h-70q-46 0 -84 -16t-65.5 -39.5t-44 -51t-19 -51t9 -39.5t40.5 -16q37 0 73.5 25t66.5 57.5t51.5 64t29.5 45.5q0 2 1 2l3 6z
M405 570q9 7 34.5 21.5t53.5 28.5t51.5 23.5t28.5 8.5q5 -2 5.5 -10t-2.5 -18.5t-9.5 -21t-13.5 -16.5q-4 -3 -20 -8t-36 -10t-41 -8.5t-36 -4.5t-20.5 2.5t5.5 12.5z" />
    <glyph glyph-name="Cacute" unicode="&#x106;" horiz-adv-x="290" 
d="M269 522q39 7 64 -5t37 -34.5t12.5 -51t-8.5 -54t-27 -44.5t-42 -22q-26 -4 -42 6.5t-23 24t-4.5 25t13.5 11.5q11 -1 23.5 8.5t23 24t17 31t6 30t-10 22t-31.5 6.5q-28 -5 -56.5 -26.5t-53.5 -53.5t-44 -72.5t-28 -83.5q-9 -44 -7 -80.5t14.5 -62t33.5 -37.5t49 -7
q31 6 61 24.5t65 68.5q8 11 15.5 17t11.5 6.5t3.5 -5.5t-7.5 -19q-16 -29 -39 -57t-49 -50.5t-54 -38t-54 -20.5q-38 -8 -65.5 5t-43.5 43t-18.5 74.5t11.5 98.5q13 54 39 105t59.5 91.5t72 68t76.5 33.5zM263 572q9 7 34.5 21.5t53.5 28.5t51.5 23.5t28.5 8.5q5 -2 5.5 -10
t-2.5 -18.5t-9.5 -21t-13.5 -16.5q-4 -3 -20 -8t-36 -10t-41 -8.5t-36 -4.5t-20.5 2.5t5.5 12.5z" />
    <glyph glyph-name="Ccaron" unicode="&#x10c;" horiz-adv-x="290" 
d="M269 522q39 7 64 -5t37 -34.5t12.5 -51t-8.5 -54t-27 -44.5t-42 -22q-26 -4 -42 6.5t-23 24t-4.5 25t13.5 11.5q11 -1 23.5 8.5t23 24t17 31t6 30t-10 22t-31.5 6.5q-28 -5 -56.5 -26.5t-53.5 -53.5t-44 -72.5t-28 -83.5q-9 -44 -7 -80.5t14.5 -62t33.5 -37.5t49 -7
q31 6 61 24.5t65 68.5q8 11 15.5 17t11.5 6.5t3.5 -5.5t-7.5 -19q-16 -29 -39 -57t-49 -50.5t-54 -38t-54 -20.5q-38 -8 -65.5 5t-43.5 43t-18.5 74.5t11.5 98.5q13 54 39 105t59.5 91.5t72 68t76.5 33.5zM400 625q-7 -6 -17 -14.5t-20 -16.5t-19 -16t-14 -13
q-13 -11 -21 -11t-16 11l-20 27.5t-23 33.5q-6 8 -4.5 13.5t6.5 8t11.5 0t12.5 -9.5q5 -8 11.5 -16.5t11.5 -16.5l12 -18q13 10 25 20q11 8 22.5 17t19.5 15q9 6 16 7t10.5 -1.5t3 -8t-7.5 -11.5z" />
    <glyph glyph-name="Eogonek" unicode="&#x118;" horiz-adv-x="297" 
d="M266 522q40 3 65.5 -11t37.5 -36t12.5 -49.5t-9 -51.5t-27.5 -42t-42 -21q-27 -4 -43 6.5t-22.5 24t-4 25t13.5 11.5q11 -1 23.5 8.5t23 23.5t17 30t6 29.5t-10.5 22.5t-32 8q-32 -2 -57 -27t-39.5 -59t-14.5 -67.5t20 -51.5q6 -6 6.5 -11t-10.5 -7q-24 -6 -42 -22
t-28.5 -37.5t-13.5 -45t3 -44t22 -35t42 -17.5q34 -3 73 20t74 74q7 11 14.5 17t11.5 6.5t4 -5.5t-7 -19q-15 -27 -35.5 -52t-44 -46t-48.5 -37.5t-49 -25.5q-24 -15 -40.5 -32.5t-25.5 -31.5t-10 -23.5t7 -9.5q13 0 20.5 9t12.5 22q5 15 14.5 15t5.5 -14q-4 -16 -18 -34
t-43 -18q-17 0 -30.5 9.5t-15.5 25t13 35t56 39.5q-27 2 -47.5 17.5t-32.5 39.5t-15 54t6 62q9 31 25.5 53.5t35.5 36.5t38.5 21t35.5 7q-27 22 -34 59.5t7.5 74.5t50.5 65t95 32z" />
    <glyph glyph-name="Ecaron" unicode="&#x11a;" horiz-adv-x="297" 
d="M266 522q40 3 65.5 -11t37.5 -36t12.5 -49.5t-9 -51.5t-27.5 -42t-42 -21q-27 -4 -43 6.5t-22.5 24t-4 25t13.5 11.5q11 -1 23.5 8.5t23 23.5t17 30t6 29.5t-10.5 22.5t-32 8q-32 -2 -57 -27t-39.5 -59t-14.5 -67.5t20 -51.5q6 -6 6.5 -11t-10.5 -7q-24 -6 -42 -22
t-28.5 -37.5t-13.5 -45t3 -44t22 -35t42 -17.5q34 -3 73 20t74 74q7 11 14.5 17t11.5 6.5t4 -5.5t-7 -19q-16 -29 -39 -56.5t-49.5 -50t-54.5 -38t-53 -21.5q-34 -8 -61.5 4t-45 36.5t-23 59t5.5 70.5q9 31 25.5 53.5t35.5 36.5t38.5 21t35.5 7q-27 22 -34 59.5t7.5 74.5
t50.5 65t95 32zM391 615q-7 -6 -17 -14.5t-20 -16.5t-19 -16t-14 -13q-13 -11 -21 -11t-16 11l-20 27.5t-23 33.5q-6 8 -4.5 13.5t6.5 8t11.5 0t12.5 -9.5q5 -8 11.5 -16.5t11.5 -16.5l12 -18q13 10 25 20q11 8 22.5 17t19.5 15q9 6 16 7t10.5 -1.5t3 -8t-7.5 -11.5z" />
    <glyph glyph-name="Dcaron" unicode="&#x10e;" horiz-adv-x="523" 
d="M267 -2q-2 0 -3.5 0.5t-3.5 0.5q-26 3 -43 14t-25 27q-21 -20 -45 -31t-51 -11q-44 0 -66 20.5t-26 46t9.5 47.5t39.5 25q19 2 28 -7.5t11 -22t-2 -23.5t-11 -11q-13 0 -19 -9t-4 -19.5t11.5 -19t27.5 -8.5q27 0 50.5 30t45 77t42 104t42.5 110q-32 -40 -72.5 -69
t-89.5 -29q-40 0 -58.5 21.5t-15 53.5t28 69t71 69t114.5 53.5t158 21.5h2q43 -1 69 -23.5t38 -59t10 -83t-15 -95.5t-36 -96t-54 -84.5t-69 -61.5t-80 -26v-1h-9zM415 509q-9 0 -18.5 -17.5t-20.5 -47t-23 -68t-26 -80.5t-31.5 -84.5t-37.5 -80.5q8 -6 11 -16t2.5 -19
t-4 -16t-8.5 -7q-14 0 -19.5 -9t-3.5 -19.5t11.5 -19t27.5 -8.5v-1q28 2 58 38t57 88.5t46.5 114t26.5 116t-2.5 92.5t-41.5 44h-4zM134 272q29 0 56.5 17t51 40.5t41.5 48.5t28 42q19 35 38.5 59t42.5 29q-53 -3 -99 -21.5t-82 -44.5t-61 -56t-36 -55.5t-7 -42t27 -16.5z
M522 620q-7 -6 -17 -14.5t-20 -16.5t-19 -16t-14 -13q-13 -11 -21 -11t-16 11l-20 27.5t-23 33.5q-6 8 -4.5 13.5t6.5 8t11.5 0t12.5 -9.5q5 -8 11.5 -16.5t11.5 -16.5l12 -18q13 10 25 20q11 8 22.5 17t19.5 15q9 6 16 7t10.5 -1.5t3 -8t-7.5 -11.5z" />
    <glyph glyph-name="Dcroat" unicode="&#x110;" horiz-adv-x="523" 
d="M267 -2q-2 0 -3.5 0.5t-3.5 0.5q-26 3 -43 14t-25 27q-21 -20 -45 -31t-51 -11q-44 0 -66 20.5t-26 46t9.5 47.5t39.5 25q19 2 28 -7.5t11 -22t-2 -23.5t-11 -11q-13 0 -19 -9t-4 -19.5t11.5 -19t27.5 -8.5t35 15t32.5 40t30.5 58.5t29 70.5h-23q-9 0 -12 6t-0.5 13
t8.5 13t14 6h28q19 52 38 99q-32 -40 -72.5 -69t-89.5 -29q-40 0 -58 21t-15.5 53t26.5 69t70 69t113 53.5t156 22.5h2h6q43 -1 69 -23.5t38 -59t10 -83t-15 -95.5t-36 -96t-54 -84.5t-69 -61.5t-80 -26v-1h-9zM291 201q-14 -36 -33 -70q8 -6 11 -16t2.5 -19t-4 -16t-8.5 -7
q-14 0 -19.5 -9t-3.5 -19.5t11.5 -19t27.5 -8.5v-1q28 2 58 38t57 88.5t46.5 114t26.5 116t-2.5 92.5t-41.5 44h-4q-11 0 -22 -23.5t-24 -62t-28.5 -87t-34.5 -97.5h55q9 0 11.5 -6t0 -13t-8 -13t-13.5 -6h-60zM134 272q29 0 56.5 17t51 40.5t41.5 48.5t28 42q19 35 38.5 59
t42.5 29q-53 -3 -99 -21.5t-82 -44.5t-61 -56t-36 -55.5t-7 -42t27 -16.5z" />
    <glyph glyph-name="Nacute" unicode="&#x143;" horiz-adv-x="537" 
d="M296 204q-17 -41 -37.5 -78.5t-44.5 -66t-52.5 -45t-61.5 -16.5q-44 0 -66 20.5t-26 46t9.5 47.5t39.5 25q19 2 28 -7.5t11 -22t-2 -23.5t-11 -11q-14 0 -19.5 -9t-3.5 -19.5t11.5 -19t27.5 -8.5q26 0 49 29.5t44.5 76t42.5 103t42 110.5q-32 -39 -71.5 -67.5
t-88.5 -28.5q-40 0 -58.5 21.5t-15.5 53.5t28 69t71.5 69t114.5 53.5t158 21.5q12 0 12 -7.5t-8 -7.5t-16 -13t-16.5 -35t-18 -51.5t-20.5 -63.5q18 32 38.5 63.5t42.5 57t45.5 41t46.5 15.5q29 0 38 -21t5 -54.5t-19 -77t-33 -89t-36.5 -89t-30 -77t-13.5 -54.5t12 -21
q10 0 23.5 11t27.5 26t25.5 30.5t16.5 23.5q11 17 20 15.5t-2 -23.5q-6 -11 -20.5 -32.5t-35.5 -42.5t-46 -36.5t-52 -15.5q-26 0 -33.5 20.5t-2.5 54t19 76.5t31 87.5t34.5 87.5t29.5 76.5t15 54t-9 20.5q-17 0 -38.5 -19.5t-46 -55.5t-51 -86.5t-53.5 -111.5zM318 430
q18 33 37 55.5t41 27.5q-53 -3 -99 -22t-82 -46t-61 -57t-36 -56t-6.5 -43t26.5 -17q32 0 61 19.5t53 45.5t41 52.5t25 40.5zM431 562q9 7 34.5 21.5t53.5 28.5t51.5 23.5t28.5 8.5q5 -2 5.5 -10t-2.5 -18.5t-9.5 -21t-13.5 -16.5q-4 -3 -20 -8t-36 -10t-41 -8.5t-36 -4.5
t-20.5 2.5t5.5 12.5z" />
    <glyph glyph-name="Ncaron" unicode="&#x147;" horiz-adv-x="537" 
d="M296 204q-17 -41 -37.5 -78.5t-44.5 -66t-52.5 -45t-61.5 -16.5q-44 0 -66 20.5t-26 46t9.5 47.5t39.5 25q19 2 28 -7.5t11 -22t-2 -23.5t-11 -11q-14 0 -19.5 -9t-3.5 -19.5t11.5 -19t27.5 -8.5q26 0 49 29.5t44.5 76t42.5 103t42 110.5q-32 -39 -71.5 -67.5
t-88.5 -28.5q-40 0 -58.5 21.5t-15.5 53.5t28 69t71.5 69t114.5 53.5t158 21.5q12 0 12 -7.5t-8 -7.5t-16 -13t-16.5 -35t-18 -51.5t-20.5 -63.5q18 32 38.5 63.5t42.5 57t45.5 41t46.5 15.5q29 0 38 -21t5 -54.5t-19 -77t-33 -89t-36.5 -89t-30 -77t-13.5 -54.5t12 -21
q10 0 23.5 11t27.5 26t25.5 30.5t16.5 23.5q11 17 20 15.5t-2 -23.5q-6 -11 -20.5 -32.5t-35.5 -42.5t-46 -36.5t-52 -15.5q-26 0 -33.5 20.5t-2.5 54t19 76.5t31 87.5t34.5 87.5t29.5 76.5t15 54t-9 20.5q-17 0 -38.5 -19.5t-46 -55.5t-51 -86.5t-53.5 -111.5zM318 430
q18 33 37 55.5t41 27.5q-53 -3 -99 -22t-82 -46t-61 -57t-36 -56t-6.5 -43t26.5 -17q32 0 61 19.5t53 45.5t41 52.5t25 40.5zM569 615q-7 -6 -17 -14.5t-20 -16.5t-19 -16t-14 -13q-13 -11 -21 -11t-16 11l-20 27.5t-23 33.5q-6 8 -4.5 13.5t6.5 8t11.5 0t12.5 -9.5
q5 -8 11.5 -16.5t11.5 -16.5l12 -18q13 10 25 20q11 8 22.5 17t19.5 15q9 6 16 7t10.5 -1.5t3 -8t-7.5 -11.5z" />
    <glyph glyph-name="Ohungarumlaut" unicode="&#x150;" horiz-adv-x="387" 
d="M263 522q37 8 65.5 -5t44 -43t18 -74.5t-10.5 -98.5q-14 -54 -40 -104t-59.5 -90.5t-72 -68t-75.5 -35.5q-38 -8 -66 5t-44 43t-18.5 74.5t11.5 98.5q13 54 39.5 104.5t60 91t71.5 67.5t76 35zM356 311q12 43 12 79.5t-10.5 63t-31 39.5t-48.5 10q-29 -3 -58.5 -22.5
t-56 -50t-48.5 -70t-34 -82.5t-12 -79.5t10.5 -62.5t30.5 -39t49 -10q28 3 58 22.5t56.5 50t48.5 69.5t34 82zM226 576q7 10 28 30t45 40t44.5 35t25.5 15q6 0 8 -8t1.5 -19t-3.5 -23t-9 -19q-4 -4 -18 -12.5t-32.5 -18t-38 -18t-34 -13t-20.5 -3t3 13.5zM340 576
q7 10 28 30t45 40t44.5 35t25.5 15q6 0 8 -8t1.5 -19t-3.5 -23t-9 -19q-4 -4 -18 -12.5t-32.5 -18t-38 -18t-34 -13t-20.5 -3t3 13.5z" />
    <glyph glyph-name="Rcaron" unicode="&#x158;" horiz-adv-x="550" 
d="M412 528q53 0 82.5 -19.5t39 -49.5t1.5 -64.5t-29 -65.5t-53.5 -52.5t-71.5 -24.5q25 -21 35 -55t15.5 -66.5t10.5 -55.5t20 -23q19 0 43.5 24t44.5 59q11 17 18.5 13.5t-0.5 -21.5q-9 -20 -27 -42.5t-39.5 -41.5t-45 -31t-42.5 -12q-24 0 -34 17t-13 43t-1.5 57.5
t0.5 60t-8.5 50t-26.5 28.5q-1 0 -2 1q-8 2 -12 4h-1q-18 -49 -39.5 -96t-48 -84t-59 -60t-71.5 -23q-44 0 -66 20.5t-26 46t9 47.5t39 25q19 2 28 -7.5t11 -22t-1.5 -23.5t-10.5 -11q-14 0 -19.5 -9t-3.5 -19.5t11.5 -19t26.5 -8.5q27 0 50 30t44.5 76.5t42 103t41.5 109.5
q-31 -39 -71 -67.5t-88 -28.5q-40 0 -58.5 21t-15.5 53t27.5 69t70 69t113 53.5t156.5 22.5h4zM314 423q18 34 37.5 57t41.5 28q-53 -3 -99 -21.5t-82 -45t-61 -56t-36 -55t-6.5 -42t26.5 -16.5q30 0 58.5 17.5t52 42t41.5 50t27 41.5zM417 509q-10 0 -20 -19.5t-21 -51.5
t-24 -73.5t-29 -86.5q24 -9 48.5 3.5t44.5 36.5t33.5 55.5t16.5 60t-6.5 50t-36.5 25.5h-6zM529 616q-7 -6 -17 -14.5t-20 -16.5t-19 -16t-14 -13q-13 -11 -21 -11t-16 11l-20 27.5t-23 33.5q-6 8 -4.5 13.5t6.5 8t11.5 0t12.5 -9.5q5 -8 11.5 -16.5t11.5 -16.5l12 -18
q13 10 25 20q11 8 22.5 17t19.5 15q9 6 16 7t10.5 -1.5t3 -8t-7.5 -11.5z" />
    <glyph glyph-name="Uring" unicode="&#x16e;" horiz-adv-x="532" 
d="M396 187l1 1q16 50 37.5 101.5t41 94.5t34.5 72.5t19 34.5q7 10 19.5 14.5t23.5 4.5t17 -5t0 -14q-4 -7 -21 -42.5t-38.5 -85t-43.5 -105t-37 -103t-19.5 -78.5t9.5 -31q9 0 21 7.5t24.5 20t25 28.5t22.5 33t17.5 13.5t-0.5 -21.5q-9 -20 -26.5 -42.5t-39 -41.5t-45 -31
t-42.5 -12q-14 0 -21.5 9t-9 25.5t1.5 39t10 49.5q-15 -24 -32.5 -47t-35.5 -40.5t-36 -27.5t-34 -8q-20 3 -32 21t-14 48.5t6.5 71.5t28.5 91l30 70q-33 -35 -75 -61.5t-92 -26.5q-39 0 -61 20t-26 50.5t10.5 66t49.5 66t89.5 50.5t131.5 20q30 0 54 0.5t41 1.5
q14 15 29 25.5t29 12.5q22 3 32.5 -7.5t5.5 -24.5q-5 -12 -21.5 -18.5t-51.5 -8.5q-35 -26 -64.5 -80t-56.5 -120q-34 -85 -31.5 -137t29.5 -59q13 -3 30.5 10t34.5 32.5t31 40t20 32.5zM119 252q26 0 52 13t50 33.5t44.5 44.5t37.5 46q28 47 57 76h-78q-46 0 -84 -16
t-65.5 -39.5t-44 -51t-19 -51t9 -39.5t40.5 -16zM470 597q0 29 20 49t49 20t49 -20t20 -49t-20 -49t-49 -20t-49 20t-20 49zM494 597q0 -19 13 -32t32 -13t32 13t13 32t-13 32t-32 13t-32 -13t-13 -32z" />
    <glyph glyph-name="Uhungarumlaut" unicode="&#x170;" horiz-adv-x="532" 
d="M396 187l1 1q16 50 37.5 101.5t41 94.5t34.5 72.5t19 34.5q7 10 19.5 14.5t23.5 4.5t17 -5t0 -14q-4 -7 -21 -42.5t-38.5 -85t-43.5 -105t-37 -103t-19.5 -78.5t9.5 -31q9 0 21 7.5t24.5 20t25 28.5t22.5 33t17.5 13.5t-0.5 -21.5q-9 -20 -26.5 -42.5t-39 -41.5t-45 -31
t-42.5 -12q-14 0 -21.5 9t-9 25.5t1.5 39t10 49.5q-15 -24 -32.5 -47t-35.5 -40.5t-36 -27.5t-34 -8q-20 3 -32 21t-14 48.5t6.5 71.5t28.5 91l30 70q-33 -35 -75 -61.5t-92 -26.5q-39 0 -61 20t-26 50.5t10.5 66t49.5 66t89.5 50.5t131.5 20q30 0 54 0.5t41 1.5
q14 15 29 25.5t29 12.5q22 3 32.5 -7.5t5.5 -24.5q-5 -12 -21.5 -18.5t-51.5 -8.5q-35 -26 -64.5 -80t-56.5 -120q-34 -85 -31.5 -137t29.5 -59q13 -3 30.5 10t34.5 32.5t31 40t20 32.5zM119 252q26 0 52 13t50 33.5t44.5 44.5t37.5 46q28 47 57 76h-78q-46 0 -84 -16
t-65.5 -39.5t-44 -51t-19 -51t9 -39.5t40.5 -16zM542 560q7 10 28 30t45 40t44.5 35t25.5 15q6 0 8 -8t1.5 -19t-3.5 -23t-9 -19q-3 -4 -17.5 -12.5t-33 -18t-38 -18t-34 -13t-20.5 -3t3 13.5zM428 560q7 10 28 30t45 40t44.5 35t25.5 15q6 0 8 -8t1.5 -19t-3.5 -23t-9 -19
q-3 -4 -17.5 -12.5t-33 -18t-38 -18t-34 -13t-20.5 -3t3 13.5z" />
    <glyph glyph-name="Tcommaaccent" unicode="&#x162;" horiz-adv-x="360" 
d="M94 14q21 0 41.5 18t41 48.5t41.5 70.5t43 83.5t45 87t47 82.5q-24 -19 -54 -38.5t-64 -33t-70.5 -17.5t-71.5 7q-37 12 -53.5 37.5t-13.5 55.5t25 59.5t61.5 47.5t96 20.5t129.5 -20.5q29 -9 53.5 -13.5t43.5 -6.5q19 16 39 24.5t42 7.5q43 -2 55 -16t4 -27
q-12 -18 -44.5 -22.5t-81.5 3.5q-16 -27 -37 -73t-46 -99t-54.5 -107.5t-63.5 -98t-72 -71.5t-80 -28q-29 0 -49 10t-30.5 24.5t-12.5 32.5t2.5 33.5t16.5 26.5t29 13q19 2 28 -8t11 -22.5t-1.5 -23.5t-10.5 -11q-14 0 -19.5 -9t-3.5 -19.5t11.5 -19t26.5 -8.5zM131 349
q33 -11 70.5 -1.5t73.5 28.5t66 41t48 37q5 7 10 13t11 12q-19 5 -39 10.5t-42 12.5q-44 14 -83.5 10.5t-70.5 -17.5t-51.5 -35.5t-28 -43t0.5 -40.5t35 -27zM26 -55q9 14 24.5 19t29.5 -5q19 -14 15 -35.5t-19.5 -40.5t-38.5 -30.5t-41 -5.5q22 15 26.5 27t2.5 23
t-4.5 22.5t5.5 25.5z" />
    <glyph glyph-name="racute" unicode="&#x155;" horiz-adv-x="226" 
d="M226 135q11 17 18.5 13.5t-0.5 -21.5q-9 -20 -27 -42.5t-39.5 -41.5t-45 -31t-42.5 -12q-28 0 -38 17.5t-8.5 44.5t12 59.5t23.5 62.5t26 53.5t20 32.5q-6 2 -13 6t-15 9q-7 -15 -18.5 -38l-23.5 -47l-22 -44t-15 -29q-6 -11 -12.5 -15.5t-10 -3t-3 8t7.5 18.5
q5 9 15.5 29.5t22.5 45t23.5 49t19.5 40.5q-11 15 -7.5 36t15.5 38.5t28.5 27t31.5 1.5q14 -8 12.5 -22t-9.5 -28q-10 -17 -26 -35q7 -11 22 -14t28 -6t19 -8t-6 -19q-15 -18 -32.5 -54t-28.5 -72.5t-11 -64t21 -27.5q19 0 43.5 24t44.5 59zM156 439q9 7 34.5 21.5
t53.5 28.5t51.5 23.5t28.5 8.5q5 -2 5.5 -10t-2.5 -18.5t-9.5 -21t-13.5 -16.5q-4 -3 -20 -8t-36 -10t-41 -8.5t-36 -4.5t-20.5 2.5t5.5 12.5z" />
    <glyph glyph-name="abreve" unicode="&#x103;" horiz-adv-x="308" 
d="M183 329q27 0 40 -24l1 1q5 11 16.5 16t22.5 5t18 -5.5t3 -15.5q-5 -11 -14.5 -37t-20 -56t-19.5 -58t-13 -41t-7.5 -24.5t-4.5 -19.5t2.5 -13t12.5 -5q19 0 43.5 24t44.5 59q11 17 18.5 13.5t-0.5 -21.5q-9 -20 -27 -42.5t-39.5 -41.5t-45 -31t-42.5 -12q-25 0 -31 16.5
t-2 39.5q-26 -27 -52 -42.5t-49 -15.5q-21 0 -33 13.5t-16 36t1.5 52.5t20.5 64t36 64t44.5 52.5t47 35.5t44.5 13zM155 108q17 48 32 94t26 76q-8 24 -29 26q-14 0 -30 -9.5t-32 -26t-30 -39t-24 -48.5q-21 -52 -16.5 -89t31.5 -38q15 -1 32.5 10.5t34.5 31.5zM297 506
q1 7 7 10t12 2.5t10.5 -4.5t2.5 -11q-4 -17 -14.5 -31.5t-25 -25.5t-31.5 -17.5t-33 -6.5q-33 0 -49.5 23.5t-8.5 57.5q2 8 7.5 11.5t11.5 3.5t9.5 -4t0.5 -11q-8 -22 1.5 -36t32.5 -14q22 0 42 15t25 38z" />
    <glyph glyph-name="lacute" unicode="&#x13a;" horiz-adv-x="143" 
d="M-10 108l18.5 55.5t25 74.5t27 82t25 77.5t20.5 61t12 32.5q5 11 17 16t23 5t17.5 -5.5t2.5 -15.5q-3 -7 -12.5 -35t-23 -67t-28 -83.5t-27.5 -84t-23 -69t-12 -38.5q-4 -13 -7.5 -24.5t-4.5 -19.5t2.5 -13t12.5 -5q19 0 43.5 24t44.5 59q11 17 18.5 13.5t-0.5 -21.5
q-9 -20 -27 -42.5t-39.5 -41.5t-45 -31t-42.5 -12q-20 0 -27 10.5t-7 26.5t5.5 35t11.5 36zM139 565q9 7 34.5 21.5t53.5 28.5t51.5 23.5t28.5 8.5q5 -2 5.5 -10t-2.5 -18.5t-9.5 -21t-13.5 -16.5q-4 -3 -20 -8t-36 -10t-41 -8.5t-36 -4.5t-20.5 2.5t5.5 12.5z" />
    <glyph glyph-name="cacute" unicode="&#x107;" 
d="M249 135q6 9 11.5 12t9 1.5t3.5 -7.5t-5 -14q-14 -24 -32 -46.5t-39.5 -40t-47.5 -28t-55 -10.5q-22 0 -41.5 9t-33.5 26.5t-19.5 43t0.5 58.5q6 31 20.5 62t34 57t44 44.5t51.5 23.5q33 6 52.5 -11t23.5 -45t-9 -59.5t-44 -53.5q-12 -9 -28 -11t-29 0t-19.5 7.5
t1.5 11.5q27 24 46 49t27.5 45.5t5 33.5t-22.5 13q-14 0 -28.5 -9.5t-27.5 -26.5t-23 -41.5t-13 -54.5q-3 -26 1.5 -49t16.5 -39.5t30.5 -24t44.5 -2.5q33 7 56 29t38 47zM136 439q9 7 34.5 21.5t53.5 28.5t51.5 23.5t28.5 8.5q5 -2 5.5 -10t-2.5 -18.5t-9.5 -21
t-13.5 -16.5q-4 -3 -20 -8t-36 -10t-41 -8.5t-36 -4.5t-20.5 2.5t5.5 12.5z" />
    <glyph glyph-name="ccaron" unicode="&#x10d;" 
d="M249 135q6 9 11.5 12t9 1.5t3.5 -7.5t-5 -14q-14 -24 -32 -46.5t-39.5 -40t-47.5 -28t-55 -10.5q-22 0 -41.5 9t-33.5 26.5t-19.5 43t0.5 58.5q6 31 20.5 62t34 57t44 44.5t51.5 23.5q33 6 52.5 -11t23.5 -45t-9 -59.5t-44 -53.5q-12 -9 -28 -11t-29 0t-19.5 7.5
t1.5 11.5q27 24 46 49t27.5 45.5t5 33.5t-22.5 13q-14 0 -28.5 -9.5t-27.5 -26.5t-23 -41.5t-13 -54.5q-3 -26 1.5 -49t16.5 -39.5t30.5 -24t44.5 -2.5q33 7 56 29t38 47zM279 492q-7 -6 -17 -14.5t-20 -16.5t-19 -16t-14 -13q-13 -11 -21 -11t-16 11l-20 27.5t-23 33.5
q-6 8 -4.5 13.5t6.5 8t11.5 0t12.5 -9.5q5 -8 11.5 -16.5t11.5 -16.5l12 -18q13 10 25 20q11 8 22.5 17t19.5 15q9 6 16 7t10.5 -1.5t3 -8t-7.5 -11.5z" />
    <glyph glyph-name="eogonek" unicode="&#x119;" 
d="M249 135q12 17 19 13t-2 -21q-17 -34 -48 -67t-73 -48q-24 -16 -41.5 -33.5t-27.5 -32.5t-11 -25t7 -10q13 0 20.5 9t12.5 22q5 15 14.5 15t5.5 -14q-4 -16 -18 -34t-43 -18q-17 0 -31 10t-15.5 25.5t14.5 35.5t59 40q-22 0 -41.5 9t-32.5 26.5t-18.5 43t1.5 58.5
q6 31 20 61.5t34 56t44 44t50 25.5q39 10 62 -5.5t19 -47t-41.5 -75t-119.5 -90.5q11 -29 35 -41.5t52 -7.5q33 7 53.5 27.5t40.5 48.5zM62 179q-5 -29 0 -51q59 33 83 66.5t26 58.5t-12 37t-31 3q-28 -14 -44 -46.5t-22 -67.5z" />
    <glyph glyph-name="ecaron" unicode="&#x11b;" 
d="M249 135q12 17 19 13t-2 -21q-11 -22 -28.5 -44.5t-40 -40.5t-49 -29t-56.5 -11q-22 0 -41.5 9t-33 26.5t-19 43t1.5 58.5q6 31 20 61.5t34 56t44 44t50 25.5q39 10 62 -5.5t19 -47t-41.5 -75t-119.5 -90.5q11 -29 35 -41.5t52 -7.5q33 7 53.5 27.5t40.5 48.5zM62 179
q-5 -29 0 -51q59 33 83 66.5t26 58.5t-12 37t-31 3q-28 -14 -44 -46.5t-22 -67.5zM262 472q-7 -6 -17 -14.5t-20 -16.5t-19 -16t-14 -13q-13 -11 -21 -11t-16 11l-20 27.5t-23 33.5q-6 8 -4.5 13.5t6.5 8t11.5 0t12.5 -9.5q5 -8 11.5 -16.5t11.5 -16.5l12 -18q13 10 25 20
q11 8 22.5 17t19.5 15q9 6 16 7t10.5 -1.5t3 -8t-7.5 -11.5z" />
    <glyph glyph-name="dcaron" unicode="&#x10f;" horiz-adv-x="308" 
d="M183 329q24 0 39 -21q10 32 20 62.5t18.5 55.5t14 42t8.5 23q5 11 17 16t23 5t18 -5.5t3 -15.5q-3 -7 -13 -35t-23 -67t-28 -83.5t-28 -84t-23 -69t-12 -38.5q-4 -13 -7.5 -24.5t-4 -19.5t2.5 -13t12 -5q19 0 43.5 24t44.5 59q11 17 18.5 13.5t-0.5 -21.5
q-9 -20 -27 -42.5t-39.5 -41.5t-45 -31t-42.5 -12q-25 0 -31 16.5t-1 39.5q-26 -27 -52.5 -42.5t-49.5 -15.5q-21 0 -33 13.5t-16 36t1.5 52.5t20.5 64t36 64t44.5 52.5t47 35.5t44.5 13zM155 108q9 26 24.5 72.5t32.5 98.5q-8 24 -28 25q-14 0 -29.5 -9.5t-31.5 -26
t-30.5 -39t-24.5 -48.5q-21 -52 -16.5 -89t31.5 -38q15 -1 32.5 10.5t34.5 31.5zM362 512q9 14 24.5 19t29.5 -5q19 -14 15 -35.5t-19.5 -40.5t-38.5 -30.5t-41 -5.5q22 15 26.5 27t2.5 23t-4.5 22.5t5.5 25.5z" />
    <glyph glyph-name="dcroat" unicode="&#x111;" horiz-adv-x="308" 
d="M258 420q9 27 15.5 46t9.5 25q5 11 17 16t23 5t18 -5.5t3 -15.5l-26 -71h25q9 0 11.5 -6t0 -13t-8 -13t-13.5 -6h-28l-27.5 -82.5t-27.5 -81.5t-22 -66.5t-11 -37.5q-4 -13 -7.5 -24.5t-4 -19.5t2.5 -13t12 -5q19 0 43.5 24t44.5 59q11 17 18.5 13.5t-0.5 -21.5
q-9 -20 -27 -42.5t-39.5 -41.5t-45 -31t-42.5 -12q-25 0 -31 16.5t-1 39.5q-26 -27 -52.5 -42.5t-49.5 -15.5q-21 0 -33 13.5t-16 36t1.5 52.5t20.5 64t36 64t44.5 52.5t47 35.5t44.5 13q24 0 39 -21l23 74h-24q-9 0 -12 6t-0.5 13t8.5 13t14 6h27zM155 108q9 26 24.5 72.5
t32.5 98.5q-8 24 -28 25q-14 0 -29.5 -9.5t-31.5 -26t-30.5 -39t-24.5 -48.5q-21 -52 -16.5 -89t31.5 -38q15 -1 32.5 10.5t34.5 31.5z" />
    <glyph glyph-name="nacute" unicode="&#x144;" horiz-adv-x="283" 
d="M72 174q18 30 37.5 57.5t39.5 49t38.5 34t34.5 12.5q27 0 30.5 -20.5t-5.5 -51t-25 -66t-28 -66t-14.5 -51t15.5 -20.5q19 0 43.5 24t44.5 59q11 17 18.5 13.5t-0.5 -21.5q-9 -20 -27 -42.5t-39.5 -41.5t-45 -31t-42.5 -12q-25 0 -29.5 19.5t1.5 48.5t19.5 63t24.5 63
t15 48.5t-7 19.5q-9 0 -27.5 -20t-39.5 -51.5t-41.5 -70.5t-34.5 -76l-4 -9v-1l-5 -12q-5 -11 -16.5 -16t-23 -5t-18.5 5t-2 16q3 7 10.5 28.5t18 50.5t22 62t21.5 63l17.5 52.5l10.5 31.5q3 10 13.5 14t21.5 3t19 -6t5 -13zM137 439q9 7 34.5 21.5t53.5 28.5t51.5 23.5
t28.5 8.5q5 -2 5.5 -10t-2.5 -18.5t-9.5 -21t-13.5 -16.5q-4 -3 -20 -8t-36 -10t-41 -8.5t-36 -4.5t-20.5 2.5t5.5 12.5z" />
    <glyph glyph-name="ncaron" unicode="&#x148;" horiz-adv-x="283" 
d="M72 174q18 30 37.5 57.5t39.5 49t38.5 34t34.5 12.5q27 0 30.5 -20.5t-5.5 -51t-25 -66t-28 -66t-14.5 -51t15.5 -20.5q19 0 43.5 24t44.5 59q11 17 18.5 13.5t-0.5 -21.5q-9 -20 -27 -42.5t-39.5 -41.5t-45 -31t-42.5 -12q-25 0 -29.5 19.5t1.5 48.5t19.5 63t24.5 63
t15 48.5t-7 19.5q-9 0 -27.5 -20t-39.5 -51.5t-41.5 -70.5t-34.5 -76l-4 -9v-1l-5 -12q-5 -11 -16.5 -16t-23 -5t-18.5 5t-2 16q3 7 10.5 28.5t18 50.5t22 62t21.5 63l17.5 52.5l10.5 31.5q3 10 13.5 14t21.5 3t19 -6t5 -13zM284 492q-7 -6 -17 -14.5t-20 -16.5t-19 -16
t-14 -13q-13 -11 -21 -11t-16 11l-20 27.5t-23 33.5q-6 8 -4.5 13.5t6.5 8t11.5 0t12.5 -9.5q5 -8 11.5 -16.5t11.5 -16.5l12 -18q13 10 25 20q11 8 22.5 17t19.5 15q9 6 16 7t10.5 -1.5t3 -8t-7.5 -11.5z" />
    <glyph glyph-name="ohungarumlaut" unicode="&#x151;" horiz-adv-x="253" 
d="M327 261q10 13 16 8.5t-2 -18.5q-6 -9 -17.5 -14.5t-26 -7.5t-31 -1t-31.5 5q-1 -11 -2.5 -22t-4.5 -23q-8 -34 -24.5 -65.5t-37.5 -56.5t-44.5 -42t-47.5 -22t-41.5 3t-27.5 27t-11.5 46.5t7.5 61.5q8 34 24.5 65.5t37.5 56.5t44.5 42.5t47.5 22.5q34 7 55 -13t25 -58
q12 -5 25.5 -7t26.5 -1.5t24 3.5t16 10zM205 198q3 11 4 22t1 21q-26 10 -39.5 27.5t-5.5 35.5h-6q-15 -2 -31 -13.5t-29.5 -29t-24.5 -40t-17 -46.5t-5.5 -44.5t7 -35t18 -21.5t26.5 -5q15 3 31 14.5t30 29t24.5 39.5t16.5 46zM108 440q7 10 28 30t45 40t44.5 35t25.5 15
q6 0 8 -8t1.5 -19t-3.5 -23t-9 -19q-3 -4 -17.5 -12.5t-33 -18t-38 -18t-34 -13t-20.5 -3t3 13.5zM222 440q7 10 28 30t45 40t44.5 35t25.5 15q6 0 8 -8t1.5 -19t-3.5 -23t-9 -19q-3 -4 -17.5 -12.5t-33 -18t-38 -18t-34 -13t-20.5 -3t3 13.5z" />
    <glyph glyph-name="rcaron" unicode="&#x159;" horiz-adv-x="226" 
d="M226 135q11 17 18.5 13.5t-0.5 -21.5q-9 -20 -27 -42.5t-39.5 -41.5t-45 -31t-42.5 -12q-28 0 -38 17.5t-8.5 44.5t12 59.5t23.5 62.5t26 53.5t20 32.5q-6 2 -13 6t-15 9q-7 -15 -18.5 -38l-23.5 -47l-22 -44t-15 -29q-6 -11 -12.5 -15.5t-10 -3t-3 8t7.5 18.5
q5 9 15.5 29.5t22.5 45t23.5 49t19.5 40.5q-11 15 -7.5 36t15.5 38.5t28.5 27t31.5 1.5q14 -8 12.5 -22t-9.5 -28q-10 -17 -26 -35q7 -11 22 -14t28 -6t19 -8t-6 -19q-15 -18 -32.5 -54t-28.5 -72.5t-11 -64t21 -27.5q19 0 43.5 24t44.5 59zM284 492q-7 -6 -17 -14.5
t-20 -16.5t-19 -16t-14 -13q-13 -11 -21 -11t-16 11l-20 27.5t-23 33.5q-6 8 -4.5 13.5t6.5 8t11.5 0t12.5 -9.5q5 -8 11.5 -16.5t11.5 -16.5l12 -18q13 10 25 20q11 8 22.5 17t19.5 15q9 6 16 7t10.5 -1.5t3 -8t-7.5 -11.5z" />
    <glyph glyph-name="uring" unicode="&#x16f;" horiz-adv-x="288" 
d="M134 108q3 9 6.5 18t6.5 19q-17 -29 -36 -55.5t-38 -46.5t-37 -31.5t-33 -11.5q-22 0 -24 32t13 80t45 103.5t73 102.5q10 11 20.5 9t1.5 -12q-23 -27 -43.5 -63.5t-33 -71t-15 -60.5t10.5 -31q12 -5 29.5 9t36 39t37 58.5t33.5 68.5q5 14 9 24.5t7 17.5q5 11 17 16t23 5
t17.5 -5.5t2.5 -15.5q-4 -11 -13.5 -37t-20 -56t-20 -58t-13.5 -41t-7 -24.5t-4 -19.5t2.5 -13t12.5 -5q18 0 43 24t45 59q10 17 17.5 13.5t-0.5 -21.5q-9 -20 -26.5 -42.5t-39.5 -41.5t-45 -31t-42 -12q-20 0 -27.5 10.5t-7.5 26.5t5.5 35t11.5 36zM167 477q0 29 20 49
t49 20t49 -20t20 -49t-20 -49t-49 -20t-49 20t-20 49zM191 477q0 -19 13 -32t32 -13t32 13t13 32t-13 32t-32 13t-32 -13t-13 -32z" />
    <glyph glyph-name="uhungarumlaut" unicode="&#x171;" horiz-adv-x="288" 
d="M134 108q3 9 6.5 18t6.5 19q-17 -29 -36 -55.5t-38 -46.5t-37 -31.5t-33 -11.5q-22 0 -24 32t13 80t45 103.5t73 102.5q10 11 20.5 9t1.5 -12q-23 -27 -43.5 -63.5t-33 -71t-15 -60.5t10.5 -31q12 -5 29.5 9t36 39t37 58.5t33.5 68.5q5 14 9 24.5t7 17.5q5 11 17 16t23 5
t17.5 -5.5t2.5 -15.5q-4 -11 -13.5 -37t-20 -56t-20 -58t-13.5 -41t-7 -24.5t-4 -19.5t2.5 -13t12.5 -5q18 0 43 24t45 59q10 17 17.5 13.5t-0.5 -21.5q-9 -20 -26.5 -42.5t-39.5 -41.5t-45 -31t-42 -12q-20 0 -27.5 10.5t-7.5 26.5t5.5 35t11.5 36zM235 440q7 10 28 30
t45 40t44.5 35t25.5 15q6 0 8 -8t1.5 -19t-3.5 -23t-9 -19q-3 -4 -17.5 -12.5t-33 -18t-38 -18t-34 -13t-20.5 -3t3 13.5zM121 440q7 10 28 30t45 40t44.5 35t25.5 15q6 0 8 -8t1.5 -19t-3.5 -23t-9 -19q-3 -4 -17.5 -12.5t-33 -18t-38 -18t-34 -13t-20.5 -3t3 13.5z" />
    <glyph glyph-name="tcommaaccent" unicode="&#x163;" horiz-adv-x="144" 
d="M127 344q-10 -29 -22 -65t-22.5 -69.5t-19 -59.5t-11.5 -36q-4 -13 -7.5 -24.5t-4 -19.5t2.5 -13t12 -5q19 0 44 24t45 59q10 17 17.5 13.5t-0.5 -21.5q-9 -20 -26.5 -42.5t-39.5 -41.5t-45 -31t-42 -12q-20 0 -27.5 10.5t-7.5 26.5t5.5 35t11.5 36q9 24 19.5 55.5t21 64
t20.5 63t18 53.5h-41q-5 0 -6 4t1 9t6 9t9 4h40l4 10q4 11 16.5 20t25 13t20.5 1.5t4 -12.5l-12 -32h55q5 0 6 -4t-1 -9t-6 -9t-9 -4h-54zM-54 -55q9 14 24.5 19t29.5 -5q19 -14 15 -35.5t-19.5 -40.5t-38.5 -30.5t-41 -5.5q22 15 26.5 27t2.5 23t-4.5 22.5t5.5 25.5z" />
    <glyph glyph-name="Hbar" unicode="&#x126;" horiz-adv-x="536" 
d="M102 17q28 0 52.5 30t47.5 77t45 104.5t45 112.5q-18 -23 -39.5 -45.5t-47 -40.5t-54.5 -29.5t-60 -11.5q-39 0 -61 20t-26 50.5t10.5 66t49.5 66t89.5 50.5t131.5 20q26 0 46.5 0.5t37.5 1.5q14 16 27.5 26t28.5 12q23 3 35.5 -7.5t7.5 -24.5q-5 -12 -19.5 -18t-47.5 -9
q-11 -23 -24.5 -61t-29.5 -84h106q14 32 27 61t24 51.5t18.5 37t10.5 18.5q7 10 19.5 14.5t23.5 4.5t17 -5t0 -14q-4 -7 -20.5 -42.5t-38 -85t-44 -105t-37.5 -103t-19.5 -78.5t9.5 -31q9 0 21 7.5t24.5 20t25 28.5t22.5 33q11 17 18.5 13.5t-0.5 -21.5q-9 -20 -27 -42.5
t-39.5 -41.5t-45 -31t-42.5 -12t-25.5 16t-4.5 43t11 63t23 75h-105q-18 -40 -38.5 -76t-44.5 -63.5t-52 -43.5t-61 -16q-44 0 -66 20.5t-26 46t9 47.5t39 25q19 2 28 -7.5t11.5 -22t-1.5 -23.5t-11 -11q-14 0 -19.5 -9t-3.5 -19.5t11.5 -19t27.5 -8.5zM355 441
q-7 -15 -17 -31q-8 -14 -19.5 -31.5t-26.5 -37.5q14 35 29 67t31 57h-70q-46 0 -84 -16t-65.5 -39.5t-44 -51t-19 -51t9 -39.5t40.5 -16q21 0 42 8.5t41 22.5t38 32t34 37q37 44 70 100zM411 220q8 20 16 40.5t16 40.5h-104q-7 -20 -15 -40.5t-16 -40.5h103z" />
    <glyph glyph-name="Hcircumflex" unicode="&#x124;" horiz-adv-x="536" 
d="M102 17q28 0 52.5 30t47.5 77t45 104.5t45 112.5q-18 -23 -39.5 -45.5t-47 -40.5t-54.5 -29.5t-60 -11.5q-39 0 -61 20t-26 50.5t10.5 66t49.5 66t89.5 50.5t131.5 20q26 0 46.5 0.5t37.5 1.5q14 16 27.5 26t28.5 12q23 3 35.5 -7.5t7.5 -24.5q-5 -12 -19.5 -18t-47.5 -9
q-9 -17 -19 -44.5t-21 -60.5t-24.5 -69.5t-28.5 -73.5h103q17 46 37 92.5t37.5 84.5t30.5 63.5t17 30.5q7 10 19.5 14.5t23.5 4.5t17 -5t0 -14q-4 -7 -20.5 -42.5t-38 -85t-44 -105t-37.5 -103t-19.5 -78.5t9.5 -31q9 0 21 7.5t24.5 20t25 28.5t22.5 33q11 17 18.5 13.5
t-0.5 -21.5q-9 -20 -27 -42.5t-39.5 -41.5t-45 -31t-42.5 -12t-25.5 16t-4.5 43t11 63t23 75h-105q-18 -40 -38.5 -76t-44.5 -63.5t-52 -43.5t-61 -16q-44 0 -66 20.5t-26 46t9 47.5t39 25q19 2 28 -7.5t11.5 -22t-1.5 -23.5t-11 -11q-14 0 -19.5 -9t-3.5 -19.5t11.5 -19
t27.5 -8.5zM355 441q-7 -15 -17 -31q-8 -14 -19.5 -31.5t-26.5 -37.5q11 29 23 54.5t25 48.5q0 2 1 2q2 5 5 9.5t6 9.5h-70q-46 0 -84 -16t-65.5 -39.5t-44 -51t-19 -51t9 -39.5t40.5 -16q37 0 73.5 25t66.5 57.5t51.5 64t29.5 45.5q0 2 1 2l3 6zM441 564q7 6 17 14.5
t20 16.5t19 16t14 13q13 11 21 11t16 -11l20 -27.5t23 -33.5q6 -8 4.5 -13.5t-6.5 -8t-11.5 -0.5t-12.5 10q-5 8 -11.5 16.5t-11.5 16.5l-12 18q-13 -10 -25 -20q-11 -8 -22.5 -17t-19.5 -15q-9 -6 -16 -7t-10.5 1.5t-3 8t7.5 11.5z" />
    <glyph glyph-name="Idotaccent" unicode="&#x130;" horiz-adv-x="347" 
d="M102 17q28 0 53 30t48 77t44.5 104t44.5 112q-18 -23 -40 -45.5t-47.5 -40.5t-54 -29t-59.5 -11q-39 0 -60.5 20t-25.5 50.5t10.5 66t49.5 66t89.5 50.5t131.5 20q25 0 46 0.5t38 1.5q13 16 27 26t29 12q22 3 35 -7.5t7 -24.5q-4 -11 -19 -17.5t-47 -9.5
q-13 -25 -28 -69.5t-33.5 -97t-41.5 -106t-52 -97.5t-64.5 -72t-78.5 -28q-44 0 -66 20.5t-26 46t9 47.5t39 25q19 2 28 -7.5t11 -22t-1.5 -23.5t-10.5 -11q-14 0 -19.5 -9t-4 -19.5t11 -19t27.5 -8.5zM119 252q36 0 71 23t64.5 54.5t51.5 62.5t32 48l15 25h-70
q-46 0 -84 -16t-65.5 -39.5t-44 -51t-19.5 -51t9 -39.5t40 -16zM398 589q0 17 11 28.5t28 11.5t28.5 -11.5t11.5 -28.5t-11.5 -28.5t-28.5 -11.5t-28 11.5t-11 28.5z" />
    <glyph glyph-name="Scedilla" unicode="&#x15e;" horiz-adv-x="341" 
d="M89 7q-29 11 -50.5 34t-29.5 55q-9 34 -4.5 65t18 55t34.5 40t46 21q20 4 30 -7.5t12.5 -26t-1 -27.5t-10.5 -12q-12 1 -28.5 -7t-30 -22.5t-21 -34.5t-2.5 -44q6 -30 23 -48.5t37 -22.5t40 7t32 39t13 73.5t-17 111.5q-23 85 -20 141.5t21.5 88.5t48.5 42t59.5 3
t54.5 -29.5t35 -54.5q4 -15 4 -34.5t-6 -37.5t-19.5 -31t-34.5 -14q-21 -2 -29.5 9.5t-9 25.5t4.5 26t10 12t12 5t12.5 13.5t8 20t-0.5 24.5q-4 14 -16 26.5t-26.5 16t-28 -4t-20.5 -32t-3.5 -69.5t23.5 -115q24 -88 17 -147t-32.5 -93t-62.5 -45t-73 -2q-2 -10 -4.5 -17
t-6.5 -18q22 0 32.5 -12.5t7.5 -27t-21.5 -25.5t-52.5 -8q-25 2 -35.5 15t-12.5 21q-1 4 1.5 6.5t6 2.5t7 -1.5t3.5 -5.5q1 -8 10.5 -15t20.5 -6q9 0 15 6.5t8 14t-0.5 13.5t-10.5 6q-12 -1 -8.5 6l8.5 17t7.5 15.5t4.5 18.5z" />
    <glyph glyph-name="Gbreve" unicode="&#x11e;" horiz-adv-x="340" 
d="M265 522q40 7 65 -5t37 -34.5t12.5 -51t-8.5 -54t-27 -44.5t-42 -22q-27 -4 -43 6.5t-22.5 24t-4 25t13.5 11.5q11 -1 23.5 8.5t23 24t17 31t5.5 30t-10.5 22t-31.5 6.5q-28 -5 -56.5 -26.5t-53 -53.5t-43.5 -72.5t-28 -83.5q-15 -69 -2.5 -118.5t47.5 -63.5
q23 -10 50 21t51 87q6 17 11 30t8 21l1 2q0 1 0.5 1.5t0.5 1.5q5 10 17 15t23.5 5t19 -5.5t3.5 -15.5q-3 -9 -13.5 -37t-24 -66.5t-29 -83.5t-28.5 -87q-6 -19 -4.5 -21t15.5 6q16 7 18.5 -2.5t-19.5 -19.5q-8 -3 -24.5 -11t-32.5 -13t-26.5 -4t-5.5 16l48 145
q-26 -36 -54.5 -53t-52.5 -12q-26 5 -44.5 23.5t-28 47.5t-9.5 67.5t11 83.5q13 54 39.5 105t60 91.5t71.5 68t76 33.5zM386 637q1 7 7 10t12 2.5t10.5 -4.5t2.5 -11q-4 -17 -14.5 -31.5t-25 -25.5t-31.5 -17.5t-33 -6.5q-33 0 -49.5 23.5t-8.5 57.5q2 8 7.5 11.5t11.5 3.5
t9.5 -4t0.5 -11q-8 -22 1.5 -36t32.5 -14q22 0 42 15t25 38z" />
    <glyph glyph-name="Jcircumflex" unicode="&#x134;" horiz-adv-x="393" 
d="M94 -87q32 0 63.5 39.5t62 100.5t60 134t59.5 141q-17 -21 -38 -41.5t-45 -36.5t-51 -26t-56 -10q-39 0 -61 20t-26 50.5t10.5 66t49.5 66t89.5 50.5t131.5 20q26 0 47 0.5t38 1.5q29 35 55 38q23 2 35.5 -8t7.5 -24q-5 -11 -19 -17.5t-46 -9.5q-14 -28 -33.5 -81.5
t-44.5 -117t-55.5 -130t-66.5 -121t-77.5 -89t-87.5 -34.5q-44 0 -66 20.5t-26 46t9 47.5t39 25q19 2 28 -8t11 -22.5t-1.5 -23.5t-10.5 -11q-14 0 -19.5 -9t-3.5 -19.5t11.5 -19t26.5 -8.5zM177 252q34 0 67 21t61.5 50.5t50.5 60t34 49.5l10 16l10 16h-70q-46 0 -84 -16
t-65.5 -39.5t-44 -51t-19 -51t9 -39.5t40.5 -16zM400 570q7 6 17 14.5t20 16.5t19 16t14 13q13 11 21 11t16 -11l20 -27.5t23 -33.5q6 -8 4.5 -13.5t-6.5 -8t-11.5 -0.5t-12.5 10q-5 8 -11.5 16.5t-11.5 16.5l-12 18q-13 -10 -25 -20q-11 -8 -22.5 -17t-19.5 -15
q-9 -6 -16 -7t-10.5 1.5t-3 8t7.5 11.5z" />
    <glyph glyph-name="hbar" unicode="&#x127;" horiz-adv-x="284" 
d="M182 493l-12.5 -35t-16.5 -48h58q9 0 11.5 -6t0 -13t-8 -13t-13.5 -6h-61q-16 -47 -33 -98.5t-34 -99.5q18 30 37.5 57.5t39 49t38.5 34t35 12.5q27 0 30.5 -20.5t-5.5 -51t-25 -66t-28 -66t-14.5 -51t15.5 -20.5t43 24t45 59q10 17 17.5 13.5t-0.5 -21.5
q-9 -20 -26.5 -42.5t-39 -41.5t-45 -31t-42.5 -12q-25 0 -29.5 19.5t1.5 48.5t19.5 63t24.5 63t15 48.5t-7 19.5q-9 0 -28 -21t-41 -53.5t-43 -72.5t-34 -78l-3 -8q-3 -5 -3 -7q-5 -11 -17 -16t-23 -5t-18 5t-2 16q3 7 16 44t31 88.5t37.5 109.5t36.5 108h-32q-9 0 -12 6
t-0.5 13t8.5 13t14 6h35l25 76q3 11 14.5 17.5t23.5 7t20 -3.5t5 -14z" />
    <glyph glyph-name="hcircumflex" unicode="&#x125;" horiz-adv-x="284" 
d="M182 493q-7 -19 -19 -54.5t-27 -79.5t-31.5 -92.5t-31.5 -92.5q18 30 37.5 57.5t39 49t38.5 34t35 12.5q27 0 30.5 -20.5t-5.5 -51t-25 -66t-28 -66t-14.5 -51t15.5 -20.5t43 24t45 59q10 17 17.5 13.5t-0.5 -21.5q-9 -20 -26.5 -42.5t-39 -41.5t-45 -31t-42.5 -12
q-25 0 -29.5 19.5t1.5 48.5t19.5 63t24.5 63t15 48.5t-7 19.5q-9 0 -28 -21t-41 -53.5t-43 -72.5t-34 -78l-3 -8q-3 -5 -3 -7q-5 -11 -17 -16t-23 -5t-18 5t-2 16q3 7 15 41.5t29 83.5t36 104.5t36 105t28.5 85t14.5 44.5q3 11 14.5 17.5t23.5 7t20 -3.5t5 -14zM190 463
q7 6 17 14.5t20 16.5t19 16t14 13q13 11 21 11t16 -11l20 -27.5t23 -33.5q6 -8 4.5 -13.5t-6.5 -8t-11.5 -0.5t-12.5 10q-5 8 -11.5 16.5t-11.5 16.5l-12 18q-13 -10 -25 -20q-11 -8 -22.5 -17t-19.5 -15q-9 -6 -16 -7t-10.5 1.5t-3 8t7.5 11.5z" />
    <glyph glyph-name="scedilla" unicode="&#x15f;" horiz-adv-x="224" 
d="M101 319q9 7 21.5 9t22 0.5t13 -5t-4.5 -8.5q-13 -8 -15.5 -18.5t0.5 -24.5t10 -31.5t13 -37.5q11 -39 9.5 -78.5t-18.5 -69.5q38 28 72 80q11 16 19 12.5t-1 -20.5q-4 -8 -15.5 -25t-30.5 -36t-46 -36t-63 -25q-20 -5 -42 -5h-8q-2 -10 -4.5 -17.5t-6.5 -18.5
q22 0 32.5 -12.5t7.5 -27t-21.5 -25.5t-52.5 -8q-25 2 -35.5 15t-12.5 21q-1 4 1.5 6.5t6 2.5t7 -1.5t3.5 -5.5q1 -8 10.5 -15t20.5 -6q9 0 15 6.5t8 14t-0.5 13.5t-10.5 6q-12 -1 -8.5 6l8.5 17t7.5 15.5t4.5 17.5q-33 10 -44.5 40t-5.5 62t27 57t54 25q12 0 18 -10t7 -22
t-2 -21.5t-8 -9.5q-26 0 -41 -16t-18 -35.5t7 -35.5t34 -16q21 0 35 15.5t20 39t5.5 52.5t-7.5 56q-6 24 -12.5 43.5t-8.5 36t3 30t21 24.5z" />
    <glyph glyph-name="gbreve" unicode="&#x11f;" horiz-adv-x="290" 
d="M302 167q16 13 21 6.5t-9 -20.5q-24 -23 -50.5 -53t-51 -63.5t-45 -68.5t-31.5 -69l-2 -5l-8 -24q-5 -19 -3.5 -21t15.5 5q16 8 18.5 -2t-19.5 -19q-8 -3 -24.5 -11t-32.5 -13.5t-26.5 -4.5t-5.5 16q4 13 12 36t18 52.5t22 63.5t24 69q-23 -20 -44.5 -31.5t-41.5 -11.5
q-21 0 -33 13.5t-16 36t1.5 52.5t20.5 64t36 64t44.5 52.5t47 35.5t44.5 13q24 0 37 -19q6 9 18 13t22.5 3.5t17.5 -5.5t3 -15q-2 -6 -12 -33t-24.5 -67t-32 -87.5t-33.5 -93.5q16 23 33 45t33.5 41t31 33.5t25.5 22.5zM83 54q12 -1 26.5 7t28.5 22q23 65 42 120t30 83
q-9 17 -26 18q-14 0 -29.5 -9.5t-31.5 -26t-30.5 -39t-24.5 -48.5q-21 -52 -16.5 -89t31.5 -38zM292 506q1 7 7 10t12 2.5t10.5 -4.5t2.5 -11q-4 -17 -14.5 -31.5t-25 -25.5t-31.5 -17.5t-33 -6.5q-33 0 -49.5 23.5t-8.5 57.5q2 8 7.5 11.5t11.5 3.5t9.5 -4t0.5 -11
q-8 -22 1.5 -36t32.5 -14q22 0 42 15t25 38z" />
    <glyph glyph-name="jcircumflex" unicode="&#x135;" horiz-adv-x="133" 
d="M145 167q16 13 21 6.5t-9 -20.5q-22 -22 -47 -49.5t-48.5 -58.5t-43.5 -64t-33 -65l-15 -46q-6 -19 -4 -21t16 5q7 4 12 3t6 -5t-3.5 -9.5t-15.5 -9.5q-8 -3 -25 -11t-33 -13.5t-26.5 -4.5t-5.5 16q7 21 21.5 63t32 93.5t37 106.5t36 102.5t28.5 80.5t15 40q5 11 17 16
t23.5 5t19 -5.5t3.5 -15.5q-2 -6 -12 -33t-24.5 -66.5t-31.5 -87t-33 -94.5q32 47 66.5 86t55.5 56zM43 406q7 6 17 14.5t20 16.5t19 16t14 13q13 11 21 11t16 -11l20 -27.5t23 -33.5q6 -8 4.5 -13.5t-6.5 -8t-11.5 -0.5t-12.5 10q-5 8 -11.5 16.5t-11.5 16.5l-12 18
q-13 -10 -25 -20q-11 -8 -22.5 -17t-19.5 -15q-9 -6 -16 -7t-10.5 1.5t-3 8t7.5 11.5z" />
    </font>
</defs>
</svg>
